<?xml version="1.0" encoding="UTF-8"?>
<svg version="1.1" xmlns="http://www.w3.org/2000/svg" width="1024" height="184">
<path d="M0 0 C0.88196548 -0.03928116 1.76393097 -0.07856232 2.67262268 -0.11903381 C5.59314232 -0.23801038 8.51243036 -0.31587551 11.43457031 -0.38354492 C12.43695992 -0.40891516 13.43934952 -0.43428539 14.47211456 -0.46042442 C19.78772288 -0.58819494 25.10273419 -0.67995345 30.41943359 -0.74707031 C34.79844184 -0.80909363 39.16647564 -0.94076565 43.54150391 -1.13671875 C79.91542957 -2.73119708 79.91542957 -2.73119708 87.76513672 3.24871826 C93.13656604 8.72647181 96.24886841 14.88558257 98.99906921 21.98039246 C100.93845944 26.53576865 103.77512699 30.28364203 106.76269531 34.19848633 C107.73983231 35.56116988 108.71317302 36.92659366 109.68066406 38.29614258 C110.12587402 38.92278809 110.57108398 39.54943359 111.02978516 40.19506836 C113.40563804 43.57395458 115.67174222 47.02448958 117.94628906 50.47192383 C120.48008014 54.29541105 123.07177824 58.07914249 125.65991211 61.8659668 C127.62300864 64.73948842 129.57960011 67.61736802 131.53613281 70.49536133 C133.8262312 73.85949355 136.13966294 77.20380273 138.48925781 80.52661133 C138.96314941 81.20747803 139.43704102 81.88834473 139.92529297 82.58984375 C140.79058493 83.83281243 141.66720311 85.06800471 142.55712891 86.29345703 C145.31680873 90.29858825 145.31680873 90.29858825 145.06591797 93.31176758 C144.13206834 96.37729218 142.80069862 98.49932399 140.97363281 101.13208008 C140.2870459 102.13070068 139.60045898 103.12932129 138.89306641 104.15820312 C138.14879395 105.22337158 137.40452148 106.28854004 136.63769531 107.38598633 C135.86293366 108.50756108 135.0890191 109.62972142 134.31591797 110.75244141 C132.73419937 113.04761056 131.14851033 115.33995168 129.55957031 117.63012695 C126.22216386 122.44487158 122.93182143 127.29157971 119.63769531 132.13598633 C118.40883165 133.9382763 117.1796651 135.74035979 115.95019531 137.54223633 C113.44936942 141.20834067 110.94940436 144.87502958 108.45019531 148.54223633 C105.33607392 153.11168092 102.22076218 157.68031147 99.10449219 162.24829102 C97.85546515 164.07944677 96.60677816 165.91083452 95.35839844 167.74243164 C93.53589027 170.41600787 91.71197203 173.08861664 89.88769531 175.76098633 C89.33388184 176.57398193 88.78006836 177.38697754 88.20947266 178.22460938 C87.70367676 178.96493408 87.19788086 179.70525879 86.67675781 180.46801758 C86.23283691 181.11875244 85.78891602 181.7694873 85.33154297 182.43994141 C84.26269531 183.94848633 84.26269531 183.94848633 83.26269531 184.94848633 C80.47764839 185.15018825 77.7154865 185.2864024 74.92602539 185.37939453 C74.05103897 185.41166641 73.17605255 185.44393829 72.27455139 185.47718811 C64.15840712 185.76079821 56.03984888 185.93152907 47.92000294 186.06686115 C42.46672401 186.15973628 37.02023062 186.29014187 31.57055664 186.51220703 C-6.62818367 188.02978665 -6.62818367 188.02978665 -14.50976562 180.80078125 C-17.80948656 176.68818631 -19.93849111 172.29467945 -21.78030396 167.37466431 C-23.09308352 164.04651965 -24.87764226 161.61510505 -27.04199219 158.77270508 C-28.23240483 157.06067995 -29.42251432 155.34844398 -30.61230469 153.63598633 C-31.96385883 151.6919701 -33.31542158 149.74795986 -34.66699219 147.80395508 C-35.33956055 146.83635254 -36.01212891 145.86875 -36.70507812 144.87182617 C-39.38414971 141.01800551 -42.06436417 137.16498132 -44.74536133 133.3125 C-46.06598679 131.41370636 -47.38549855 129.5141376 -48.70385742 127.61376953 C-52.19861735 122.57922417 -55.71558183 117.56211667 -59.26464844 112.56567383 C-60.00263672 111.52088867 -60.740625 110.47610352 -61.50097656 109.3996582 C-62.91864396 107.39352509 -64.34283072 105.39197841 -65.77441406 103.39575195 C-66.72864258 102.04126953 -66.72864258 102.04126953 -67.70214844 100.65942383 C-68.26538818 99.86842285 -68.82862793 99.07742187 -69.40893555 98.26245117 C-70.85917172 95.73619892 -71.4946437 93.84863852 -71.73730469 90.94848633 C-70.36258897 88.44508902 -68.99310047 86.34596853 -67.29980469 84.07348633 C-66.27333573 82.64019849 -65.24732096 81.20658531 -64.22167969 79.77270508 C-63.66029297 78.99846191 -63.09890625 78.22421875 -62.52050781 77.42651367 C-59.30306298 72.95539305 -56.1860618 68.4142229 -53.04980469 63.88598633 C-51.67150273 61.90509698 -50.29258879 59.92463331 -48.91308594 57.94458008 C-45.51487058 53.06543657 -42.11848788 48.18502324 -38.72338867 43.30371094 C-37.40417583 41.40719045 -36.08467921 39.51086733 -34.76489258 37.61474609 C-31.27625538 32.60216828 -27.79251737 27.58627151 -24.31542969 22.56567383 C-23.59097656 21.52088867 -22.86652344 20.47610352 -22.12011719 19.3996582 C-20.73324627 17.39936362 -19.34775351 15.39811257 -17.96386719 13.39575195 C-17.33738281 12.49276367 -16.71089844 11.58977539 -16.06542969 10.65942383 C-15.51790039 9.86842285 -14.97037109 9.07742188 -14.40625 8.26245117 C-13.85549805 7.49884277 -13.30474609 6.73523438 -12.73730469 5.94848633 C-11.96598206 4.66874184 -11.96598206 4.66874184 -11.17907715 3.36314392 C-7.76759233 -0.01045778 -4.5624295 0.10843357 0 0 Z M57.26269531 41.94848633 C55.82597251 43.3535667 55.82597251 43.3535667 54.54785156 45.28833008 C54.03270996 46.0130249 53.51756836 46.73771973 52.98681641 47.484375 C52.43848145 48.27690674 51.89014648 49.06943848 51.32519531 49.88598633 C50.464021 51.10475464 50.464021 51.10475464 49.58544922 52.34814453 C47.80213723 54.87535937 46.03199657 57.4114497 44.26269531 59.94848633 C42.71703036 62.14622133 41.16824435 64.34172568 39.61889648 66.53686523 C38.63478367 67.93152519 37.65186455 69.32702825 36.67016602 70.72338867 C31.63604558 77.8732014 26.46145791 84.91787629 21.26269531 91.94848633 C26.84819658 101.16964115 33.14731726 109.8262565 39.49707031 118.52856445 C42.46811752 122.60060814 45.4293337 126.67972152 48.38769531 130.76098633 C49.20391357 131.88065796 49.20391357 131.88065796 50.03662109 133.02294922 C52.61659479 136.58090158 55.08374269 140.12404879 57.26269531 143.94848633 C61.12409753 142.51442788 64.56055317 140.71701708 68.11035156 138.63208008 C68.67058517 138.30396835 69.23081879 137.97585663 69.80802917 137.63780212 C71.64932972 136.55763281 73.48737163 135.47205921 75.32519531 134.38598633 C76.62366396 133.62176847 77.92216713 132.85760927 79.22070312 132.09350586 C89.76135432 125.87982424 100.22802276 119.5467906 110.67463684 113.17666626 C121.83361594 106.37216101 133.04684024 99.65876374 144.26269531 92.94848633 C141.00392542 90.24046354 137.75962825 87.95535999 134.07128906 85.87426758 C133.0586499 85.29805664 132.04601074 84.7218457 131.00268555 84.12817383 C129.91286377 83.51200195 128.82304199 82.89583008 127.70019531 82.26098633 C118.11666809 76.78892517 108.62075024 71.19652665 99.20019531 65.44848633 C98.03811649 64.74059112 96.87600714 64.03274602 95.71386719 63.32495117 C91.62768908 60.8349677 87.54296138 58.34260863 83.46044922 55.84661865 C80.49495264 54.03367265 77.52784163 52.22352108 74.5559082 50.42114258 C72.36427207 49.09196988 70.17580291 47.75755724 67.9909668 46.41723633 C67.01716064 45.82813477 66.04335449 45.2390332 65.04003906 44.63208008 C64.18659912 44.11186279 63.33315918 43.59164551 62.45385742 43.05566406 C60.22559742 41.72299205 60.22559742 41.72299205 57.26269531 41.94848633 Z " fill="#1D708B" transform="translate(71.7373046875,-0.948486328125)"/>
<path d="M0 0 C4 0 4 0 5.50439453 1.34619141 C5.99794434 1.89194824 6.49149414 2.43770508 7 3 C8.28372529 3.86069105 9.59690393 4.67835993 10.9296875 5.4609375 C11.71424316 5.9257251 12.49879883 6.3905127 13.30712891 6.86938477 C14.15452637 7.36623779 15.00192383 7.86309082 15.875 8.375 C17.69347452 9.45313582 19.511158 10.53260676 21.328125 11.61328125 C22.26591797 12.17096191 23.20371094 12.72864258 24.16992188 13.30322266 C28.68397129 16.00962737 33.15544034 18.78342805 37.625 21.5625 C47.05524737 27.42144591 56.51908035 33.22346898 66 39 C65.57918375 44.24016429 62.76479681 47.34202291 59.625 51.3125 C55.39732425 56.79450635 51.31803874 62.3291804 47.4375 68.0625 C43.68123064 73.59553135 39.83453933 79.04778517 35.875 84.4375 C35.16428345 85.40538452 35.16428345 85.40538452 34.43920898 86.39282227 C31.14517212 90.85482788 31.14517212 90.85482788 30 92 C27.10856849 92.09523905 24.24107936 92.12553027 21.34936523 92.11352539 C19.9885231 92.11374443 19.9885231 92.11374443 18.60018921 92.1139679 C15.58630015 92.11326841 12.57247207 92.10547434 9.55859375 92.09765625 C7.47494033 92.0957922 5.39128646 92.09436824 3.30763245 92.09336853 C-2.18823446 92.08954234 -7.68407513 92.0797112 -13.17993164 92.06866455 C-18.78336227 92.0584526 -24.38679713 92.05387137 -29.99023438 92.04882812 C-40.99350114 92.03808902 -51.99674839 92.02101139 -63 92 C-61.6101542 88.40215702 -60.09402659 85.44573391 -57.8671875 82.2890625 C-57.23425781 81.38607422 -56.60132813 80.48308594 -55.94921875 79.55273438 C-54.92248047 78.10350586 -54.92248047 78.10350586 -53.875 76.625 C-52.41393072 74.54436337 -50.95299694 72.46363157 -49.4921875 70.3828125 C-48.74420898 69.32094727 -47.99623047 68.25908203 -47.22558594 67.16503906 C-43.7976712 62.29015022 -40.39949234 57.39472923 -37 52.5 C-35.67201804 50.59104632 -34.34389243 48.68219256 -33.015625 46.7734375 C-30.29526945 42.8630926 -27.57673082 38.95149249 -24.859375 35.0390625 C-18.6159782 26.05205319 -12.3660067 17.06999444 -6.0625 8.125 C-5.30888184 7.05403076 -5.30888184 7.05403076 -4.54003906 5.96142578 C-1.12145279 1.12145279 -1.12145279 1.12145279 0 0 Z " fill="#1D4E98" transform="translate(63,0)"/>
<path d="M0 0 C12.03020273 -0.41858582 24.05865317 -0.73762208 36.09467602 -0.93261909 C41.68513253 -1.02625699 47.27058117 -1.15301778 52.8581543 -1.35791016 C58.259757 -1.55472441 63.65657415 -1.66134514 69.0614872 -1.70779037 C71.11412253 -1.74084294 73.16651891 -1.80540579 75.21709251 -1.90314102 C90.79909539 -2.61570624 90.79909539 -2.61570624 96.09704971 1.71366119 C99.96613766 5.94287927 102.86393349 10.65184306 105.63904762 15.64534378 C107.86482748 19.49628411 110.50522275 23.03640482 113.125 26.625 C118.83101916 34.69387349 124.42233341 42.84211363 130 51 C126.57776255 53.83530093 123.09837316 56.27653973 119.30078125 58.58203125 C118.18606445 59.25975586 117.07134766 59.93748047 115.92285156 60.63574219 C114.71955146 61.36157755 113.51609729 62.08715755 112.3125 62.8125 C111.70128296 63.18250122 111.09006592 63.55250244 110.46032715 63.93371582 C100.23007652 70.12635665 89.91378857 76.16020695 79.52856445 82.08911133 C73.94087063 85.28111895 68.42935993 88.54495277 63 92 C53.64844324 78.66119094 44.32997016 65.29970551 35.03222656 51.92333984 C32.35307877 48.06940957 29.67270994 44.21632979 26.99194336 40.36352539 C25.67192938 38.46593451 24.35242434 36.56798949 23.03344727 34.66967773 C19.52447974 29.62073806 16.00540401 24.57921041 12.47265625 19.546875 C11.73466797 18.49306641 10.99667969 17.43925781 10.23632812 16.35351562 C8.8148297 14.32408077 7.39046583 12.29664921 5.96289062 10.27148438 C5.00866211 8.90733398 5.00866211 8.90733398 4.03515625 7.515625 C3.4719165 6.71415039 2.90867676 5.91267578 2.32836914 5.08691406 C1 3 1 3 0 0 Z " fill="#3891CE" transform="translate(0,92)"/>
<path d="M0 0 C0.57878906 0.4434375 1.15757812 0.886875 1.75390625 1.34375 C2.08390625 -1.29625 2.41390625 -3.93625 2.75390625 -6.65625 C8.03390625 -6.65625 13.31390625 -6.65625 18.75390625 -6.65625 C18.82360505 5.54019686 18.87681826 17.73659586 18.90934277 29.93320179 C18.92495771 35.59738544 18.94611954 41.26143221 18.98022461 46.92553711 C19.0129671 52.39797487 19.0307906 57.87028147 19.03853798 63.34280968 C19.04405484 65.424263 19.05482755 67.50570965 19.07109642 69.5871067 C19.20899534 87.97088306 17.48670619 103.0991532 4.265625 117.01953125 C-7.1284147 127.563005 -19.84030205 131.22226853 -35.03125 130.6640625 C-40.10785773 130.35189773 -44.59151756 129.43028416 -49.24609375 127.34375 C-50.35791016 126.85068359 -50.35791016 126.85068359 -51.4921875 126.34765625 C-61.45771281 121.35625796 -69.63269572 113.53686592 -74.24609375 103.34375 C-74.95170796 101.02189784 -75.62653763 98.69003197 -76.24609375 96.34375 C-60.0163657 95.11886486 -60.0163657 95.11886486 -55.92578125 97.94921875 C-54.50594897 100.016898 -53.37503624 102.10669423 -52.24609375 104.34375 C-46.53320646 110.18949513 -38.90669224 113.46049084 -30.68359375 113.78125 C-21.82407293 113.29081224 -14.77940289 110.28568202 -8.24609375 104.34375 C-7.68921875 103.84101563 -7.13234375 103.33828125 -6.55859375 102.8203125 C0.31128765 95.77868407 2.12045635 85.84549848 2.75390625 76.34375 C2.11066406 76.80265625 1.46742188 77.2615625 0.8046875 77.734375 C-12.4260531 86.71844422 -26.24328739 89.62633497 -41.90234375 86.6484375 C-54.13393259 83.24759855 -64.60135197 75.90804375 -71.296875 65.00390625 C-78.42753257 51.86525971 -80.26913338 38.74746296 -76.2109375 24.25390625 C-72.10740572 11.87685695 -64.03577267 1.31344456 -52.24609375 -4.65625 C-34.32813801 -11.85584204 -15.98312865 -11.78582008 0 0 Z M-56.24609375 20.34375 C-61.14513074 28.03580118 -63.16223455 35.25868711 -62.24609375 44.34375 C-59.51595612 55.17527431 -54.929288 61.57107823 -45.84375 67.86328125 C-38.36685647 72.12454839 -30.65600128 72.295974 -22.24609375 71.34375 C-12.89972446 68.32498015 -5.39972189 62.8619449 -0.87109375 54.09375 C2.93418705 45.82140043 3.33007754 35.51747635 0.19140625 26.90625 C-4.46900897 17.09656482 -11.53206135 12.40885175 -21.12109375 8.03125 C-35.14620585 4.94572534 -46.95378198 9.57806267 -56.24609375 20.34375 Z " fill="#000048" transform="translate(529.24609375,50.65625)"/>
<path d="M0 0 C0 -2.97 0 -5.94 0 -9 C5.61 -9 11.22 -9 17 -9 C17 21.69 17 52.38 17 84 C11.39 84 5.78 84 0 84 C-0.495 80.04 -0.495 80.04 -1 76 C-1.73863281 76.47050781 -2.47726562 76.94101563 -3.23828125 77.42578125 C-16.08028601 85.30721492 -28.64799674 88.11200061 -43.52734375 85.34375 C-56.40503409 81.7912837 -66.95797395 74.61299328 -73.75390625 63.00390625 C-78.12190077 54.57315056 -80.37865302 47.16722825 -80.3125 37.6875 C-80.30686035 36.84517822 -80.3012207 36.00285645 -80.29541016 35.13500977 C-80.04809518 22.4692995 -75.28911635 12.06466969 -66.74609375 2.65625 C-47.2641379 -15.8232786 -21.31413144 -14.20942096 0 0 Z M-54.203125 13.94140625 C-60.92992748 20.90489252 -64.10309873 28.38803156 -64.5 38.0625 C-64.14560352 46.89954768 -61.0476922 53.77951935 -54.984375 60.1796875 C-48.14938711 66.44957797 -41.86769731 69.45669469 -32.625 70.3125 C-22.37657267 69.42901489 -13.7540149 65.259279 -6.6875 57.75 C-0.38133494 49.70480892 1.19878701 41.04756533 0 31 C-2.14490945 22.00153373 -7.39998183 15.12439855 -15.125 10.125 C-16.40554411 9.39675163 -17.69602989 8.68542019 -19 8 C-19.78375 7.5875 -20.5675 7.175 -21.375 6.75 C-33.44506214 3.30141082 -44.74033022 5.6027378 -54.203125 13.94140625 Z " fill="#000047" transform="translate(857,53)"/>
<path d="M0 0 C11.32525624 -0.55914147 22.64717731 -0.98394287 33.98348236 -1.24349213 C39.25000674 -1.36816832 44.50702135 -1.5366958 49.76806641 -1.81054688 C84.82495366 -3.58847412 84.82495366 -3.58847412 92.42944336 2.28405762 C97.76106728 7.77791139 100.90216149 13.96866878 103.70817566 21.02687073 C105.68112308 25.56760243 108.51563617 29.33076069 111.5 33.25 C112.47698364 34.6127935 113.45029926 35.97823341 114.41796875 37.34765625 C114.86317871 37.97430176 115.30838867 38.60094727 115.76708984 39.24658203 C118.14294273 42.62546826 120.40904691 46.07600325 122.68359375 49.5234375 C125.86288867 54.32098913 129.1272729 59.06116585 132.375 63.8125 C138.31143803 72.50150142 144.19116025 81.22523501 150 90 C149.67 90.66 149.34 91.32 149 92 C135.6500619 84.39040104 122.36915987 76.68915272 109.25 68.6875 C108.68302399 68.34179962 108.11604797 67.99609924 107.53189087 67.6399231 C105.19885716 66.21717675 102.86600004 64.79414144 100.53340149 63.37068176 C93.85446942 59.2970443 87.1598301 55.24959718 80.45666504 51.2159729 C79.11881424 50.41029814 77.78164643 49.60348807 76.44519043 48.79550171 C74.58883892 47.67334956 72.73027584 46.55495435 70.87109375 45.4375 C69.27672485 44.47650391 69.27672485 44.47650391 67.65014648 43.49609375 C65.02222383 41.90129644 65.02222383 41.90129644 62 41 C62 40.34 62 39.68 62 39 C60.91041992 38.59164917 60.91041992 38.59164917 59.79882812 38.17504883 C57.08834944 37.03709228 54.7215245 35.7353543 52.21875 34.19921875 C50.84759033 33.36124756 50.84759033 33.36124756 49.44873047 32.50634766 C48.47564941 31.90612793 47.50256836 31.3059082 46.5 30.6875 C45.48695801 30.06665527 44.47391602 29.44581055 43.43017578 28.80615234 C40.28375075 26.8756472 37.14119985 24.93899401 34 23 C33.03674805 22.40558105 32.07349609 21.81116211 31.08105469 21.19873047 C26.62663037 18.44783295 22.17625332 15.69061746 17.73046875 12.92578125 C14.76794156 11.08620999 11.79457865 9.26868115 8.80078125 7.48046875 C8.18154785 7.10841309 7.56231445 6.73635742 6.92431641 6.35302734 C5.32129099 5.39265423 3.7135844 4.44010636 2.10546875 3.48828125 C1.41066406 2.99714844 0.71585937 2.50601562 0 2 C0 1.34 0 0.68 0 0 Z " fill="#6AA5D7" transform="translate(67,0)"/>
<path d="M0 0 C10.34015709 8.7636309 16.68945285 20.37234849 18.23828125 33.90234375 C18.92878223 48.0031006 14.96745726 60.53884164 5.98828125 71.52734375 C-3.40385457 81.33877135 -16.397515 86.89020362 -29.88671875 87.33984375 C-43.52173039 87.01610744 -55.12401088 82.62058063 -65.01171875 73.21484375 C-75.43880878 62.19286428 -79.17627241 49.39154316 -78.91015625 34.4921875 C-78.36459931 21.80663824 -72.56251182 10.43190668 -63.44921875 1.71484375 C-45.10128501 -13.50737726 -19.16789232 -14.34042314 0 0 Z M-53.63671875 15.02734375 C-60.95528273 24.05876314 -63.72707032 32.41740306 -62.63671875 44.02734375 C-61.20624424 52.12047883 -56.72702888 58.69818698 -50.390625 63.85546875 C-41.7967232 69.82627405 -34.00049316 70.92057514 -23.63671875 70.02734375 C-15.87804665 68.3271077 -9.79094575 63.99486101 -4.63671875 58.02734375 C0.64933512 49.5116245 2.29728476 42.01568716 1.36328125 32.02734375 C-0.85379866 23.14820907 -5.3867158 16.57353725 -12.63671875 11.02734375 C-25.74427049 3.47739395 -42.42799355 3.95907876 -53.63671875 15.02734375 Z " fill="#000047" transform="translate(426.63671875,51.97265625)"/>
<path d="M0 0 C10.22742218 8.71368607 15.40850098 18.51183964 17.05859375 31.75390625 C17.29917554 36.12637053 17.29333106 40.48139371 17.25390625 44.859375 C17.25107635 46.06459305 17.24824646 47.2698111 17.24533081 48.5115509 C17.23422895 52.32160817 17.20914309 56.13142128 17.18359375 59.94140625 C17.17355103 62.54101221 17.16442745 65.14062188 17.15625 67.74023438 C17.13432239 74.07821758 17.09986223 80.41602067 17.05859375 86.75390625 C11.44859375 86.75390625 5.83859375 86.75390625 0.05859375 86.75390625 C0.05448486 85.01898926 0.05037598 83.28407227 0.04614258 81.49658203 C0.02665344 75.72885855 -0.01579991 69.96154248 -0.07349682 64.1940937 C-0.10761531 60.70125062 -0.13285285 57.20883784 -0.13696289 53.71582031 C-0.14210713 49.68893714 -0.18737264 45.66333262 -0.234375 41.63671875 C-0.23044235 40.39777863 -0.2265097 39.1588385 -0.22245789 37.88235474 C-0.36456874 29.3420788 -1.81022644 22.35603768 -7.65080261 15.84963989 C-12.83747416 10.8890253 -18.70231076 8.66153451 -25.81640625 8.31640625 C-32.29821881 8.56532378 -38.06272266 10.25940787 -43.01953125 14.5546875 C-50.73947395 22.90714651 -51.39685939 30.29808859 -51.453125 41.34375 C-51.4710762 42.64341202 -51.4890274 43.94307404 -51.50752258 45.28211975 C-51.55479342 48.71626809 -51.58474997 52.15035179 -51.61096191 55.5847168 C-51.64088411 59.09762329 -51.68737396 62.61030755 -51.73242188 66.12304688 C-51.81819363 72.99988775 -51.88412052 79.87676964 -51.94140625 86.75390625 C-57.55140625 86.75390625 -63.16140625 86.75390625 -68.94140625 86.75390625 C-68.94140625 56.06390625 -68.94140625 25.37390625 -68.94140625 -6.24609375 C-63.33140625 -6.24609375 -57.72140625 -6.24609375 -51.94140625 -6.24609375 C-51.61140625 -4.59609375 -51.28140625 -2.94609375 -50.94140625 -1.24609375 C-50.31234375 -1.58382812 -49.68328125 -1.9215625 -49.03515625 -2.26953125 C-33.05734859 -10.59531657 -15.13416927 -11.07987805 0 0 Z " fill="#000047" transform="translate(956.94140625,50.24609375)"/>
<path d="M0 0 C7.53330699 6.00247455 13.11511833 14.44388909 15 24 C15.08683655 26.04701107 15.11768972 28.09665995 15.11352539 30.14550781 C15.11341209 32.00698456 15.11341209 32.00698456 15.11329651 33.90606689 C15.10819031 35.25508667 15.10297432 36.60410604 15.09765625 37.953125 C15.09579024 39.33746286 15.0943672 40.72180138 15.09336853 42.10614014 C15.08955773 45.74261308 15.07973975 49.37904582 15.06866455 53.01550293 C15.0584195 56.72907976 15.05386429 60.4426631 15.04882812 64.15625 C15.03811615 71.43752041 15.02053103 78.71874944 15 86 C9.72 86 4.44 86 -1 86 C-1.0093457 84.32566895 -1.01869141 82.65133789 -1.02832031 80.92626953 C-1.06402163 75.35812769 -1.11792845 69.79035519 -1.18390274 64.22249031 C-1.22320235 60.85078272 -1.25547535 57.47932942 -1.27099609 54.10742188 C-1.29253112 50.21963103 -1.33923942 46.3328098 -1.390625 42.4453125 C-1.39185364 41.25011993 -1.39308228 40.05492737 -1.39434814 38.82351685 C-1.55270491 29.66494766 -3.00628643 21.99124008 -9.3125 15.0625 C-14.92989732 9.99372322 -21.49091923 7.8159539 -29 8 C-36.64481692 9.22269587 -43.63512863 12.49399834 -48.34765625 18.8046875 C-51.36601139 23.84609788 -52.11736914 27.99854352 -52.20532227 33.77832031 C-52.22526749 34.9392218 -52.24521271 36.10012329 -52.26576233 37.29620361 C-52.28247482 38.54423767 -52.29918732 39.79227173 -52.31640625 41.078125 C-52.33718735 42.35983582 -52.35796844 43.64154663 -52.37937927 44.96209717 C-52.43444747 48.36176272 -52.48392364 51.76148738 -52.53222656 55.16125488 C-52.58255332 58.63359814 -52.63818093 62.10585605 -52.69335938 65.578125 C-52.80075425 72.38534416 -52.90175013 79.19264277 -53 86 C-58.61 86 -64.22 86 -70 86 C-70 55.31 -70 24.62 -70 -7 C-64.39 -7 -58.78 -7 -53 -7 C-53 -5.02 -53 -3.04 -53 -1 C-52.04738281 -1.49371094 -51.09476563 -1.98742188 -50.11328125 -2.49609375 C-48.84651829 -3.14355037 -47.57958199 -3.79066794 -46.3125 -4.4375 C-45.68666016 -4.76298828 -45.06082031 -5.08847656 -44.41601562 -5.42382812 C-29.84215173 -12.8252145 -12.82046527 -9.36469926 0 0 Z " fill="#000048" transform="translate(632,51)"/>
<path d="M0 0 C25.74 0 51.48 0 78 0 C78 17 78 17 73.4375 22.5625 C72.59058594 23.24441406 71.74367188 23.92632812 70.87109375 24.62890625 C67.80887993 27.15783658 65.38737281 29.88683023 62.81420898 32.89672852 C59.91620007 36.25648451 56.85956295 39.46337581 53.8125 42.6875 C52.49049939 44.09208469 51.16888984 45.49703754 49.84765625 46.90234375 C49.19812988 47.59312012 48.54860352 48.28389648 47.87939453 48.99560547 C39.50790927 57.92388476 31.26991678 66.9782726 23 76 C41.15 76.33 59.3 76.66 78 77 C78 82.28 78 87.56 78 93 C52.26 93 26.52 93 0 93 C0 77 0 77 2.203125 73.05078125 C3.65625 71.6328125 3.65625 71.6328125 5.25 70.3125 C6.36041584 69.25760495 7.46976109 68.20158202 8.578125 67.14453125 C9.14853516 66.62713379 9.71894531 66.10973633 10.30664062 65.57666016 C13.03621595 63.0351957 15.50181041 60.26588231 18 57.5 C19.00131878 56.41287716 20.00392523 55.32693895 21.0078125 54.2421875 C22.98290792 52.10260788 24.95678123 49.96191082 26.9296875 47.8203125 C27.91139628 46.75515114 28.89316729 45.69004713 29.875 44.625 C30.35976807 44.09898193 30.84453613 43.57296387 31.34399414 43.03100586 C34.11455944 40.02891952 36.89702928 37.03853765 39.69140625 34.05859375 C40.3148291 33.39327637 40.93825195 32.72795898 41.58056641 32.04248047 C42.7831893 30.76016761 43.9872031 29.47915722 45.19287109 28.19970703 C45.74668457 27.60915527 46.30049805 27.01860352 46.87109375 26.41015625 C47.35505615 25.89590088 47.83901855 25.38164551 48.33764648 24.85180664 C50.63060274 22.29752948 52.80257414 19.63691103 55 17 C36.85 16.67 18.7 16.34 0 16 C0 10.72 0 5.44 0 0 Z " fill="#000047" transform="translate(691,44)"/>
<path d="M0 0 C9.92041895 6.71205613 15.86092294 15.0131916 20.01171875 26.203125 C20.01171875 26.863125 20.01171875 27.523125 20.01171875 28.203125 C5.00541358 29.73786076 5.00541358 29.73786076 0.34765625 26.15234375 C-1.57009846 23.57368951 -3.26946839 20.91660196 -4.98828125 18.203125 C-10.80297255 12.50818707 -18.35625517 10.1078056 -26.36328125 9.765625 C-35.22672143 10.06313908 -42.87651867 13.05096939 -49.26953125 19.234375 C-55.14420917 25.96355152 -57.53529217 33.31757005 -57.98828125 42.203125 C-57.32736589 51.55035652 -53.71872108 59.25176154 -46.92578125 65.6640625 C-38.51467798 72.34546308 -29.3655415 72.97023253 -18.98828125 72.203125 C-15.63458039 71.3240923 -12.92555615 70.02399664 -9.98828125 68.203125 C-9.03695312 67.65978516 -9.03695312 67.65978516 -8.06640625 67.10546875 C-4.31911049 64.7433913 -2.8449607 62.98770184 -1.17578125 58.890625 C-0.05078125 56.80859375 -0.05078125 56.80859375 2.01171875 55.203125 C7.91733199 54.13455983 14.06643561 54.75861785 20.01171875 55.203125 C16.73115434 67.41365004 9.34145434 76.94223937 -1.36328125 83.703125 C-14.10813351 90.56573775 -28.04318625 92.21669745 -41.9765625 88.30078125 C-56.23449906 83.10430891 -65.16850339 73.99755544 -71.578125 60.6328125 C-76.47772714 48.71632862 -77.01678868 34.97149647 -72.25 22.87890625 C-65.72293025 9.03666855 -56.88212729 0.56383885 -42.61328125 -5.171875 C-28.06799126 -9.61991852 -12.93100281 -7.77550496 0 0 Z " fill="#000047" transform="translate(320.98828125,48.796875)"/>
<path d="M0 0 C5.61 0 11.22 0 17 0 C17 8.25 17 16.5 17 25 C24.26 25 31.52 25 39 25 C39 30.28 39 35.56 39 41 C31.74 41 24.48 41 17 41 C17.0739982 48.02982907 17.1568314 55.05838566 17.26245117 62.08764648 C17.29569167 64.47852983 17.32372629 66.86949148 17.34643555 69.26049805 C17.37999683 72.69874419 17.43231524 76.13627329 17.48828125 79.57421875 C17.49467117 80.64210129 17.5010611 81.70998383 17.50764465 82.81022644 C17.64150338 89.57722621 18.32087182 93.35326197 23.26171875 98.234375 C26.51551927 100.3324033 28.98556364 100.78612893 32.8125 101.25 C35.8753125 101.62125 35.8753125 101.62125 39 102 C39 107.28 39 112.56 39 118 C27.72820385 118.44203122 19.60959221 118.01062253 10.6875 110.75 C4.23046628 104.6321236 0.56047999 97.77625505 -0.18054581 88.81718445 C-0.24394571 86.45521841 -0.24771514 84.10100745 -0.22705078 81.73828125 C-0.22734283 80.84953812 -0.22763489 79.96079498 -0.22793579 79.04512024 C-0.22655258 76.13414433 -0.21103925 73.22343069 -0.1953125 70.3125 C-0.19157878 68.28369283 -0.1887335 66.25488384 -0.18673706 64.22607422 C-0.17912889 58.90617833 -0.15950473 53.58639298 -0.1373291 48.26654053 C-0.11680984 42.83005264 -0.10772237 37.39354676 -0.09765625 31.95703125 C-0.07625605 21.30463131 -0.041097 10.65234217 0 0 Z " fill="#000047" transform="translate(985,19)"/>
<path d="M0 0 C5.28 0 10.56 0 16 0 C16 30.69 16 61.38 16 93 C10.72 93 5.44 93 0 93 C0 62.31 0 31.62 0 0 Z " fill="#000048" transform="translate(661,44)"/>
<path d="M0 0 C2.87029869 1.79393668 4.49131638 2.98263276 6 6 C6.4973766 10.973766 6.54511419 13.06308498 4 17.4375 C0.7603647 20.20468848 -0.92451101 20.95696666 -5.07421875 21.16796875 C-8.08440289 20.90541719 -9.72221419 19.95238784 -12 18 C-14.12738138 15.28575479 -14.92909561 13.4760723 -15.4375 10.0625 C-14.88393677 6.1875574 -13.40826469 4.04574652 -11 1 C-7.54260443 -0.72869779 -3.78024432 -0.48966895 0 0 Z " fill="#000048" transform="translate(673,11)"/>
</svg>
