<?xml version="1.0" encoding="UTF-8"?>
<svg version="1.1" xmlns="http://www.w3.org/2000/svg" width="616" height="246">
<path d="M0 0 C203.28 0 406.56 0 616 0 C616 81.18 616 162.36 616 246 C412.72 246 209.44 246 0 246 C0 164.82 0 83.64 0 0 Z " fill="#FEFEFE" transform="translate(0,0)"/>
<path d="M0 0 C2.64 0 5.28 0 8 0 C8.3623877 0.67466309 8.72477539 1.34932617 9.09814453 2.04443359 C10.77128871 5.15596006 12.44812174 8.26548444 14.125 11.375 C14.69476563 12.43589844 15.26453125 13.49679688 15.8515625 14.58984375 C19.40230225 21.16678215 23.08854575 27.63073272 27 34 C27.37769531 33.22140625 27.75539063 32.4428125 28.14453125 31.640625 C33.42528286 20.90598238 39.18033879 10.45041038 45 0 C47.64 0 50.28 0 53 0 C53 16.83 53 33.66 53 51 C50.69 51 48.38 51 46 51 C45.67 38.79 45.34 26.58 45 14 C41.60487807 20.17651237 41.60487807 20.17651237 38.21020508 26.35327148 C35.15470274 31.91032816 32.08497019 37.45924788 29 43 C27.35 43 25.7 43 24 43 C23.58637207 42.22809326 23.17274414 41.45618652 22.74658203 40.66088867 C21.20839912 37.79207603 19.66886578 34.92399351 18.12841797 32.05639648 C17.46251231 30.81612694 16.79714264 29.57556947 16.13232422 28.3347168 C15.17556936 26.54920344 14.21687944 24.76474103 13.2578125 22.98046875 C12.6817627 21.90692139 12.10571289 20.83337402 11.51220703 19.72729492 C9.99690384 16.9069103 9.99690384 16.9069103 8 14 C7.67 26.21 7.34 38.42 7 51 C4.69 51 2.38 51 0 51 C0 34.17 0 17.34 0 0 Z " fill="#6E7079" transform="translate(373,110)"/>
<path d="M0 0 C4.44944823 3.07028347 7.65279447 6.37930985 8.6796875 11.8359375 C9.34549912 18.81744792 9.29227326 24.73191328 5.6796875 30.8359375 C2.15767751 34.89979518 -0.71656443 37.52406795 -6.125 38.171875 C-12.35905515 38.25118868 -16.52349336 38.27299521 -21.3203125 33.8359375 C-26.10103965 28.66758382 -26.48102814 24.88047574 -26.5703125 17.9609375 C-26.59609375 16.76726562 -26.621875 15.57359375 -26.6484375 14.34375 C-26.14181562 8.92772081 -24.34339936 5.81454232 -20.4453125 2.0859375 C-13.93197854 -2.60366295 -7.43637708 -3.73070769 0 0 Z " fill="#FBFBFB" transform="translate(572.3203125,117.1640625)"/>
<path d="M0 0 C3.49010734 2.39990609 5.96431345 5.4833144 7.86328125 9.28125 C9.18003837 25.72190314 9.18003837 25.72190314 4.328125 31.796875 C-0.0309446 36.21406553 -3.01711436 37.52934729 -9.19921875 37.71875 C-13.77352637 37.71286286 -16.41198094 36.96078077 -20.13671875 34.28125 C-26.15313099 27.84508806 -27.6127644 22.94542399 -27.453125 14.29296875 C-26.85592287 8.60848919 -24.7521532 4.85526305 -20.69921875 0.90625 C-13.60986917 -3.5894351 -7.41939717 -4.033847 0 0 Z " fill="#FBFBFC" transform="translate(339.13671875,117.71875)"/>
<path d="M0 0 C30.18458418 0 30.18458418 0 37 6 C43.6699746 13.7772946 44.6159041 19.91311778 44 30 C42.86979939 36.84341653 39.56167212 42.77674653 34 47 C24 51 24 51 0 51 C0 34.17 0 17.34 0 0 Z M7 5 C7 18.2 7 31.4 7 45 C23.70569954 46.66410059 23.70569954 46.66410059 31 41 C36.35722841 35.04752399 37.40398711 30.88765002 37.25 22.9765625 C36.80395764 17.66587071 35.1586357 14.4565706 31.8125 10.25 C23.75862383 3.80689907 17.7703163 5 7 5 Z " fill="#686A73" transform="translate(245,110)"/>
<path d="M0 0 C5 0 5 0 6.59765625 1.1875 C7.08105469 1.785625 7.56445312 2.38375 8.0625 3 C8.65546875 3.72960937 9.2484375 4.45921875 9.859375 5.2109375 C10.56578125 6.13132812 11.2721875 7.05171875 12 8 C12.43763672 8.56879883 12.87527344 9.13759766 13.32617188 9.72363281 C20.43510307 18.99803898 27.20503574 28.48705003 34 38 C34.33 25.46 34.66 12.92 35 0 C36.98 0 38.96 0 41 0 C41 16.83 41 33.66 41 51 C35 51 35 51 33.2265625 49.33203125 C32.69804687 48.50058594 32.16953125 47.66914063 31.625 46.8125 C30.96242188 45.82507813 30.29984375 44.83765625 29.6171875 43.8203125 C29.22499023 43.23540039 28.83279297 42.65048828 28.42871094 42.04785156 C25.35855901 37.64723051 22.02399177 33.43721635 18.75 29.1875 C17.36777974 27.39086898 15.98748756 25.59275253 14.609375 23.79296875 C14.01092773 23.0146167 13.41248047 22.23626465 12.79589844 21.43432617 C10.77074573 18.68924764 8.89222699 15.83834048 7 13 C6.67 25.54 6.34 38.08 6 51 C4.02 51 2.04 51 0 51 C0 34.17 0 17.34 0 0 Z " fill="#656871" transform="translate(479,110)"/>
<path d="M0 0 C5.15912125 2.77868461 8.36439363 7.19042322 11.2265625 12.19921875 C13.59522158 20.48952554 13.17980946 30.09013028 9.62890625 37.9375 C6.24114762 43.40132241 1.35315596 47.28132862 -4.7734375 49.19921875 C-13.23604099 50.20505962 -20.5838294 50.09023841 -27.75 45.04296875 C-33.26208867 40.02037058 -36.25424103 33.50581685 -37.14453125 26.12109375 C-37.34117985 16.72823116 -35.59330447 10.19271604 -29.0234375 3.32421875 C-19.06766599 -3.18532416 -11.11292843 -4.90276254 0 0 Z M-26.1484375 9.63671875 C-30.17091048 15.97984922 -30.54904108 21.82619708 -29.7734375 29.19921875 C-28.12909679 34.62109894 -25.0975537 38.5403512 -20.7734375 42.19921875 C-14.80145894 44.18987827 -8.10550792 44.21684948 -2.3359375 41.69921875 C3.62682284 35.88189159 5.67468476 31.57694376 5.7890625 23.07421875 C5.80372559 22.39327148 5.81838867 21.71232422 5.83349609 21.01074219 C5.73173387 15.97167322 4.33935788 13.09308456 1.2265625 9.19921875 C-2.93824249 5.35478337 -6.44756711 3.46252483 -12.0859375 2.82421875 C-17.88699197 3.41415649 -22.07917496 5.46037036 -26.1484375 9.63671875 Z " fill="#656771" transform="translate(341.7734375,111.80078125)"/>
<path d="M0 0 C6.10203483 3.52040471 9.52332989 7.05963307 11.75 13.75 C14.25750097 23.12888486 13.04075678 30.18636325 9 39 C6.0041619 44.10402046 1.55656613 47.12734512 -4 49 C-11.18540682 49.89432102 -18.91985752 50.32008773 -25.2890625 46.3984375 C-30.60997011 42.04938516 -34.25839604 37.72817757 -36 31 C-36.79573064 22.58931219 -37.12439559 14.09090033 -32 7 C-23.01685818 -2.937966 -12.11810069 -5.99500119 0 0 Z M-25.9375 10.0625 C-30.19944914 16.13254878 -29.4369545 22.83880122 -29 30 C-27.85364176 35.72207629 -24.56245698 38.69949921 -20 42 C-15.41916318 44.29041841 -8.59996303 43.80529828 -3.79296875 42.31640625 C0.85439254 39.87628845 3.98032434 36.17459022 5.5859375 31.17578125 C6.96326558 23.93831201 7.02445813 16.28821583 3 10 C-1.48442611 5.26823144 -6.01418569 3.04031027 -12.54296875 2.76953125 C-18.16792133 3.29715001 -22.26206711 5.86200526 -25.9375 10.0625 Z " fill="#646670" transform="translate(575,112)"/>
<path d="M0 0 C6.30711238 2.52284495 9.34652169 10.7901199 12.5 16.4375 C16.4394108 23.57806909 16.4394108 23.57806909 20.84765625 30.4296875 C23.03127682 33.82643061 23.02296924 36.04037576 22.5 40 C21.3125 42 21.3125 42 19.5 43 C17.0625 43 17.0625 43 14.5 42 C11.37021073 38.49007438 9.09184803 34.72495935 6.8125 30.625 C4.61021805 26.67500151 2.37635413 22.76231774 -0.01953125 18.92578125 C-0.43307861 18.2591748 -0.84662598 17.59256836 -1.27270508 16.90576172 C-2.07488533 15.61927332 -2.88560113 14.33805771 -3.70581055 13.06298828 C-5.8530255 9.59845482 -7.16849529 7.10647104 -6.5 3 C-4.34792531 0.60880591 -3.22805796 0 0 0 Z " fill="#63656F" transform="translate(190.5,121)"/>
<path d="M0 0 C0.80771347 -0.01268417 1.61542694 -0.02536835 2.44761658 -0.03843689 C3.75080589 -0.03403343 3.75080589 -0.03403343 5.08032227 -0.02954102 C5.97662857 -0.03478287 6.87293488 -0.04002472 7.79640198 -0.04542542 C9.69189417 -0.05184837 11.5874262 -0.05050508 13.48291016 -0.04199219 C16.38264028 -0.03348858 19.28039655 -0.06222853 22.17993164 -0.09399414 C24.02172793 -0.0956064 25.8635277 -0.09502814 27.70532227 -0.09204102 C29.00547523 -0.10889198 29.00547523 -0.10889198 30.33189392 -0.12608337 C36.3208369 -0.05679695 36.3208369 -0.05679695 39.54541016 2.27099609 C40.95922852 4.40405273 40.95922852 4.40405273 40.83422852 7.02905273 C39.95922852 9.40405273 39.95922852 9.40405273 37.95922852 11.40405273 C36.14442444 11.66474915 36.14442444 11.66474915 33.92431641 11.67871094 C33.09327896 11.68824295 32.26224152 11.69777496 31.40602112 11.70759583 C30.50705612 11.70668442 29.60809113 11.70577301 28.68188477 11.70483398 C27.75959579 11.70911911 26.83730682 11.71340424 25.8870697 11.71781921 C23.93432436 11.72356832 21.9815576 11.72405852 20.02880859 11.71972656 C17.03714517 11.71656901 14.04647252 11.74001003 11.05493164 11.76538086 C9.1597506 11.76765399 7.26456689 11.76835728 5.36938477 11.76733398 C4.472444 11.77654373 3.57550323 11.78575348 2.65138245 11.79524231 C1.81719284 11.78901352 0.98300323 11.78278473 0.12353516 11.77636719 C-0.60989609 11.77699661 -1.34332733 11.77762604 -2.09898376 11.77827454 C-4.60589919 11.29514119 -5.49535665 10.4019116 -7.04077148 8.40405273 C-7.41577148 5.90405273 -7.41577148 5.90405273 -7.04077148 3.40405273 C-4.88687118 0.63984318 -3.46422839 0.02637581 0 0 Z " fill="#5F626B" transform="translate(158.040771484375,73.595947265625)"/>
<path d="M0 0 C2.4375 0.4375 2.4375 0.4375 5.4375 2.4375 C6.46675493 8.18921873 3.81385898 12.10135167 1 16.875 C0.55277588 17.65544678 0.10555176 18.43589355 -0.35522461 19.23999023 C-1.74224261 21.64853321 -3.14905636 24.04438353 -4.5625 26.4375 C-5.22620605 27.56720215 -5.22620605 27.56720215 -5.90332031 28.71972656 C-13.14630682 41.02130682 -13.14630682 41.02130682 -14.5625 42.4375 C-19.83815392 42.89625252 -19.83815392 42.89625252 -22.4375 41.25 C-23.95219153 38.80966364 -23.79353436 37.28132297 -23.5625 34.4375 C-22.63671875 32.4296875 -22.63671875 32.4296875 -21.25 30.3125 C-17.47643641 24.35945577 -13.99540088 18.25800977 -10.5222168 12.12646484 C-3.95665423 0.67552633 -3.95665423 0.67552633 0 0 Z " fill="#62656E" transform="translate(116.5625,47.5625)"/>
<path d="M0 0 C0.87269531 -0.00524185 1.74539062 -0.0104837 2.64453125 -0.0158844 C4.48696836 -0.02229891 6.32944645 -0.02097498 8.171875 -0.01245117 C10.9903244 -0.00393548 13.80675049 -0.0327183 16.625 -0.06445312 C18.41666606 -0.06606513 20.20833571 -0.06548762 22 -0.0625 C23.26263672 -0.07935097 23.26263672 -0.07935097 24.55078125 -0.09654236 C28.41604329 -0.05050498 30.37458607 -0.0206749 33.5703125 2.30053711 C35 4.43359375 35 4.43359375 34.875 7.05859375 C34 9.43359375 34 9.43359375 32 11.43359375 C30.18519592 11.69429016 30.18519592 11.69429016 27.96508789 11.70825195 C27.13405045 11.71778397 26.303013 11.72731598 25.4467926 11.73713684 C24.54782761 11.73622543 23.64886261 11.73531403 22.72265625 11.734375 C21.80036728 11.73866013 20.87807831 11.74294525 19.92784119 11.74736023 C17.97509584 11.75310934 16.02232908 11.75359953 14.06958008 11.74926758 C11.07791665 11.74611002 8.08724401 11.76955105 5.09570312 11.79492188 C3.20052208 11.79719501 1.30533838 11.7978983 -0.58984375 11.796875 C-1.48678452 11.80608475 -2.38372528 11.81529449 -3.30784607 11.82478333 C-4.14203568 11.81855453 -4.97622528 11.81232574 -5.83569336 11.8059082 C-6.5691246 11.80653763 -7.30255585 11.80716705 -8.05821228 11.80781555 C-10.56516077 11.32467583 -11.45173251 10.42896988 -13 8.43359375 C-13.4375 5.93359375 -13.4375 5.93359375 -13 3.43359375 C-9.40438371 -0.56533083 -4.99109706 -0.0174065 0 0 Z " fill="#60636D" transform="translate(79,178.56640625)"/>
<path d="M0 0 C3.0625 0.3125 3.0625 0.3125 4.72964478 1.57849121 C6.35044267 3.68710566 6.4418562 4.73343597 6.45068359 7.36914062 C6.46486832 8.58555237 6.46486832 8.58555237 6.4793396 9.82653809 C6.47326691 10.69846802 6.46719421 11.57039795 6.4609375 12.46875 C6.46524277 13.81676697 6.46524277 13.81676697 6.46963501 15.1920166 C6.47167615 17.09172191 6.46614278 18.9914482 6.45361328 20.89111328 C6.43756021 23.8015841 6.45346013 26.71066621 6.47265625 29.62109375 C6.47067383 31.4661489 6.46683017 33.31120319 6.4609375 35.15625 C6.47004654 36.4641449 6.47004654 36.4641449 6.4793396 37.79846191 C6.46988312 38.60940308 6.46042664 39.42034424 6.45068359 40.25585938 C6.44829681 40.96850952 6.44591003 41.68115967 6.44345093 42.41540527 C5.94446756 44.90028889 5.06261075 45.79366212 3.0625 47.3125 C0 47.625 0 47.625 -2.9375 47.3125 C-5.32596827 44.92403173 -5.1894244 44.42029425 -5.19628906 41.16992188 C-5.20259338 40.31563599 -5.20889771 39.4613501 -5.21539307 38.58117676 C-5.2113446 37.65720093 -5.20729614 36.7332251 -5.203125 35.78125 C-5.20503845 34.83439331 -5.2069519 33.88753662 -5.20892334 32.9119873 C-5.21028573 30.90795628 -5.20658556 28.90391646 -5.19824219 26.89990234 C-5.18754347 23.82499447 -5.19813572 20.75067086 -5.2109375 17.67578125 C-5.20961591 15.73176954 -5.20705354 13.78775819 -5.203125 11.84375 C-5.20919769 10.45778625 -5.20919769 10.45778625 -5.21539307 9.04382324 C-5.20908875 8.18953735 -5.20278442 7.33525146 -5.19628906 6.45507812 C-5.19469788 5.70166138 -5.19310669 4.94824463 -5.19146729 4.17199707 C-4.72522448 0.75826162 -3.22429016 0.34300959 0 0 Z " fill="#63666F" transform="translate(184.9375,150.6875)"/>
<path d="M0 0 C2.97968041 0.44695206 3.66536178 1.04404759 5.5 3.375 C5.8742218 5.31678772 5.8742218 5.31678772 5.87231445 7.53930664 C5.87854324 8.37349625 5.88477203 9.20768585 5.89118958 10.06715393 C5.88197983 10.9640947 5.87277008 11.86103546 5.86328125 12.78515625 C5.86377975 13.70840195 5.86427826 14.63164764 5.86479187 15.58287048 C5.86245179 17.5338659 5.85272717 19.48486436 5.83618164 21.43579102 C5.81256333 24.42947228 5.81562432 27.42226473 5.82226562 30.41601562 C5.81668981 32.30990117 5.80958054 34.20378294 5.80078125 36.09765625 C5.80214836 37.44610374 5.80214836 37.44610374 5.80354309 38.8217926 C5.79401108 39.65283005 5.78447906 40.48386749 5.7746582 41.34008789 C5.77005081 42.07272354 5.76544342 42.80535919 5.76069641 43.56019592 C5.5 45.375 5.5 45.375 3.5 47.375 C0 47.6875 0 47.6875 -3.5 47.375 C-5.52538151 44.33692773 -5.75259698 43.73068826 -5.7746582 40.31835938 C-5.78419022 39.50741821 -5.79372223 38.69647705 -5.80354309 37.86096191 C-5.80263168 36.98903198 -5.80172028 36.11710205 -5.80078125 35.21875 C-5.80506638 34.32007202 -5.8093515 33.42139404 -5.81376648 32.4954834 C-5.81950843 30.59579308 -5.82001103 28.69608077 -5.81567383 26.79638672 C-5.81251196 23.88601319 -5.83598096 20.97665421 -5.86132812 18.06640625 C-5.8636009 16.22135545 -5.86430472 14.37630191 -5.86328125 12.53125 C-5.872491 11.65932007 -5.88170074 10.78739014 -5.89118958 9.88903809 C-5.88496078 9.07809692 -5.87873199 8.26715576 -5.87231445 7.43164062 C-5.87294388 6.71899048 -5.8735733 6.00634033 -5.8742218 5.27209473 C-5.19217892 1.81451969 -3.37975176 0.50696276 0 0 Z " fill="#60626C" transform="translate(79.5,65.625)"/>
<path d="M0 0 C0.99 0.66 1.98 1.32 3 2 C2.50797131 7.34673996 1.22651453 10.99854967 -1.45703125 15.6328125 C-1.80126633 16.23253876 -2.1455014 16.83226501 -2.50016785 17.45016479 C-3.22534618 18.70862427 -3.95592948 19.96398331 -4.69165039 21.21630859 C-5.809856 23.12049754 -6.91108573 25.03371025 -8.00976562 26.94921875 C-14.40404455 38.00286748 -14.40404455 38.00286748 -18 42 C-20.93597381 42.57287294 -22.27353509 42.45090926 -24.8125 40.875 C-26.55200825 38.12840802 -26.27907516 36.21324035 -26 33 C-24.63671875 30.23828125 -24.63671875 30.23828125 -22.6875 27.3125 C-21.95649714 26.19084111 -21.22884504 25.06699392 -20.50390625 23.94140625 C-20.10574707 23.32539551 -19.70758789 22.70938477 -19.29736328 22.07470703 C-16.25767271 17.21371899 -13.49221247 12.18108841 -10.68237305 7.18481445 C-10.23289307 6.39679443 -9.78341309 5.60877441 -9.3203125 4.796875 C-8.92086426 4.08885742 -8.52141602 3.38083984 -8.10986328 2.65136719 C-5.99877559 -0.48972325 -3.53101844 -0.2583672 0 0 Z " fill="#62646E" transform="translate(168,174)"/>
<path d="M0 0 C2.0078125 0.92578125 2.0078125 0.92578125 4.125 2.3125 C10.07804423 6.08606359 16.17949023 9.56709912 22.31103516 13.0402832 C30.66163847 17.82822337 30.66163847 17.82822337 34 21 C34.5 24.125 34.5 24.125 34 27 C30.83663402 29.10891065 29.7218343 29.31796314 26.07421875 28.66796875 C22.61784306 27.55489861 19.72595076 25.61511513 16.67578125 23.67578125 C13.98393742 21.98994037 11.24323898 20.48723787 8.4375 19 C-3.37731481 12.62268519 -3.37731481 12.62268519 -8 8 C-8.36487512 5.15397406 -8.40199375 3.6135694 -6.8125 1.1875 C-4.3720842 -0.41139311 -2.88532451 -0.23866791 0 0 Z " fill="#61646E" transform="translate(182,93)"/>
<path d="M0 0 C3.25995343 1.53256775 6.30434244 3.37130696 9.375 5.25 C10.98651852 6.21431189 12.59849631 7.17785671 14.2109375 8.140625 C15.00081055 8.61693359 15.79068359 9.09324219 16.60449219 9.58398438 C19.6875872 11.40644168 22.82465755 13.11988707 25.97900391 14.81542969 C28.14744126 16.08642003 30.10345309 17.3459555 32 19 C32.46822746 22.21070255 32.57002414 24.09996189 30.8125 26.875 C28.30842101 28.42925593 26.93319195 28.31397548 24 28 C21.01953125 26.4609375 21.01953125 26.4609375 17.8125 24.375 C16.65784997 23.63625295 15.50289901 22.89797605 14.34765625 22.16015625 C13.24292969 21.44730469 12.13820313 20.73445313 11 20 C9.25547247 18.92853841 7.50602354 17.86501489 5.75 16.8125 C4.96109375 16.338125 4.1721875 15.86375 3.359375 15.375 C0.22604577 13.54895383 -2.96967561 11.84790071 -6.1875 10.17578125 C-8 9 -8 9 -10 6 C-9.75 2.875 -9.75 2.875 -9 0 C-5.91357834 -1.54321083 -3.20247121 -0.90206207 0 0 Z " fill="#61646E" transform="translate(58,143)"/>
<path d="M0 0 C3.61002102 3.92855229 6.16422972 8.4642238 8.8125 13.0625 C9.69118906 14.5795529 10.57009666 16.09647924 11.44921875 17.61328125 C11.87895996 18.35658691 12.30870117 19.09989258 12.75146484 19.86572266 C13.87988837 21.79467817 15.03395178 23.70345417 16.20703125 25.60546875 C17.15642578 27.16201172 17.15642578 27.16201172 18.125 28.75 C18.68445313 29.65234375 19.24390625 30.5546875 19.8203125 31.484375 C21.12014903 34.25621184 21.33595898 35.97636921 21 39 C19.8125 40.8125 19.8125 40.8125 18 42 C15.56738281 42.27807617 15.56738281 42.27807617 13 42 C7.29464004 37.12941866 3.81740443 28.65393309 0.25 22.1875 C-0.88971554 20.1388167 -2.03030107 18.09061709 -3.171875 16.04296875 C-3.6678418 15.14602295 -4.16380859 14.24907715 -4.67480469 13.32495117 C-5.71106724 11.50690985 -6.83921587 9.74117619 -8 8 C-8.3125 4.9375 -8.3125 4.9375 -8 2 C-4.75846834 -0.1610211 -3.76307099 -0.64247553 0 0 Z " fill="#61646E" transform="translate(59,101)"/>
<path d="M0 0 C2 2 2 2 2.5 4.3125 C1.77016777 8.23534824 -0.91079348 9.77400364 -4 12 C-6.48633546 13.56525812 -9.04059494 14.9789458 -11.625 16.375 C-13.04235302 17.15109159 -14.45901353 17.92844916 -15.875 18.70703125 C-16.57109375 19.08939941 -17.2671875 19.47176758 -17.984375 19.86572266 C-19.85119679 20.91626215 -21.67920189 22.00873011 -23.5 23.13671875 C-24.53125 23.77222656 -25.5625 24.40773437 -26.625 25.0625 C-27.52476563 25.63097656 -28.42453125 26.19945312 -29.3515625 26.78515625 C-32.49622032 28.22761728 -34.57876391 28.45520648 -38 28 C-40.1610211 24.75846834 -40.64247553 23.76307099 -40 20 C-36.60434422 16.94402547 -32.91812045 14.66438118 -28.96484375 12.3984375 C-27.25651367 11.41617188 -27.25651367 11.41617188 -25.51367188 10.4140625 C-24.92642334 10.07922852 -24.3391748 9.74439453 -23.73413086 9.39941406 C-21.93685495 8.3746322 -20.14295853 7.34413544 -18.34960938 6.3125 C-4.73326855 -1.49471638 -4.73326855 -1.49471638 0 0 Z " fill="#61646E" transform="translate(141,185)"/>
<path d="M0 0 C2 2 2 2 2.6875 4.75 C1.90558725 8.4463148 1.58970446 8.70777697 -1.375 10.75 C-3.23030454 11.86672789 -5.10990523 12.94322288 -7 14 C-7.68642578 14.38768555 -8.37285156 14.77537109 -9.08007812 15.17480469 C-13.6652495 17.7620672 -18.27014569 20.310974 -22.89282227 22.83056641 C-24.90101786 23.94506726 -26.87323588 25.10831155 -28.84765625 26.28125 C-32.27771942 28.15142075 -34.15725315 28.53619723 -38 28 C-40 26 -40 26 -40.6875 23.25 C-39.90056748 19.52995534 -39.56129373 19.28779033 -36.5625 17.25 C-34.72185115 16.14385491 -32.8647981 15.06492873 -31 14 C-29.61979523 13.18187419 -28.24099225 12.36138083 -26.86328125 11.5390625 C-23.25808511 9.39477235 -19.64415388 7.26687087 -16.01147461 5.16943359 C-14.68479465 4.39812676 -13.36502378 3.61479437 -12.05297852 2.81884766 C-7.77881275 0.26081991 -5.01666428 -0.5901958 0 0 Z " fill="#638CC4" transform="translate(162,51)"/>
<path d="M0 0 C2.31 0 4.62 0 7 0 C7 16.83 7 33.66 7 51 C4.69 51 2.38 51 0 51 C0 34.17 0 17.34 0 0 Z " fill="#686B73" transform="translate(449,110)"/>
</svg>
