<svg xmlns="http://www.w3.org/2000/svg" width="594" height="291" stroke="#000" stroke-linecap="round" stroke-linejoin="round" fill="#fff" fill-rule="evenodd"><path d="M78.0641 259.0611c-9.9545-9.7712-20.5636-19.1245-27.8176-32.3167-15.2677-23.2567-27.012-50.2548-35.0536-78.4882-4.8658-18.406-6.5208-38.131-12.7844-55.8247-6.5434-12.8432 1.1294-26.8934 12.404-30.9767 5.0165-1.2076 13.8478-7.1196 3.188-2.8896-9.5071 8.7454-10.4751-7.9429-.6826-9.074 6.6893-1.1168 9.1499-7.936 6.8561-14.0783-7.1797-5.8487 17.4043-12.2567 5.0336-20.981-12.8794-17.3451 18.0193-20.689 10.4023-.977-1.8236 15.1457 21.5981-2.792 16.2183 14.7133 5.5255 8.4031 20.6925 1.9195 20.3011 13.7011 8.0532.698 10.8098 9.074 18.3546 9.7857 7.8296 4.4117 22.0229 7.8874 24.6796 18.8942-7.8288 7.678-25.7427-15.8436-26.6093 5.3885 2.349 31.3816 1.7502 63.7053 10.9445 93.5793 4.3512 18.0919 14.8989 32.3304 24.4228 46.4161 9.1156 13.7992 21.4587 23.522 34.0473 31.6886 11.0399 6.4913 22.9299 10.7975 34.9649 13.5061 4.8765-4.656 13.4886-21.9725 21.1012-14.6717.368 8.2153-15.1004 17.1563-.7277 16.2489 8.389-3.1826 14.3007 8.1456 21.2516-2.0734 6.4039 9.4722 26.6206-6.0444 22.0684 13.3112-6.1636 4.8853-15.1004 1.9539-21.3249 8.7941-10.1784-6.2818-18.276 5.6682-29.5456 4.1531-12.5104 2.792-25.2448 3.9232-37.9281 3.9437-20.815-2.0523-42.0675-2.9172-61.8651-11.9561-11.1562-4.0484-22.0342-11.9777-31.8437-19.9069zm17.5771 9.514c10.8887 5.8632 21.5428 12.0754 33.4768 13.9386 18.9365 3.2806 38.4942 8.348 57.4917 3.7343-8.6015-4.8442-17.4935 1.8846-26.0617-3.4617-10.2729 2.757-21.2515-.698-31.7539-2.415-11.8787-6.603-24.7024-11.14-35.8265-19.7185-13.9081-6.3373 7.1871 8.1317 10.9453 9.3041 8.6909 6.1566-9.5077-3.1547-12.1359-5.723-7.2813-5.0954-8.2044-4.0348-.7268 1.1374 1.5096 1.1029 2.9967 2.2546 4.5741 3.1969zm-20.726-18.2873c10.559 4.8857-.0437-9.2622-4.8762-8.376-2.1419-4.6411-8.188-7.5727-3.9258-10.0506-7.6618 3.3222-8.0368-12.5638-11.6326-10.3514-8.1099-3.1967-3.1548-14.5178-12.8244-21.4843-.8836-7.3286-9.6021-13.6798-12.3763-24.7363-1.2301-5.5839-9.8537-21.9166-4.5572-6.791 4.5072 14.5593 12.4432 27.033 19.048 39.4845 5.1226 11.866 11.1844 24.2624 20.5244 31.6536 3.1489 3.7692 6.1852 9.5415 10.6258 10.7281zM44.5144 208.618c.3635-1.9893 1.9293 4.307 0 0zm43.0462 47.5122c2.3375-1.3057-3.3558-1.6477 0 0zm5.7269 2.6101c-.5936-3.6017-2.6183 2.094 0 0zm7.1747 3.7343c3.3558-4.0484-5.2569-2.5616 0 0zm12.2926 8.5505c2.069-3.8253-6.6386-1.4379 0 0zm-23.6006-20.5349c5.2959-4.2784-6.8509-.0698 0 0zm5.3803 3.3502c-.1514-2.2546-1.9128 1.0121 0 0zm26.8827 20.94c4.3229 3.4059 25.2446 7.4679 12.1475 1.3955-2.1978.5728-24.2891-7.8032-12.1475-1.3955zm-42.6711-41.4883c-.4188-2.2618-6.7107-2.5128 0 0zm12.5111 9.1083c3.261-2.8406-6.7114-2.1914 0 0zm10.5303 8.0549c4.6755-2.1987-7.578-2.2054 0 0zM73.6459 226.375c5.0728 4.858 20.4578.698 7.829-2.8967-5.771-3.839-18.7904-6.4706-9.9153 2.3172l2.1481.5795zm35.2722 26.8721c2.1142-4.4876-8.864-2.5686 0 0zm-10.7153-10.63c12.3987 4.3694-10.4301-9.793-3.0585-1.6197l1.6326.9286 1.4259.698zm21.4862 15.495c11.7443.1396-10.6091-2.094 0 0zm-50.5552-40.2178c-.4598-2.792-2.8981.2232 0 0zm70.4258 54.1217c.3133-4.9279-3.8309 3.6713 0 0zM89.227 233.208c-.7164-2.5965-3.6687-.1118 0 0zm-18.9308-17.0306c6.739-.5096-9.228-3.6994 0 0zM47.926 198.0856c-.8389-4.0484-7.2704-7.2592 0 0zm58.8725 46.6255c-1.2302-1.7593-.5815.3839 0 0zm36.6423 28.059c-.1118-2.6873-1.9964 1.0121 0 0zm-39.8746-32.247c.6594-3.4618-5.7492-1.047 0 0zm-27.2921-21.5959c5.0169-.6701-8.0416-4.2299 0 0zm46.1781 35.807c7.8184-3.8668-7.6225-1.8845 0 0zm-24.0146-20.3467c8.948 1.4447-10.7207-7.6564-1.9796-.8162l1.9796.8162zm31.3072 24.0248c8.4167-6.2681 5.6369 14.6998 14.2721 1.7732 8.5118-7.7621-7.3543 9.5969 3.1313 1.3817 7.5955-6.3375 18.8022 3.0014 25.8835 6.0444 5.0326-.3071 10.0434 5.4936 15.2671 1.9544 10.0496-3.3777-19.6579-5.0113-11.8734-11.0002-9.1941 3.3504-15.9946-3.9786-20.5134-11.335-10.3182-2.9734-22.2413-9.5627-27.3916-20.9534-2.1031-4.2717 3.0304.6066-1.8125-6.3867-6.1517-6.8959-9.3173-14.658-13.489-23.1175-5.0331-3.3155-5.57-13.0875-6.0737-.3208.0393-8.0552-6.0177-13.4714-7.4943-11.2235-.0274-7.678 6.4876-3.8671 1.9306-9.6045-.9794-8.041-4.212-16.4164-5.179-25.4904-1.5107-4.3694-.2131-13.7504-5.1453-3.839-1.79 10.47-.593-12.8568 2.2026-5.165 3.6693-7.8458-1.319-6.98-1.5206-5.8354 2.3878-6.6172 1.5101-16.0191-.6262-12.4244 1.2755-7.0214 2.0129-25.825-1.9018-22.496 2.3776-7.3425 4.5027-33.5942-5.8158-23.5914-4.1783.0698-11.409 1.8846-14.8314 4.0135 10.7207 7.3774-1.0793 2.6659-5.4533 1.4932-.559 6.8265-4.8935 3.8806-10.29 3.9437 8.6346 1.396-4.2053 11.0282-9.1492 7.259-6.4318 3.839 5.5922 13.4016.1287 16.3748.6708 4.4531-9.8434-1.6054-9.0264 8.6972-6.2412-3.2806-.856 12.2148 2.2702 6.9798 10.615 3.5871 7.472 11.7607 7.7405 19.5297-1.6781 4.5225-8.54-10.6378-1.5103-9.9322-5.5924-11.168-6.1294-4.0627-10.7374 1.1585-1.1188.3765 11.744 7.4263 3.7023 10.9092 7.0742 1.3678 7.2808 9.0945 8.7241 13.9805 4.2506 5.5286 3.3778-6.1075 8.467.5446-3.2212-5.933-17.0573-16.752-5.917-13.2338-.0558-5.9534-2.013-10.7629 1.3982-10.6444 3.384-7.6355-3.5456 18.8459 4.0824 9.13 2.1087-1.1517 2.6285-7.6431 6.4318.6137 5.5032 6.7706 1.9908 11.6566-5.7771 5.4658 1.3867 5.8905 10.3916 7.9845 8.6961 17.1914 1.7901 8.0966 4.3064 5.1087 6.4876 4.6483 1.717 7.8592 2.6841 2.0802 2.7681-1.6752 7.8522 2.094 6.013 7.8874 8.4731 11.866 5.4133 3.043-7.7458-20.6607 1.5436-7.1196 9.7748 11.0284 3.6681 15.6141-5.106 13.8479 5.5526-.5584 7.3373 9.3673 14.2832 9.0183 6.3306 3.7692 10.6255 18.2033-.2965 12.1937-3.7864-4.188-17.1916-9.5209-6.2415-1.417 10.1004 5.8493 18.1361 9.3393 27.8844 16.7518 6.9739 6.282 9.9887 13.2614 12.628 14.7414-5.8726 3.49-17.6723-2.7921-8.903-4.7116-5.4691-1.2426-11.6217-4.6977-6.3863 3.8042 4.4566 4.6487 15.7815 4.1531 17.8173 4.6766-1.7232 4.7322-4.6751 5.1091.0668 5.4718-5.2903 3.5249 1.7004 4.0694 2.2366 6.0726zm-10.8217-38.1516c-3.221-4.209-4.054-12.0754-.5758-5.235 1.789.9074 5.7207 12.8704.5758 5.235zm35.2551 27.9473c2.0134-.1675.0564 1.9053 0 0zm-40.3388-38.2495c-.1283-6.282 1.1579 4.9066 0 0zm-3.5009-5.8775c-4.0542-9.7713 5.1059 2.7638 0 0zm-42.464-36.5744c2.3825-.7957 1.1187 5.0816 0 0zm33.802 22.8594c1.4536-6.8548 1.7163 5.7441 0 0zm-23.8808-20.7305c-1.6776-3.783 3.5232 3.4899 0 0zm20.4853 8.1946c-3.836-10.7279 2.7234-5.863.8557 1.7585l-.8557-1.7585zm-35.3336-29.4062c-1.7168-3.5247-4.5528-13.8484-3.6352-17.0032.8223 5.1374 8.7468 22.1054 3.8813 7.0287-5.3691-12.5635 6.4313 4.0977 7.6392 7.2591.5593 3.141-3.3161-.858-.687 6.4914-4.7989-8.3759-2.8307 4.6206-7.1983-3.7692zm-10.9168-9.395c.4478-8.1877 2.495 5.6122 0 0zm4.9102 2.1148c2.3492-6.1767 3.9148 8.6132 0 0zm-11.8162-11.4049c-4.0664-5.0467-7.0078-9.772.1953-3.141 2.768.1396-6.1629-10.5676.6711-3.3991 7.1805 1.633 3.5453 14.6993-.8609 6.5333zm6.1513-.2094c2.3602-2.9316 1.2526 2.8756 0 0zm3.8255 1.5212c-3.5799-8.3754 4.3452 3.5111 0 0zm-7.5947-9.0529c-11.8174-13.1357 14.8481 6.8618 1.9291 2.4295l-1.9291-2.4295zm33.8628 24.5484c-5.1174-3.8245-1.3594-26.942.3914-11.133 5.0333-2.0098-.2801 8.1666 3.428 8.0689-.5815 6.4212-2.2374 8.7246-3.8135 3.0708zm12.4323 9.2136c.5591-6.98 1.0507 4.7669 0 0zm-2.2373-2.6873c.5592-2.9733.056 3.5038 0 0zm-41.9442-35.4227c-7.5946-13.0736 22.0682 13.2264 4.8654 3.3154-1.79-.5932-3.9139-.8026-4.8654-3.3154zm24.1207 15.9562c-.7267-11.0078 1.6049 1.8148 0 0zm18.3098 14.657c1.4149-6.2675.112 4.1464 0 0zm-41.2612-35.6106c4.5129-1.2077 18.6958 9.8833 5.6706 3.1685-1.4542-2.003-4.474-1.0888-5.6706-3.1685zm38.7562 24.1014c.4804-11.2589 2.6949-6.7219.0223 1.6192l-.0223-1.6192zm-35.3899-28.0245c1.8454-3.3643-4.8879-15.2158.9676-4.188 2.528 2.5128 7.2704 4.188 3.0929 5.256 6.7108 7.329-1.678 1.9826-4.0546-1.005zm33.4769 24.4298c1.2692-12.8294 1.1184 7.5102 0 0zM50.3141 96.8077c1.409-.754.7437 2.3383 0 0zm8.7352 6.4914c2.2486-5.8914 4.1386 6.5612 0 0zm24.6298 17.1003c-.0228-2.254.4643 3.2806 0 0zm-1.426-3.9363c-3.3555-10.5259 3.1875 5.5695 0 0zm-2.0972-6.98c-.5704-4.3486 1.9575 5.4652 0 0zm3.3554-6.9312c-2.3487-5.1648 2.9641-22.7328 3.5571-11.8305-2.4778 8.4944-.7164 13.2408 1.0065 1.8497 3.1873-8.9622-.6879 17.7006-4.5636 9.9808zm3.5123-26.1395c1.0233-1.5705.2237 1.8846 0 0zm-5.8725 144.183c-1.3858-1.5145.1798.9566 0 0zm12.0798 7.6219c6.7106 2.094 6.689-1.2984.5595-2.3309-3.2604-3.7903-13.573-7.8176-4.3454-.4682.5589 1.934 2.5395 1.8846 3.7301 2.792zm-23.8463-19.7738c3.6912 3.448 13.9366 9.7581 5.274 1.396 2.9245-4.2435-5.5931-6.4914-2.7687-9.3389-7.1865-5.4929-5.671-4.9976-.6314-4.8858-8.6357-4.886 1.2464-4.4535.7828-6.9314-3.3282-.8164-16.5431-7.3284-8.7697.5309-7.9017-5.0256-1.8842 1.8702-4.2724 1.1517-8.0812-2.7504 7.192 7.6773-1.2866 5.0954 4.6306 4.5786 12.4712 11.74 1.957 4.8433-1.3804 2.4924 7.5279 6.2609 9.715 8.1531zm12.6281 9.0601c15.3568 6.17-7.5334-7.5527 0 0zm64.6609 48.8865c.2012-3.8041-2.0974 3.2457 0 0zm6.7114 3.49c3.5448-4.2784.1451 6.8267 5.8716-1.047.0564-5.6395-.1677-8.9693-6.5766-2.1146-1.7672 1.2284-2.5559 6.4216.705 3.1686zM47.9871 187.3502c-1.0898-5.3397-7.6278-5.3048 0 0zm7.0914 5.7934c-2.6279-5.4444-9.3957-4.9347 0 0zm40.3782 30.3904c3.9432 4.3692 18.1039 3.2104 4.7872.5447-1.9688-3.6296-12.5161-2.7642-4.7872-.5447zm55.495 42.7863c6.0678-6.282-5.8721 2.8339 0 0zm12.6165 10.819c.039-2.0379-2.617.8937 0 0zm.022-2.792c6.7117-8.8783-6.5037.5235 0 0zM30.5275 169.112c-5.7261-10.1908-3.557-14.7765-9.0825-23.0333-1.0511-6.3729-9.4735-20.8139-4.3619-5.584 4.6866 8.9548 6.0732 22.8101 13.4385 28.6173zm130.9558 102.3529c12.3026-9.9675-5.0732-4.3419 0 0zm9.4332 4.6063c6.1911-6.6305-3.9137-1.3816 0 0zM45.8844 176.001c1.7672-3.2806-4.5747-.4188 0 0zm123.0642 96.8456c5.9947-4.886-1.3817-4.0833-1.0852.44l1.0852-.44zm-81.3258-63.9002c-.2077-3.2671-3.1721.2792 0 0zm5.021 3.6082c-1.5994-4.0346-2.4609.698 0 0zm85.9183 63.6287c7.6789-6.98-4.6418-1.396-1.6053 1.312l1.6053-1.312zm-2.942-1.7729c6.2639-6.5402-6.5988 2.8967 0 0zm15.0276 12.4796c4.1938-3.5038-5.1055-1.1306 0 0zM49.7323 173.6976c5.626 1.5705 22.4929 17.2966 12.5441 1.0892-5.0334-1.8845-2.0411-17.4285-7.2369-14.6857 3.4899 7.2803 2.8688 10.3653-4.4569 5.7934-9.2-5.6122-5.1734 2.7708-3.3673 5.0954-2.4602.698 3.2438 2.6522 2.517 2.7918zm-25.6417-25.2669c1.006-5.2067-9.284-28.6172-4.866-11.7263 1.5945 3.5393 1.4267 10.2394 4.866 11.7263zm47.0671 36.2953c-2.9087-3.022-.1402-.4326 0 0zm7.1361 2.0734c0-5.584-7.8299-2.2336 0 0zm61.8531 48.6632c-1.1182-3.7692-4.6644-.0841 0 0zm2.9639 2.7079c-.4469-2.1078-1.7173.4188 0 0zm24.5119 19.2161c2.3497-2.094-2.9414-.2792 0 0zM36.8976 152.514c6.7444-3.2595-7.2247-2.3245 0 0zm97.8694 76.9042c-.0783-5.4442-4.3065 1.3611 0 0zM34.2859 144.7525c4.3281-1.8148-4.0094-1.2007 0 0zm12.572 7.6778c-.0729-1.7871-1.3259.6837 0 0zm153.3138 117.3102c5.5709-1.4097 18.2709 3.5392 20.3178-1.8427-6.7108-.2094-23.3997-5.9606-24.1884 1.3611l1.4825.2934 2.3881.1815zM50.8505 153.6097c.1006-5.584-3.4505-.2094 0 0zm-32.9958-28.6173c-1.4992-10.5186-5.704-1.5916 0 0zm7.8303 2.4711c.0995-3.3785-7.27-3.0434 0 0zm4.5013 2.7639c-1.3028-1.396-1.0063 1.6541 0 0zm28.3541 22.6843c1.3426-1.5356-3.1595-1.1306 0 0zm-31.4017-28.9104c-.7658-7.9431-9.1382-1.1865 0 0zm-16.2188-13.094c-.2234-3.6645-1.5772 1.3817 0 0zm2.3494-2.2618c-.3922-4.3486-2.0696.5449 0 0zm13.2819 9.8904c5.6201-2.75-10.2338-5.6953-1.1459-.5168l1.1459.5168zM204.394 255.5993c3.5955-4.188-4.5631-1.2703 0 0zm21.476 13.96c1.4423-5.3048-3.6362.698 0 0zM27.8937 109.8603c.5925-5.1446-4.4576 1.0259 0 0zM8.9902 94.0506c-1.006-7.259-.8718-20.0114 8.8373-15.7048-12.9588 3.2108 8.9761 20.1022 6.1508 6.7706 5.4536.3351 10.665-4.0203 7.8016 2.5826 10.738-1.396 18.187-13.1014 28.5612-11.4677 8.0814-1.3402 16.9174-2.3523 25.6253-6.4216 7.1579-.6421 14.0539-10.2605 10.0662-15.9697-9.7644-1.0333-19.9874.4886-30.7754 3.1759-11.9567 3.0984-22.8173 8.9897-34.8858 11.5162-11.767 1.9756 2.3597 5.4307-1.0069 6.282-6.1346 2.6524 7.2703 4.4466-.7944 7.2592-5.011-1.1866-10.2342-3.3361-8.0872-9.9322C9.2199 73.9765-.6844 79.8048 8.219 94.1136l.6599.0068zm27.1525-17.2543c2.6278-12.1452 14.1488 9.9953 4.323 1.6193-1.1189-1.1024-3.1037-1.9893-4.323-1.6193zm.5142-5.891c3.803-3.5386 2.0246 1.9893 0 0zm4.838.0976c.3466-5.584 11.0839 2.9599 1.7672 2.0107l-1.7672-2.0107zm6.6211-3.3221c2.4211-3.5316.7048 3.127 0 0zm1.6942-1.4164c4.0266-6.0377 22.8014-3.8602 9.0602-.5933-3.6911-3.4628-6.5043 2.0377-9.0602.5933zm24.4951-4.7115c-.6035-16.5011 12.1806 5.8624 0 0zm6.9522-.0493c2.5444-8.376 9.8708-3.336 1.1185-1.6752.1849.8935-.2572 4.2992-1.1185 1.6752zm-56.11 44.0921c7.5945-5.8077-8.0532-5.0399 0 0zm5.6207 1.9401c2.6617-3.532-5.7938-1.4309 0 0zM14.388 92.9405c4.3395-4.1664-5.1453-1.5838 0 0zm224.2603 175.0969c.1284-4.8299-3.3164 2.094 0 0zm-22.7897-19.4036c.6489-5.5561-2.9305.4886 0 0zm29.0536 21.2882c6.0675.0279 18.3822-2.359 5.1839-2.352-2.0696.3976-12.0688.3208-5.1839 2.352zM35.8291 104.1224c4.9102-.4188 7.6789-6.7563-.9502-6.3935-13.3776-1.7239 11.7442 5.7236-1.7173 3.5876-1.8122 1.5007 2.5619 3.2247 2.6675 2.8059zm4.3231 2.7365c-.5148-3.9299-1.5212 2.094 0 0zm5.1342-17.0727c2.1252-3.302-2.9527-.8796 0 0zM28.956 55.7246c8.7694-3.7138 20.6929-7.8874 24.8866 1.8353-4.2107-6.3237-1.7-12.5496 2.2762-3.3011 5.6263 9.3532 8.3889-4.188 4.7818-7.3988 4.1714 6.4631 8.9087 9.5208 2.7969.4188 6.7105-9.9813-13.3106 1.305-17.8523 1.1866-2.2365 1.2215-22.537 6.477-16.8892 7.2592zm5.145-12.2711c5.0002-4.7041 17.3372 2.8063 9.3954-4.6757-.7713-.8522-17.2696 5.6807-9.3954 4.6757zm18.2318.9423c5.8441.1817-2.5168-9.8138 4.4463-5.2836-1.1407-4.662-8.11-5.5345-11.521-7.3986-1.9296 4.1879 3.9155 12.7383 7.0802 12.6822zM37.3057 23.7495c2.0247-3.49-3.5511 1.745 0 0zm7.4494 2.2336c9.429-1.5562-2.4052-5.0605-1.9014-.1253l1.9014.1253zM30.8464 12.4079c-6.638-10.819 12.4879 1.8146 5.7383-9.5141-5.6768-5.6395-11.1857 6.282-5.7383 9.5141zm85.1741 57.2553c3.0422-6.7287-12.5661-9.0738-2.0468-2.3732.9675.3974.7493 2.8475 2.0468 2.3732zm156.6305 1.7799c-1.0461 5.1509-1.6891 13.7847-1.9356 25.825 0 2.3732-.8608 3.5741-2.5832 3.5741s-2.9248-1.047-3.602-3.1133c-1.8452-5.6044-3.5901-9.5132-5.2567-11.7468-1.9686-2.6032-4.5856-4.188-7.8407-4.7186-3.5069-.698-12.2364-1.047-26.1958-1.047-3.1979 0-5.29.4188-6.2634 1.2703-.5591.5379-.9224 1.6896-.9224 3.4551v52.1534c0 1.7662.8943 2.6038 2.667 2.534l23.8026-1.3823c2.0293-.3141 3.3995-1.1305 4.1046-2.4773s1.3973-4.886 2.0688-10.4216c.4307-3.0712 1.8739-4.188 4.3349-3.49 2.0912.5379 2.9862 1.7245 2.6842 3.49-1.7226 10.4422-2.2823 24.0249-1.6664 40.7625.0661 1.9893-.9514 3.0712-3.0426 3.2252-1.7227.2299-2.7964-.9218-3.227-3.4551-1.5938-9.5908-4.5686-14.658-8.9481-15.3771s-11.3974-.9772-21.1736-.9772c-1.1069 0-1.6546.4886-1.6546 1.4936v51.812c0 3.8383 1.1348 6.4491 3.3551 7.8169 1.7903 1.1517 5.6319 2.192 11.5318 3.1137 3.0201.3839 4.3338 2.0377 3.9147 4.8854-.3744 2.534-3.0761 3.5322-8.1204 3.0014-14.574-1.396-26.5978-1.3819-36.0715.2306-2.6455.4537-3.9155-.8864-3.9155-4.0274 0-1.9966 1.3199-3.141 3.9155-3.4551 6.0283-.8376 9.0375-7.448 9.0375-19.8019V96.0399c0-5.0603-.7265-8.9547-2.1644-11.6846s-4.1383-5.2068-8.07-7.426c-2.461-1.3823-3.3839-3.2597-2.7686-5.6401.3076-1.4515.8003-2.2612 1.4707-2.4152.5597-.2299 2.2489-.0698 4.8879.4608 3.8761.698 13.0141 1.1517 27.4034 1.1517l44.0138-1.3817c4.1161-.3141 6.1793.1116 6.1793 1.2564 0 .3141-.0334.6139-.0949.9209zm59.8287 146.1579c0 3.0712-1.3812 4.4115-4.1497 4.0276-8.4839-.9983-18.9981-.8376-31.5419.4537-2.5166.3141-4.0717.2302-4.6645-.2235s-.872-1.7238-.872-3.8041c0-1.8356 1.6774-3.3923 5.022-4.6625s5.0333-5.0467 5.0333-11.3354V97.8614c0-6.282-.7271-10.7839-2.1645-13.7078s-3.9869-5.1796-7.6059-6.785c-1.901-.8376-2.8631-2.0381-2.8631-3.5737 0-2.3034 1.3816-4.027 4.1497-5.1787 4.1835-1.6895 8.523-4.2925 13.0137-7.8311 3.6908-2.7648 6.0284-4.1394 7.0079-4.1394 2.2759 0 3.3552 1.9544 3.3552 5.8632l-.3745 11.5168-.1793 22.4541.3636 102.8128c0 4.6766.9225 8.0833 2.7676 10.1908s5.0169 3.5114 9.5079 4.188c2.7689.3839 4.1493 1.689 4.1493 3.9088zm83.44-6.7914c0 1.6054-2.3485 4.0484-7.046 7.3079s-8.4733 4.886-11.2965 4.886c-2.4051 0-4.5193-1.4515-6.3643-4.3763s-3.1432-4.3693-3.8768-4.3693c-.5583 0-3.4669 1.5773-8.7626 4.7183s-10.6091 4.7253-15.9554 4.7253c-5.0329 0-9.2561-1.8497-12.6398-5.584-3.691-4.069-5.5922-9.5975-5.5922-16.5842 0-13.2824 12.1805-22.7958 36.5358-28.6173 4.1777-.9983 6.3029-3.1127 6.3593-6.3306l.1845-7.3706c.3685-12.5851-4.0828-18.8808-13.3777-18.8808-2.6451 0-5.1451 2.9527-7.522 8.8645s-5.7602 9.0945-10.1896 9.5626c-5.0332.6071-7.5665-2.0386-7.5665-7.9572 0-3.6856 3.747-7.9776 11.2582-12.8985 7.8737-5.1371 15.4348-7.7129 22.6941-7.7129 12.4823 0 18.6623 7.4126 18.5392 22.2235l-.374 47.4282c-.0568 4.9907 1.6316 7.4825 5.0711 7.4825.6714 0 1.9746-.1884 3.8765-.5723l3.3277-.5727c1.7784 0 2.6728 1.5007 2.6728 4.4954zm-28.4094-26.2438c.0561-1.9195-.2965-3.1902-1.1179-3.7973s-1.9802-.7329-3.6354-.349c-14.8204 3.3011-22.236 9.3321-22.236 18.1473s3.8415 13.2414 11.5313 13.2414c3.0758 0 6.2462-.7262 9.5075-2.1852 3.8193-1.6963 5.7214-3.7272 5.7214-6.1075l.1845-18.8799zm96.9853 13.0732c0 8.1382-2.5163 14.6086-7.5216 19.4036s-11.8504 7.1196-20.5248 7.1196c-5.8289-.0065-11.6418-.778-17.3425-2.3034-5.0329-1.3819-7.874-2.6524-8.6686-3.7968-.4918-1.0819-.7376-6.3312-.7376-15.7748 0-4.0694.7376-6.1771 2.2142-6.3305 1.4766-.2305 2.7968.698 3.7812 2.9869 4.6137 10.0512 12.057 15.0768 22.3248 15.0768 8.6686 0 13.0023-3.7692 13.0023-11.2931 0-3.2951-.9785-6.0588-2.9521-8.2854-2.1538-2.5336-6.3312-5.493-12.5439-8.864-8.9821-4.9907-14.9771-9.3532-17.9918-13.1222-3.2603-3.9924-4.887-9.3532-4.887-16.054 0-8.2919 2.5496-14.6573 7.6614-19.3339 4.7366-4.4534 11.0726-6.6803 18.9975-6.6803 4.5809-.0493 9.154.4513 13.6572 1.494 4.429.9983 6.7336 2.2198 6.9175 3.6856.4868 4.2927 1.5104 10.5116 3.0423 18.657.1846.991-.6821 1.8004-2.5835 2.4148-2.0303.5373-3.3834.1118-4.0594-1.2564-4.855-9.9116-11.0071-14.8529-18.4562-14.8529-8.4222 0-12.6381 3.3786-12.6381 10.1347 0 3.7692 1.1399 6.7562 3.3546 8.976 2.03 1.9195 6.7952 4.9209 14.3 8.9901 7.8744 4.2225 13.2216 8.0266 16.0508 11.3908 3.6908 4.3769 5.5922 10.2606 5.5922 17.6178zm108.5234 20.1438c0 2.6873-1.4537 4.188-4.3396 4.188l-16.8787 1.1513c-3.4443.8374-5.9052.3141-7.3818-1.605-9.7196-13.0526-17.9638-26.7121-24.7191-40.9929-.5592-1.2215-1.2583-1.843-2.1251-1.843-1.0456 0-2.7962 1.1517-5.4359 3.4551-2.8969 1.9893-4.3401 4.8376-4.3401 8.5156l.185 11.2931c.1227 4.9074 1.1018 8.1317 2.9473 9.6673 1.2857 1.0819 4.2779 1.9195 8.9475 2.5342 2.892.4604 4.3401 1.8142 4.3401 4.027 0 1.7658-.2234 2.792-.6934 3.2806s-1.6771.5167-3.6467.2792c-6.1515-.698-16.5421-.307-31.178 1.1517-3.6916.3839-5.6879-.1956-5.9952-1.7242-.1224-.5372-.1849-1.305-.1849-2.3034 0-2.3732 1.879-4.188 5.6315-5.4022 3.3842-1.0819 5.0725-6.0309 5.0725-14.8535V97.9661c0-6.282-.4922-10.6649-1.4815-13.1222-1.3532-3.1402-4.184-5.6046-8.4886-7.3706-2.0248-.8376-3.0436-2.094-3.0436-3.4896 0-2.2336 1.4547-3.958 4.3348-5.1795 4.6474-1.9552 9.0817-4.6288 13.1986-7.957 3.383-2.7571 5.4804-4.1454 6.2632-4.1454 2.5276 0 3.7865 1.9893 3.7865 5.9884 0-.544-.0341 3.2601-.0959 11.391l-.089 22.573.1849 72.0672c0 1.996.43 2.9869 1.2858 2.9869.9226 0 2.3378-.9909 4.251-2.9869l18.8133-19.5716c1.4808-1.9194 2.2149-3.455 2.2149-4.6067 0-2.0658-2.4895-3.5316-7.4668-4.3692-2.1533-.3141-3.1711-1.8148-3.0481-4.4954.1849-2.6873 1.2642-3.839 3.2271-3.4551 4.4347.698 10.8886 1.1866 19.3722 1.2702l17.6166.1123c1.9019.0698 2.7968 1.4931 2.7968 4.1874 0 2.6038-1.5101 4.0276-4.5187 4.188-4.7433.2235-9.2004 1.5635-13.3778 4.0276-5.8441 3.2943-12.0916 9.0944-18.7353 17.4493-.4863.4607-.7381 1.047-.7381 1.7245 0 1.0745 1.0458 3.6501 3.143 7.7196 7.685 14.6573 14.9428 25.5947 21.7665 33.0427 4.362 4.6766 8.4559 7.0216 12.2651 7.0216 2.8292 0 4.5846.2443 5.2565.7535s1.0174 1.8148 1.0174 3.9648z" stroke="none" fill-rule="nonzero" fill="#00ff2b"/></svg>