<?xml version="1.0" encoding="UTF-8"?>
<svg version="1.1" xmlns="http://www.w3.org/2000/svg" width="800" height="320">
<path d="M0 0 C0 9.9 0 19.8 0 30 C-3.25653351 28.37173325 -5.78824797 26.76325673 -8.6875 24.625 C-21.20525088 15.80942435 -34.90040952 13.48849466 -50 15 C-55.83149137 16.31959222 -60.1095303 19.14770722 -63.71484375 23.91796875 C-68.13425933 31.07769065 -69.24982136 37.6127753 -69.1015625 45.8828125 C-69.09056519 47.05759155 -69.09056519 47.05759155 -69.0793457 48.25610352 C-69.06035915 50.17082421 -69.03122001 52.0854397 -69 54 C-67.76068222 53.98747192 -66.52136444 53.97494385 -65.24449158 53.96203613 C-53.46403387 53.84310128 -41.68356439 53.72539864 -29.90308285 53.60884857 C-23.8492007 53.5489164 -17.79532324 53.4885764 -11.74145508 53.42724609 C-5.87995423 53.36788059 -0.01844292 53.30966241 5.84307671 53.25218201 C8.05973135 53.23025407 10.27638221 53.20793875 12.49302864 53.18519592 C18.65224541 53.12214277 24.81142624 53.06771544 30.97081375 53.02435303 C33.03628332 53.00774776 35.10172516 52.98736704 37.1671257 52.96368408 C40.2799399 52.92805983 43.39268286 52.90349199 46.50561523 52.88085938 C47.89881155 52.8608852 47.89881155 52.8608852 49.32015324 52.84050751 C71.66768872 52.73181143 91.38130849 63.61288711 107 79 C114.97753733 86.96421924 121.11320933 95.83351086 126 106 C126.14695312 104.98421875 126.29390625 103.9684375 126.4453125 102.921875 C128.92024666 87.18137052 134.40890725 76.2580898 147.234375 66.2578125 C152.41072469 62.81286253 158.02820832 60.75175812 163.875 58.75 C164.59365234 58.5034668 165.31230469 58.25693359 166.05273438 58.00292969 C176.83481252 54.5259259 187.59345337 53.61056084 198.875 53.625 C200.13352783 53.62588623 201.39205566 53.62677246 202.6887207 53.62768555 C213.19538014 53.75879417 223.40523675 54.84956402 233.60400391 57.43334961 C236.01868748 58.05351757 236.01868748 58.05351757 238.61083984 58.30297852 C241.5582003 58.79861335 243.47956795 59.37555263 246 61 C248.49699727 64.79248712 249.99787381 68.83209319 251.47845459 73.09387207 C252.27429456 75.38236055 253.11502085 77.64968259 253.96923828 79.91699219 C254.92089603 82.44325067 255.86969813 84.97022386 256.80581665 87.50228882 C260.76655717 98.19160711 265.11805019 108.72075458 269.4460144 119.26538086 C270.87551775 122.75126255 272.29921959 126.23945602 273.72094727 129.72851562 C278.0828458 140.43227894 282.45932334 151.12987658 286.86328125 161.81640625 C287.23654541 162.72290924 287.60980957 163.62941223 287.99438477 164.56338501 C289.714127 168.73955358 291.43667398 172.9145089 293.16552734 177.08691406 C293.77061935 178.55399046 294.3756064 180.02111015 294.98046875 181.48828125 C295.24507401 182.12335098 295.50967926 182.75842072 295.78230286 183.41273499 C297.75164388 188.20261761 299.40981288 193.07223284 301 198 C301.1945578 197.45236496 301.3891156 196.90472992 301.58956909 196.34049988 C306.75547454 181.84872031 312.30775183 167.55376392 318.125 153.3125 C319.37834951 150.2312231 320.63023354 147.14935355 321.88198853 144.06742859 C322.71779618 142.0097262 323.55403546 139.95219908 324.39071655 137.89485168 C328.54584745 127.67310208 332.64331646 117.42859863 336.72515869 107.17739868 C338.47548224 102.7817101 340.23430888 98.38954676 342 94 C342.4530249 92.86393311 342.9060498 91.72786621 343.37280273 90.55737305 C344.0177771 88.96662964 344.0177771 88.96662964 344.67578125 87.34375 C345.04614502 86.42400391 345.41650879 85.50425781 345.7980957 84.55664062 C351.98788625 71.38997667 364.01752417 63.65944126 377.25 58.80859375 C399.32677026 51.88405123 430.69133503 50.34566752 452 61 C452 70.9 452 80.8 452 91 C447.67182881 89.26873153 444.24100471 87.26674832 440.4375 84.6875 C429.06375811 77.18563827 417.33767712 72.59079565 403.625 72.6875 C402.78791504 72.69313965 401.95083008 72.6987793 401.08837891 72.70458984 C389.71452507 72.92804039 380.69921438 76.1508063 372.625 84.4375 C367.67106307 92.24947746 366.23626543 99.90461555 367 109 C368.49359923 115.66827373 372.01562535 120.85597438 377.56640625 124.84375 C378.55511719 125.3903125 379.54382813 125.936875 380.5625 126.5 C381.13693848 126.81839844 381.71137695 127.13679687 382.30322266 127.46484375 C395.2579375 134.5187199 408.61050712 140.98774951 421.91015625 147.36328125 C438.62739178 155.41665489 453.89892069 165.04170601 460.6484375 183.17578125 C462.2705492 188.24803208 462.45942449 193.01898759 462.375 198.3125 C462.35977295 199.69671143 462.35977295 199.69671143 462.34423828 201.10888672 C462.0160671 215.58149008 457.92911536 227.13088392 447.875 237.75 C430.87177824 253.83660603 406.71740996 258.76486076 383.89453125 258.21875 C368.74484593 257.36781482 347.36140119 255.36140119 336 244 C335.91148471 241.40640678 335.88474055 238.83960309 335.90234375 236.24609375 C335.90446617 235.08292381 335.90446617 235.08292381 335.90663147 233.89625549 C335.91224655 231.40996506 335.92480154 228.9237634 335.9375 226.4375 C335.94251306 224.75586067 335.9470763 223.07421994 335.95117188 221.39257812 C335.96222087 217.26168434 335.97949555 213.13085724 336 209 C339.58218045 211.35223158 342.80792047 213.63427929 345.875 216.625 C362.84433139 231.88313831 381.95420882 238.02354966 404.55322266 237.18359375 C414.72667263 236.42022971 424.35609778 232.15290726 431.3125 224.6875 C436.38727849 218.24377581 437.58333178 212.04070711 437.34765625 203.89453125 C436.83022015 199.58643968 435.4546172 196.53957339 433 193 C432.39865234 192.11054688 432.39865234 192.11054688 431.78515625 191.203125 C421.90124876 178.25377373 402.22279596 171.98733084 387.8125 165.4375 C354.00136075 150.00272149 354.00136075 150.00272149 346 134 C342.40943281 140.92263897 339.27319758 147.93775849 336.3671875 155.171875 C335.93767288 156.23112686 335.50815826 157.29037872 335.06562805 158.38172913 C334.1445313 160.65423565 333.22519146 162.92745495 332.3074646 165.20132446 C330.10303515 170.66240522 327.88735069 176.11891147 325.67211723 181.57561684 C324.91595101 183.4385648 324.16023441 185.30169471 323.40455627 187.1648407 C318.71002417 198.73251186 313.96054895 210.27703856 309.1875 221.8125 C308.80264435 222.74289093 308.4177887 223.67328186 308.02127075 224.63186646 C305.73087042 230.16799843 303.43812999 235.7031581 301.14440918 241.23791504 C299.59069527 244.98787608 298.03835354 248.7384046 296.48594666 252.48890686 C294.5955691 257.05542414 292.70406426 261.62147419 290.8125 266.1875 C290.47173431 267.01037506 290.13096863 267.83325012 289.77987671 268.68106079 C287.52575211 274.1231449 285.26507164 279.56246398 283 285 C282.45614655 286.30786469 282.45614655 286.30786469 281.90130615 287.64215088 C280.79496343 290.3003246 279.68506854 292.95698833 278.57421875 295.61328125 C278.23115189 296.43861862 277.88808502 297.26395599 277.53462219 298.11430359 C275.11451713 303.88548287 275.11451713 303.88548287 274 305 C271.92737924 305.08767112 269.85179706 305.10695873 267.77734375 305.09765625 C266.51728516 305.09443359 265.25722656 305.09121094 263.95898438 305.08789062 C262.61848891 305.07953403 261.27799412 305.07106907 259.9375 305.0625 C258.59310058 305.0574866 257.2486994 305.05292342 255.90429688 305.04882812 C252.60282059 305.03699488 249.30143197 305.02050971 246 305 C247.46368484 301.13426798 249.22955996 297.53998049 251.16796875 293.890625 C251.81414581 292.6643721 252.45970654 291.43779428 253.10473633 290.2109375 C253.44421295 289.56608398 253.78368958 288.92123047 254.13345337 288.25683594 C260.56992843 276.00220783 266.62416425 263.61959072 272.3125 251 C272.63028412 250.29508423 272.94806824 249.59016846 273.27548218 248.8638916 C275.2009075 244.58349842 277.11240222 240.29723677 279 236 C279.5777417 234.82824219 280.1554834 233.65648437 280.75073242 232.44921875 C282.9750696 226.30783988 280.61417523 221.53443026 278.21875 215.76171875 C277.93375137 215.06114853 277.64875275 214.36057831 277.3551178 213.63877869 C276.40948925 211.31914967 275.45486447 209.00334074 274.5 206.6875 C273.82500433 205.03777562 273.15045288 203.38786943 272.47631836 201.73779297 C266.84258745 187.96914356 261.1419138 174.22761855 255.42773438 160.4921875 C251.4603241 150.95324121 247.52217065 141.40322003 243.62158203 131.83674622 C235.92537345 112.88848008 235.92537345 112.88848008 227.9375 94.0625 C227.4734375 92.95588013 227.4734375 92.95588013 227 91.8269043 C223.96002603 85.00734897 219.50182526 78.94861259 212.6875 75.625 C198.27093971 70.13066168 182.9415813 70.59426954 168.75 76.625 C162.31323121 80.1726137 157.35836544 85.92169719 155 92.875 C153.07800492 100.91243395 152.61408331 109.71885238 157 117 C162.19673321 122.5642273 168.32020404 126.12317618 175.0625 129.5 C176.03550049 129.99918945 177.00850098 130.49837891 178.01098633 131.01269531 C183.95778641 134.03908023 189.95609168 136.9521841 195.9765625 139.828125 C196.65688034 140.15393555 197.33719818 140.47974609 198.03813171 140.81542969 C201.38162409 142.41540403 204.72945893 144.00440569 208.08813477 145.57226562 C225.2313466 153.65652777 241.81343192 163.87233363 248.875 182.375 C253.11175081 197.19047022 250.92114768 213.36796735 244 227 C241.61868069 230.64081796 238.98278714 233.83813371 236 237 C235.40574219 237.63550781 234.81148437 238.27101562 234.19921875 238.92578125 C217.36841435 255.17994138 191.79718932 257.64761721 169.6484375 257.31640625 C155.3665582 256.8255565 140.07908408 254.05272272 128 246 C127.73302112 243.37537756 127.65167016 240.98934067 127.70703125 238.3671875 C127.71127609 237.61535187 127.71552094 236.86351624 127.71989441 236.08889771 C127.7367083 233.68390315 127.77436376 231.27974191 127.8125 228.875 C127.82754341 227.24610584 127.84123242 225.61719856 127.85351562 223.98828125 C127.88662046 219.99186566 127.93841991 215.99607418 128 212 C131.42417788 214.01361891 134.41710184 216.10681318 137.4375 218.6875 C149.44826324 228.35296628 164.33416226 236.20343198 180 237 C181.12728516 237.05800781 181.12728516 237.05800781 182.27734375 237.1171875 C195.25624794 237.48625587 207.90060389 234.64719385 218.11328125 226.265625 C224.35017285 219.51802019 225.58034634 212.10996545 225.3515625 203.125 C224.55957708 196.08512957 221.24078839 191.63139439 216 187 C215.49218994 186.53819336 214.98437988 186.07638672 214.46118164 185.60058594 C210.47097142 182.05037414 206.49388432 179.31066598 201.75 176.875 C201.04037109 176.50375 200.33074219 176.1325 199.59960938 175.75 C192.69492173 172.21387545 185.60197371 169.11486621 178.5 166 C148.34458492 152.73662241 148.34458492 152.73662241 137 141 C137.01047363 141.58789307 137.02094727 142.17578613 137.03173828 142.78149414 C137.54708416 176.23005108 130.92975877 205.64497828 108 231 C92.23066201 247.20203324 70.93510118 257.80872786 48.10253906 258.24145508 C24.86653781 258.33588843 4.37123535 250.43224425 -13 235 C-13.69867188 234.38511719 -14.39734375 233.77023438 -15.1171875 233.13671875 C-30.23418368 218.96074041 -39.88249864 199.10978566 -44 179 C-44.22300781 177.98421875 -44.44601562 176.9684375 -44.67578125 175.921875 C-50.06982005 147.30044463 -43.6603325 116.98365154 -27.8359375 92.67578125 C-22.73338172 85.63497549 -17.30962569 80.30962569 -11 74 C-30.14 73.67 -49.28 73.34 -69 73 C-69 131.41 -69 189.82 -69 250 C-78.24 250 -87.48 250 -97 250 C-97 191.59 -97 133.18 -97 73 C-104.92 73 -112.84 73 -121 73 C-121 66.73 -121 60.46 -121 54 C-113.08 54 -105.16 54 -97 54 C-96.7525 51.9375 -96.505 49.875 -96.25 47.75 C-93.65080057 29.93203979 -86.16433626 15.16274679 -71.59375 4.1875 C-51.54034236 -8.83419327 -21.97753243 -7.32584414 0 0 Z M3 94 C-14.77323074 115.93766974 -19.0495464 142.9994944 -16.79785156 170.46582031 C-14.17980789 192.38823131 -3.48397117 213.40746954 13.15625 227.890625 C24.96104548 236.64692934 37.34386597 240.23700277 52 239 C61.15160514 237.24734168 68.52287612 233.46312439 76 228 C76.95132813 227.32517578 76.95132813 227.32517578 77.921875 226.63671875 C94.40681985 213.81929604 102.82159256 191.04937486 105.61328125 171.02734375 C108.63132416 143.78084265 102.55814703 116.6214257 85.55078125 94.8671875 C76.77391031 84.75380717 65.46726871 76.46443549 52 74 C32.05842172 72.61611345 16.29387397 78.68424406 3 94 Z " fill="#3681C2" transform="translate(332,10)"/>
<path d="M0 0 C10.12439659 8.53260052 18.19465654 19.64628751 20 33 C20.08558001 35.17535258 20.1220419 37.35296419 20.12025452 39.52999878 C20.12231651 41.47341911 20.12231651 41.47341911 20.12442017 43.45610046 C20.12088169 44.87942528 20.11724689 46.30274987 20.11352539 47.72607422 C20.11324313 49.2343292 20.11340202 50.74258433 20.1139679 52.25083923 C20.11425434 56.33507652 20.10838234 60.41928432 20.10139394 64.50351477 C20.09513493 68.77562656 20.09455458 73.04773906 20.09336853 77.31985474 C20.09026273 85.40512676 20.08205946 93.49038523 20.07201904 101.57565129 C20.06083459 110.78238486 20.05534157 119.98911909 20.05032361 129.19585776 C20.03987622 148.13058108 20.02154007 167.06528583 20 186 C10.43 186 0.86 186 -9 186 C-9.0093457 181.59930176 -9.01869141 177.19860352 -9.02832031 172.66455078 C-9.06210494 158.11590272 -9.11746212 143.56739561 -9.18390274 129.01886177 C-9.22365553 120.19909498 -9.25606708 111.37941694 -9.27099609 102.55957031 C-9.28403215 94.86918809 -9.31104651 87.17900143 -9.35461307 79.48872936 C-9.37718412 75.41946243 -9.39291331 71.35043631 -9.39188385 67.28110123 C-9.39113464 63.4445408 -9.40918888 59.60851182 -9.44116783 55.772089 C-9.44963013 54.37016413 -9.45144188 52.96817939 -9.44580269 51.56624031 C-9.40241974 39.11464275 -11.66303326 30.37880074 -20.375 21.265625 C-28.95591943 13.8594743 -39.95973881 10.39460879 -51.203125 10.69140625 C-65.5141746 12.27041871 -77.86036324 18.90592503 -87 30 C-92.35849892 37.84400034 -92.72260064 45.27851004 -92.65942383 54.53759766 C-92.66789234 55.97749206 -92.67854342 57.41737502 -92.69119263 58.85723877 C-92.71917101 62.73685009 -92.71689752 66.61590536 -92.70889878 70.49558687 C-92.70575958 74.56089084 -92.73084924 78.62602205 -92.75285339 82.69125366 C-92.79020789 90.37621723 -92.80243627 98.06100387 -92.8054778 105.74604928 C-92.81017799 114.50073386 -92.84313203 123.25524224 -92.87837565 132.00984883 C-92.95019691 150.00658927 -92.98308003 168.00311842 -93 186 C-102.24 186 -111.48 186 -121 186 C-121 121.98 -121 57.96 -121 -8 C-112.09 -8 -103.18 -8 -94 -8 C-93.67 -1.4 -93.34 5.2 -93 12 C-91.35 10.35 -89.7 8.7 -88 7 C-65.33457462 -14.41755365 -25.43478556 -18.42436683 0 0 Z " fill="#3681C2" transform="translate(188,74)"/>
<path d="M0 0 C10.56 0 21.12 0 32 0 C32 83.82 32 167.64 32 254 C21.44 254 10.88 254 0 254 C0 170.18 0 86.36 0 0 Z " fill="#3780C2" transform="translate(6,6)"/>
</svg>
