<?xml version="1.0" encoding="UTF-8"?>
<svg version="1.1" xmlns="http://www.w3.org/2000/svg" width="598" height="374">
<path d="M0 0 C197.34 0 394.68 0 598 0 C598 123.42 598 246.84 598 374 C400.66 374 203.32 374 0 374 C0 250.58 0 127.16 0 0 Z " fill="#FEFEFE" transform="translate(0,0)"/>
<path d="M0 0 C1.52985 -0.00406893 3.05969705 -0.00941261 4.58953857 -0.01593018 C8.72989735 -0.02956914 12.87003107 -0.02431995 17.01039362 -0.01479292 C21.34823353 -0.00718131 25.68605457 -0.01424584 30.02389526 -0.01895142 C37.30535329 -0.02440343 44.58671992 -0.01723069 51.86816406 -0.00292969 C60.28375662 0.01340804 68.69913125 0.00809798 77.11471856 -0.0084089 C84.34631945 -0.02202494 91.57785477 -0.02394323 98.80946434 -0.0160929 C103.12604526 -0.0114186 107.44252373 -0.01078507 111.75909805 -0.02070236 C115.81558434 -0.02937191 119.8717896 -0.02335048 123.92824554 -0.00601959 C125.41614948 -0.0020552 126.9040771 -0.00318802 128.39197159 -0.00980759 C130.42391359 -0.01801384 132.45590732 -0.00589502 134.48782349 0.00723267 C135.62452044 0.00836374 136.76121738 0.00949482 137.9323597 0.01066017 C141.45267854 0.44898625 143.29358217 1.03653097 145.96435547 3.38818359 C146.58797455 6.2605505 146.58797455 6.2605505 146.58581543 9.83421326 C146.59220425 10.4914062 146.59859307 11.14859914 146.6051755 11.82570702 C146.62046264 14.03261365 146.59994298 16.2377354 146.57958984 18.44458008 C146.58309001 20.0247253 146.58874742 21.60486701 146.59640503 23.18499756 C146.61067909 27.48063907 146.59356557 31.77564247 146.57011986 36.07122302 C146.55004352 40.56302856 146.55588879 45.05480675 146.55822754 49.54664612 C146.55817393 57.09167023 146.53839421 64.63644426 146.50634766 72.18139648 C146.46946638 80.90708611 146.46066983 89.63244787 146.46764517 98.35820526 C146.47394888 106.74691096 146.46319747 115.13550409 146.44367981 123.52418709 C146.4355004 127.09627955 146.43279726 130.66831452 146.43437195 134.24041557 C146.43525042 138.44707533 146.42104509 142.65342314 146.39514542 146.86000061 C146.38797819 148.40475006 146.38590267 149.94953269 146.38926315 151.49429512 C146.39297316 153.60159284 146.37824863 155.70797778 146.35876465 157.81517029 C146.35317158 159.58469889 146.35317158 159.58469889 146.34746552 161.38997555 C145.91688478 164.75968783 145.53761807 166.16411841 142.96435547 168.38818359 C140.11039925 168.89154816 140.11039925 168.89154816 136.5630188 168.89611816 C135.91061498 168.90235813 135.25821115 168.90859809 134.58603752 168.91502714 C132.39553453 168.93100764 130.20613662 168.9183344 128.015625 168.90576172 C126.44695383 168.91118075 124.87828775 168.91830218 123.30963135 168.92700195 C119.04502002 168.9452675 114.78079495 168.93815383 110.5161767 168.92548561 C106.05552268 168.91537101 101.59490212 168.92474733 97.13424683 168.93103027 C89.64054417 168.9383127 82.14699906 168.928705 74.65332031 168.90966797 C65.99009273 168.8879139 57.32724191 168.89493745 48.66402352 168.91697359 C41.22866947 168.93512963 33.79342882 168.93768445 26.35805976 168.92721891 C21.91619626 168.92098304 17.47450976 168.92015055 13.03265762 168.93336487 C8.85467417 168.9449252 4.67717578 168.93689458 0.49924469 168.91378784 C-1.03380401 168.908501 -2.56689357 168.91001417 -4.09992599 168.9188385 C-6.19394753 168.92977998 -8.28641775 168.91605032 -10.38034058 168.89611816 C-12.13742497 168.89385601 -12.13742497 168.89385601 -13.93000603 168.89154816 C-17.79871655 168.26450422 -19.43014829 167.31138837 -22.03564453 164.38818359 C-22.65088367 161.38159561 -22.65088367 161.38159561 -22.63691711 157.79498291 C-22.64118924 157.13411328 -22.64546136 156.47324365 -22.64986295 155.79234767 C-22.65809537 153.57913596 -22.63060836 151.36782201 -22.60327148 149.15478516 C-22.60186105 147.56800888 -22.60265291 145.98122934 -22.60548401 144.39445496 C-22.60691976 140.08669248 -22.57750475 135.77962483 -22.54261422 131.47202396 C-22.51137694 126.97037838 -22.50842206 122.46871722 -22.50248718 117.96697998 C-22.48694098 109.44233608 -22.44590208 100.91801244 -22.39573973 92.39350963 C-22.33987037 82.6886891 -22.31236584 72.98385335 -22.28726256 63.27891207 C-22.23498686 43.31515709 -22.14702952 23.35169051 -22.03564453 3.38818359 C-15.07337012 -0.6248649 -7.83156377 -0.03494589 0 0 Z " fill="#9A6BF7" transform="translate(240.03564453125,43.61181640625)"/>
<path d="M0 0 C0 0.66 0 1.32 0 2 C0.66 2.226875 1.32 2.45375 2 2.6875 C5.34035607 4.14890578 8.0853068 6.04564688 11.03515625 8.171875 C12.97170568 9.24201174 12.97170568 9.24201174 14.91015625 8.3671875 C18.35617929 6.1127799 21.75932035 3.79990567 25.1484375 1.4609375 C28.36868259 -0.1888867 30.43211429 -0.28416789 34 0 C34 0.66 34 1.32 34 2 C34.87914062 2.25007813 35.75828125 2.50015625 36.6640625 2.7578125 C40.14165139 4.05274607 42.45607362 5.60662613 45.375 7.875 C48.69793537 10.38082012 51.86357468 12.58899949 55.625 14.375 C59 16 59 16 60 18 C59.98125704 19.95551592 59.96152373 21.91103174 59.93481445 23.86645508 C59.80645224 31.25547531 59.80645224 31.25547531 63.1484375 37.5390625 C65.75117425 39.34287685 65.75117425 39.34287685 68.45703125 40.67578125 C71.32779313 42.17069412 72.94540899 43.49414223 75 46 C76.85466376 54.50120248 77.82578537 68.18135536 73.95117188 76.15966797 C71.25421484 79.4886615 67.86508304 81.31077413 64 83 C63.01 83.66 62.02 84.32 61 85 C60.80028028 87.81076134 60.73390578 90.50362047 60.75 93.3125 C60.57983734 101.16033682 60.57983734 101.16033682 58.45703125 104.234375 C56.07658839 105.90313907 53.95290788 107 51 107 C51 107.66 51 108.32 51 109 C50.28199219 109.26554687 49.56398438 109.53109375 48.82421875 109.8046875 C45.02973817 111.41065023 41.69129574 113.57427044 38.20703125 115.7578125 C36 117 36 117 34 117 C34 117.66 34 118.32 34 119 C30.78548731 120.60725635 27.56387464 120.05748185 24 120 C24 119.34 24 118.68 24 118 C22.00945124 117.30562253 20.00744615 116.64389782 18 116 C16.7934375 115.5978125 16.7934375 115.5978125 15.5625 115.1875 C10.74735668 114.83517244 6.89518509 117.40320994 3 120 C-3.33333333 120.33333333 -3.33333333 120.33333333 -6 119 C-6 118.34 -6 117.68 -6 117 C-8.31 116.34 -10.62 115.68 -13 115 C-13 114.34 -13 113.68 -13 113 C-13.928125 112.731875 -14.85625 112.46375 -15.8125 112.1875 C-19 111 -19 111 -20.4453125 109.51953125 C-22.70225633 107.31362384 -25.19872067 106.77023264 -28.16015625 105.84375 C-30 105 -30 105 -32 102 C-32.22705078 100.09887695 -32.22705078 100.09887695 -32.1953125 97.98828125 C-32.18564453 96.85229492 -32.18564453 96.85229492 -32.17578125 95.69335938 C-32.15902344 94.90767578 -32.14226562 94.12199219 -32.125 93.3125 C-32.11597656 92.51521484 -32.10695312 91.71792969 -32.09765625 90.89648438 C-32.07411585 88.930861 -32.03824547 86.96539225 -32 85 C-32.598125 84.896875 -33.19625 84.79375 -33.8125 84.6875 C-36.34734466 83.89083453 -37.20637729 82.91848231 -39 81 C-39.99495483 80.34173218 -39.99495483 80.34173218 -41.01000977 79.67016602 C-44.6260226 77.14658153 -46.68624816 75.2753338 -47.76123047 70.90576172 C-48.04126499 67.21906865 -48.04232047 63.63289799 -47.9375 59.9375 C-47.96005859 58.68388672 -47.98261719 57.43027344 -48.00585938 56.13867188 C-47.90725189 47.30625817 -47.90725189 47.30625817 -45.51171875 43.85717773 C-42.63403666 41.31499464 -39.58947816 39.78731344 -36.125 38.1875 C-34.22582873 37.08586033 -34.22582873 37.08586033 -33 35 C-32.30677304 31.38035113 -32.24285585 27.73253074 -32.26220703 24.05541992 C-32.27089262 18.41536869 -32.27089262 18.41536869 -30.828125 16.203125 C-30.22484375 15.80609375 -29.6215625 15.4090625 -29 15 C-27.71609375 14.11441406 -27.71609375 14.11441406 -26.40625 13.2109375 C-25.4471875 12.60507813 -24.488125 11.99921875 -23.5 11.375 C-22.5409375 10.76398438 -21.581875 10.15296875 -20.59375 9.5234375 C-18 8 -18 8 -15 7 C-14.566875 6.566875 -14.13375 6.13375 -13.6875 5.6875 C-9.45699483 1.45699483 -6.04306282 -0.57552979 0 0 Z " fill="#F7F4FE" transform="translate(288,68)"/>
<path d="M0 0 C3.72512946 1.39476871 6.42400711 2.92894122 9 6 C10.08244478 11.18329658 9.81854547 16.30667208 9.5625 21.5625 C8.57004703 30.90415017 8.57004703 30.90415017 11.80810547 39.00732422 C13.97334805 40.38416104 13.97334805 40.38416104 16.26538086 41.25366211 C17.12401733 41.62309937 17.12401733 41.62309937 18 42 C18 42.66 18 43.32 18 44 C18.61875 44.0825 19.2375 44.165 19.875 44.25 C22 45 22 45 23.25 47.0625 C23.4975 47.701875 23.745 48.34125 24 49 C27.41642759 49.25015873 27.41642759 49.25015873 31 49 C33.14809171 45.77786243 33.29386153 44.72224599 33 41 C31.20276416 39.20276416 28.79464809 39.76658688 26.3984375 39.671875 C22.44124642 38.5633459 19.53593037 37.34776287 17 34 C15.85584285 29.36763438 15.88653222 24.87713834 15.9375 20.125 C15.85918945 18.24361328 15.85918945 18.24361328 15.77929688 16.32421875 C15.77459189 7.43178963 15.77459189 7.43178963 19.09033203 3.55761719 C23.72614318 0.0992516 27.12178296 -1.59400295 33 -1 C33.99 -0.34 34.98 0.32 36 1 C36 1.66 36 2.32 36 3 C36.804375 3.185625 37.60875 3.37125 38.4375 3.5625 C43.26252502 5.50943992 47.21477946 8.43348109 51 12 C51 12.66 51 13.32 51 14 C42.42 14 33.84 14 25 14 C25.23333333 20.63333333 25.23333333 20.63333333 28 23 C31.08347826 23.16681109 31.08347826 23.16681109 34 23 C34.33 22.34 34.66 21.68 35 21 C40.61 21 46.22 21 52 21 C52.0825 22.299375 52.165 23.59875 52.25 24.9375 C52.65837799 27.55194445 52.65837799 27.55194445 54 30 C55.9940042 31.32470753 58.04362932 32.56729172 60.125 33.75 C65.63388484 37.39848578 65.63388484 37.39848578 66.55957031 41.44775391 C67.06940139 47.64708289 66.65880733 53.82494826 66 60 C64.02 59.505 64.02 59.505 62 59 C62 58.34 62 57.68 62 57 C61.236875 56.7525 60.47375 56.505 59.6875 56.25 C57 55 57 55 55.75 52.875 C54.17447318 50.78221909 54.17447318 50.78221909 51.81640625 50.7421875 C49.53194759 50.7493153 47.27764016 50.82810263 45 51 C45 53.64 45 56.28 45 59 C45.75925781 59.17015625 46.51851563 59.3403125 47.30078125 59.515625 C48.29464844 59.75796875 49.28851563 60.0003125 50.3125 60.25 C51.29863281 60.48203125 52.28476562 60.7140625 53.30078125 60.953125 C56.34419645 62.13349443 57.33415362 63.24822646 59 66 C58.030625 66.825 57.06125 67.65 56.0625 68.5 C52.52874281 72.43807723 52.77167199 76.03767605 52.875 81.0625 C52.88977849 83.95317243 52.61521436 86.10971075 52 89 C48.40266247 92.25974124 44.59109242 93.59004522 40 95 C38.32870149 95.65496833 36.66022976 96.3174611 35 97 C35 97.66 35 98.32 35 99 C31.83292503 100.88516367 29.72709606 102.01514783 26 101.9375 C19.89068826 100.02834008 19.89068826 100.02834008 17 97 C16.48025653 92.62549245 16.6578697 88.38433648 17 84 C18.20398438 84.02320313 19.40796875 84.04640625 20.6484375 84.0703125 C22.22395215 84.08906863 23.79947348 84.10726899 25.375 84.125 C26.56609375 84.15013672 26.56609375 84.15013672 27.78125 84.17578125 C29.85492015 84.19335473 31.92883241 84.10335168 34 84 C36.5654594 81.4345406 36.54046087 79.52313332 37 76 C35.1128125 75.7215625 35.1128125 75.7215625 33.1875 75.4375 C32.47980469 75.33308594 31.77210938 75.22867188 31.04296875 75.12109375 C28.7974658 74.86095201 28.7974658 74.86095201 26 76 C24.43881572 76.06740865 22.8749748 76.08514456 21.3125 76.0625 C20.50425781 76.05347656 19.69601562 76.04445313 18.86328125 76.03515625 C18.24839844 76.02355469 17.63351562 76.01195312 17 76 C17.01683838 75.30962646 17.03367676 74.61925293 17.05102539 73.90795898 C17.10159869 70.74990816 17.08261694 67.5958598 17.0625 64.4375 C17.09021484 63.35146484 17.11792969 62.26542969 17.14648438 61.14648438 C17.06514881 54.9356847 17.06514881 54.9356847 14.10107422 49.66064453 C10.047944 46.32519484 7.35529536 44.58641098 2 45 C2 46.65 2 48.3 2 50 C3.32 50.66 4.64 51.32 6 52 C6 52.66 6 53.32 6 54 C6.99 54.33 7.98 54.66 9 55 C9 58.63 9 62.26 9 66 C6.69 66.99 4.38 67.98 2 69 C2.07863281 68.21496094 2.15726562 67.42992187 2.23828125 66.62109375 C2.3220306 63.02868733 2.1807881 60.41069368 1 57 C-3.02953522 53.79444626 -7.20169753 51.89529611 -12 50 C-12.34695091 46.27349019 -12.51090665 42.71617363 -12 39 C-9.4375 36.5625 -9.4375 36.5625 -6 35 C-4.72216865 34.28316778 -3.45117844 33.55399727 -2.1875 32.8125 C-1.135625 32.214375 -0.08375 31.61625 1 31 C2.20495909 30.01592689 2.20495909 30.01592689 2.11352539 28.14233398 C2.10567017 26.95619507 2.10567017 26.95619507 2.09765625 25.74609375 C2.09282227 24.46508789 2.09282227 24.46508789 2.08789062 23.15820312 C2.07951172 22.26037109 2.07113281 21.36253906 2.0625 20.4375 C2.05798828 19.53580078 2.05347656 18.63410156 2.04882812 17.70507812 C2.03700225 15.46998686 2.0205222 13.23502563 2 11 C-1.47147842 10.25042843 -1.47147842 10.25042843 -5 10 C-4.94199219 11.19238281 -4.88398438 12.38476562 -4.82421875 13.61328125 C-4.77732153 15.17964841 -4.73182132 16.74605784 -4.6875 18.3125 C-4.64560547 19.09818359 -4.60371094 19.88386719 -4.56054688 20.69335938 C-4.51364287 22.89784774 -4.53171608 24.84417549 -5 27 C-8.61444801 30.112101 -12.26229143 30.91688231 -17 31 C-20.25 29.1875 -20.25 29.1875 -23 27 C-23.99 26.34 -24.98 25.68 -26 25 C-26.29296875 21.7421875 -26.29296875 21.7421875 -26.1875 17.875 C-26.16042969 16.59367187 -26.13335937 15.31234375 -26.10546875 13.9921875 C-26.07066406 13.00476563 -26.03585937 12.01734375 -26 11 C-23.35261084 9.5393715 -22.10551666 9 -19 9 C-18.67 13.62 -18.34 18.24 -18 23 C-16.35 23.33 -14.7 23.66 -13 24 C-11.8220768 21.64415361 -11.86059486 20.16077841 -11.82421875 17.53515625 C-11.80037109 16.65279297 -11.77652344 15.77042969 -11.75195312 14.86132812 C-11.70907966 12.99958033 -11.67777711 11.13752914 -11.65820312 9.27539062 C-11.63048828 8.39173828 -11.60277344 7.50808594 -11.57421875 6.59765625 C-11.55963623 5.78820557 -11.54505371 4.97875488 -11.5300293 4.14477539 C-11 2 -11 2 -9.16333008 0.21655273 C-5.72397742 -1.7175737 -3.76026764 -1.04794344 0 0 Z " fill="#9D6FF7" transform="translate(289,78)"/>
<path d="M0 0 C0.804375 0.515625 1.60875 1.03125 2.4375 1.5625 C3.530625 2.18125 4.62375 2.8 5.75 3.4375 C8.12567285 5.4364677 8.41873113 6.41409049 8.81640625 9.55859375 C8.81284501 12.58208915 8.69687837 15.55082889 8.4375 18.5625 C7.798125 18.665625 7.15875 18.76875 6.5 18.875 C5.819375 19.101875 5.13875 19.32875 4.4375 19.5625 C4.1075 20.5525 3.7775 21.5425 3.4375 22.5625 C0.375 24.25 0.375 24.25 -2.5625 25.5625 C-2.2325 27.2125 -1.9025 28.8625 -1.5625 30.5625 C2.00788912 30.93367638 2.00788912 30.93367638 5 29.25 C5.474375 28.693125 5.94875 28.13625 6.4375 27.5625 C8.3125 25.8125 8.3125 25.8125 10.4375 24.5625 C14.81625948 24.79296103 17.32869582 26.50809791 21.4375 28.5625 C21.4375 33.1825 21.4375 37.8025 21.4375 42.5625 C20.303125 42.830625 19.16875 43.09875 18 43.375 C16.2365625 43.9628125 16.2365625 43.9628125 14.4375 44.5625 C14.1075 45.5525 13.7775 46.5425 13.4375 47.5625 C11.375 48.75 11.375 48.75 9.4375 49.5625 C9.4375 50.8825 9.4375 52.2025 9.4375 53.5625 C13.46742782 53.00937265 17.45772924 52.4066938 21.4375 51.5625 C21.4375 50.9025 21.4375 50.2425 21.4375 49.5625 C23.55982979 48.39073482 25.68507791 47.22495215 27.8125 46.0625 C28.41578125 45.72863281 29.0190625 45.39476562 29.640625 45.05078125 C34.2109375 42.5625 34.2109375 42.5625 36.4375 42.5625 C36.67053424 46.12389065 36.81211781 49.68332446 36.9375 53.25 C37.03804688 54.76110352 37.03804688 54.76110352 37.140625 56.30273438 C37.3332519 63.59847825 37.3332519 63.59847825 34.73974609 66.38964844 C31.28498261 68.64831829 29.2459729 69.59244344 25.0625 69.4375 C22.4375 68.5625 22.4375 68.5625 20.4375 67.5625 C21.91309669 63.13570993 24.33807368 62.64817304 28.4375 60.5625 C29.0975 60.5625 29.7575 60.5625 30.4375 60.5625 C30.4375 58.5825 30.4375 56.6025 30.4375 54.5625 C25.17397377 55.53722708 20.95518521 56.55070986 16.4375 59.5625 C15.7775 59.5625 15.1175 59.5625 14.4375 59.5625 C14.4375 60.2225 14.4375 60.8825 14.4375 61.5625 C9.52725054 60.94871882 5.76764883 58.83766294 1.4375 56.5625 C1.4375 52.9325 1.4375 49.3025 1.4375 45.5625 C7.1875 42.5625 7.1875 42.5625 9.4375 42.5625 C9.4375 41.9025 9.4375 41.2425 9.4375 40.5625 C11.4175 39.9025 13.3975 39.2425 15.4375 38.5625 C15.4375 36.5825 15.4375 34.6025 15.4375 32.5625 C9.85155822 33.7362292 9.85155822 33.7362292 4.8125 36.25 C2.4375 37.5625 2.4375 37.5625 -0.6875 37.4375 C-3.57635794 36.55828237 -4.81709513 35.98667343 -6.5625 33.5625 C-6.5625 32.9025 -6.5625 32.2425 -6.5625 31.5625 C-7.18125 31.43875 -7.8 31.315 -8.4375 31.1875 C-10.5625 30.5625 -10.5625 30.5625 -12.5625 28.5625 C-12.5625 26.2525 -12.5625 23.9425 -12.5625 21.5625 C-7.9425 18.9225 -3.3225 16.2825 1.4375 13.5625 C1.1075 11.9125 0.7775 10.2625 0.4375 8.5625 C-3.98686025 9.07696049 -6.82761061 10.17632067 -10.5625 12.5625 C-11.2225 12.5625 -11.8825 12.5625 -12.5625 12.5625 C-12.5625 10.5825 -12.5625 8.6025 -12.5625 6.5625 C-11.9025 6.5625 -11.2425 6.5625 -10.5625 6.5625 C-10.2325 5.5725 -9.9025 4.5825 -9.5625 3.5625 C-3.67414274 -0.62729266 -3.67414274 -0.62729266 0 0 Z " fill="#A175F7" transform="translate(261.5625,110.4375)"/>
<path d="M0 0 C3.3 0 6.6 0 10 0 C11.33801 2.78951193 12.67057094 5.58140245 14 8.375 C14.3815625 9.1690625 14.763125 9.963125 15.15625 10.78125 C15.5171875 11.54179687 15.878125 12.30234375 16.25 13.0859375 C16.75273437 14.1385376 16.75273437 14.1385376 17.265625 15.21240234 C18 17 18 17 18 19 C21.395874 16.736084 21.7546286 15.71187213 23.125 12 C25 7 25 7 26 5 C26.66 5 27.32 5 28 5 C28.33 3.68 28.66 2.36 29 1 C31.97 1 34.94 1 38 1 C38 12.88 38 24.76 38 37 C35.69 37 33.38 37 31 37 C31 29.41 31 21.82 31 14 C30.34 14 29.68 14 29 14 C28.67 15.65 28.34 17.3 28 19 C27.34 19 26.68 19 26 19 C25.01 21.97 24.02 24.94 23 28 C20.36 28 17.72 28 15 28 C13.02 23.71 11.04 19.42 9 15 C8.67 22.26 8.34 29.52 8 37 C5.36 37 2.72 37 0 37 C0 24.79 0 12.58 0 0 Z " fill="#3B4451" transform="translate(395,269)"/>
<path d="M0 0 C6 0 6 0 9 1 C9.99 0.67 10.98 0.34 12 0 C13.72795352 -0.06802967 15.45835365 -0.08495645 17.1875 -0.0625 C18.08855469 -0.05347656 18.98960938 -0.04445313 19.91796875 -0.03515625 C20.60503906 -0.02355469 21.29210937 -0.01195312 22 0 C22 0.66 22 1.32 22 2 C22.78375 1.67 23.5675 1.34 24.375 1 C28.85372504 -0.23551036 33.39880768 -0.93449345 38 0 C40.95068595 3.07137567 41.36282128 5.23072349 41.29296875 9.421875 C41.2784668 10.95908203 41.2784668 10.95908203 41.26367188 12.52734375 C41.23853516 13.59082031 41.21339844 14.65429688 41.1875 15.75 C41.16719727 17.36841797 41.16719727 17.36841797 41.14648438 19.01953125 C41.11116584 21.6801942 41.06184199 24.33984296 41 27 C38.36 27 35.72 27 33 27 C33 20.07 33 13.14 33 6 C30.36 6.33 27.72 6.66 25 7 C24.67 13.6 24.34 20.2 24 27 C21.36 27 18.72 27 16 27 C16 20.07 16 13.14 16 6 C13.69 6.33 11.38 6.66 9 7 C8.67 13.6 8.34 20.2 8 27 C5.36 27 2.72 27 0 27 C0 18.09 0 9.18 0 0 Z " fill="#303946" transform="translate(99,279)"/>
<path d="M0 0 C0.79277344 0.05671875 1.58554687 0.1134375 2.40234375 0.171875 C4.35231735 0.31283695 6.30128671 0.4675712 8.25 0.625 C8.33751499 5.14571021 8.3905661 9.6662007 8.4375 14.1875 C8.46263672 15.46431641 8.48777344 16.74113281 8.51367188 18.05664062 C8.60956511 30.36293959 8.60956511 30.36293959 5.25 35.625 C2.1443299 38.07331444 -0.95499051 37.86508067 -4.8125 37.8125 C-6.37677734 37.80283203 -6.37677734 37.80283203 -7.97265625 37.79296875 C-10.75 37.625 -10.75 37.625 -13.75 36.625 C-13.75 34.975 -13.75 33.325 -13.75 31.625 C-12.61111328 31.64240234 -12.61111328 31.64240234 -11.44921875 31.66015625 C-10.45535156 31.66917969 -9.46148437 31.67820312 -8.4375 31.6875 C-7.45136719 31.69910156 -6.46523438 31.71070313 -5.44921875 31.72265625 C-2.65036151 31.74829862 -2.65036151 31.74829862 0.25 30.625 C0.58 28.315 0.91 26.005 1.25 23.625 C0.26 24.285 -0.73 24.945 -1.75 25.625 C-4.81325633 26.16092882 -7.68879682 26.18409859 -10.75 25.625 C-13.78157992 22.74499907 -15.63092625 20.17524858 -15.953125 15.98046875 C-15.96859375 14.93503906 -15.9840625 13.88960938 -16 12.8125 C-16.02578125 11.77480469 -16.0515625 10.73710937 -16.078125 9.66796875 C-15.63264447 5.53666716 -14.34934458 2.92732344 -11.109375 0.2890625 C-7.3873217 -0.75853528 -3.8213394 -0.31686065 0 0 Z " fill="#2E3745" transform="translate(351.75,279.375)"/>
<path d="M0 0 C3.3 0 6.6 0 10 0 C10.66 3.3 11.32 6.6 12 10 C12.66 10 13.32 10 14 10 C14.97200936 12.91602809 15.94330899 15.83225453 16.91015625 18.75 C17.56867589 20.71375749 18.23953998 22.67351827 18.93359375 24.625 C20.31424932 28.53575645 21.40813872 31.7825666 21 36 C18.36 36 15.72 36 13 36 C12.34 33.03 11.68 30.06 11 27 C7.04 27.33 3.08 27.66 -1 28 C-1.99 30.64 -2.98 33.28 -4 36 C-6.31 36 -8.62 36 -11 36 C-10.85831863 34.56208484 -10.71148957 33.1246763 -10.5625 31.6875 C-10.48128906 30.88699219 -10.40007813 30.08648437 -10.31640625 29.26171875 C-10 27 -10 27 -9 24 C-8.34 24 -7.68 24 -7 24 C-6.87882812 23.26394531 -6.75765625 22.52789062 -6.6328125 21.76953125 C-6.46523437 20.79371094 -6.29765625 19.81789063 -6.125 18.8125 C-5.96257812 17.84957031 -5.80015625 16.88664062 -5.6328125 15.89453125 C-5.01960483 13.08967396 -4.14333657 10.62775253 -3 8 C-2.34 8 -1.68 8 -1 8 C-0.67 5.36 -0.34 2.72 0 0 Z " fill="#343D4A" transform="translate(73,270)"/>
<path d="M0 0 C2.95351849 2.58432868 4.37155438 4.17480768 4.87109375 8.11328125 C5.07247673 18.38381339 5.07247673 18.38381339 2.25 21.875 C-1.49001818 25.02001529 -4.08138295 26.47118916 -9 26.4375 C-9.7528125 26.44265625 -10.505625 26.4478125 -11.28125 26.453125 C-13.79896014 26.151709 -15.35852494 25.53716915 -17.5 24.1875 C-21.65141537 18.6522795 -22.3977821 14.01940284 -21.5 7.1875 C-20.64105628 3.5931509 -19.57241036 0.93493753 -16.4375 -1.25 C-10.49820272 -2.38731224 -5.46703743 -2.83114438 0 0 Z " fill="#353E4B" transform="translate(220.5,280.8125)"/>
<path d="M0 0 C0 1.98 0 3.96 0 6 C-4.29 6 -8.58 6 -13 6 C-13.33 7.65 -13.66 9.3 -14 11 C-13.41992188 11.24234375 -12.83984375 11.4846875 -12.2421875 11.734375 C-1.00946487 16.55369494 -1.00946487 16.55369494 2.4375 20.75 C3.32603725 24.30414899 3.0703614 27.54190933 2 31 C-0.74232064 34.48348838 -2.67788927 36.22565475 -7 37 C-12.69784155 37.40430229 -17.66230261 37.24745153 -23 35 C-23 33.02 -23 31.04 -23 29 C-22.38125 29.165 -21.7625 29.33 -21.125 29.5 C-16.76703953 30.19727368 -12.40552832 30.27738512 -8 30 C-6.70366379 28.93354885 -6.70366379 28.93354885 -6.9375 26.4375 C-6.958125 25.633125 -6.97875 24.82875 -7 24 C-7.73605469 23.69707031 -8.47210938 23.39414062 -9.23046875 23.08203125 C-19.88855112 18.50623631 -19.88855112 18.50623631 -23 14 C-23.55090673 9.59274617 -23.42163815 5.79039015 -21 2 C-14.51277252 -1.9193666 -7.22641567 -2.05994378 0 0 Z " fill="#36404C" transform="translate(299,270)"/>
<path d="M0 0 C2.64 0 5.28 0 8 0 C8.33 6.93 8.66 13.86 9 21 C9.99 19.68 10.98 18.36 12 17 C15.30141179 13.1652313 15.30141179 13.1652313 18.24609375 12.46875 C20.4375 12.5 20.4375 12.5 24 13 C22.63629701 15.99220268 21.05091917 18.29026529 18.875 20.75 C18.33617187 21.36359375 17.79734375 21.9771875 17.2421875 22.609375 C16.83226562 23.06828125 16.42234375 23.5271875 16 24 C17.55715875 27.51590054 19.68580036 30.22811262 22.125 33.1875 C26 37.89679715 26 37.89679715 26 39 C22.80217592 39.66621335 20.17767124 39.83236381 17 39 C13.807436 36.01188592 11.39117202 32.64865485 9 29 C8.67 32.3 8.34 35.6 8 39 C5.36 39 2.72 39 0 39 C0 26.13 0 13.26 0 0 Z " fill="#353E4B" transform="translate(470,267)"/>
<path d="M0 0 C1.21042969 -0.05607422 1.21042969 -0.05607422 2.4453125 -0.11328125 C6.1502327 0.53597325 7.46984251 1.36437926 9.875 4.3125 C10.49757769 8.24377689 10.34379152 12.09509982 10.1875 16.0625 C10.16494141 17.14144531 10.14238281 18.22039062 10.11914062 19.33203125 C10.0602565 21.9935935 9.97807001 24.65234228 9.875 27.3125 C8.82699219 27.29509766 8.82699219 27.29509766 7.7578125 27.27734375 C6.84773438 27.26832031 5.93765625 27.25929688 5 27.25 C4.09507812 27.23839844 3.19015625 27.22679687 2.2578125 27.21484375 C-0.1418585 27.15000743 -0.1418585 27.15000743 -2.125 28.3125 C-5.74226636 28.71441848 -7.72282296 28.51358852 -11 26.875 C-13.68889656 23.63250709 -13.92288163 21.5757013 -13.6640625 17.44140625 C-13.125 15.3125 -13.125 15.3125 -10.6875 12.75 C-6.30596861 10.98201365 -2.77889352 10.94018852 1.875 11.3125 C1.875 9.6625 1.875 8.0125 1.875 6.3125 C-2.745 6.6425 -7.365 6.9725 -12.125 7.3125 C-12.125 5.3325 -12.125 3.3525 -12.125 1.3125 C-8.08673151 0.61019244 -4.09756097 0.16561998 0 0 Z " fill="#3C4551" transform="translate(158.125,278.6875)"/>
<path d="M0 0 C2 2 2 2 2.22705078 4.33837891 C2.21657715 5.29147949 2.20610352 6.24458008 2.1953125 7.2265625 C2.18886719 8.2578125 2.18242187 9.2890625 2.17578125 10.3515625 C2.15902344 11.43179687 2.14226562 12.51203125 2.125 13.625 C2.11597656 14.71296875 2.10695313 15.8009375 2.09765625 16.921875 C2.07403409 19.61480152 2.04109556 22.30729255 2 25 C-0.31 25 -2.62 25 -5 25 C-5 24.34 -5 23.68 -5 23 C-5.680625 23.495 -6.36125 23.99 -7.0625 24.5 C-10.70766131 26.36135897 -12.9540572 26.51493817 -17 26 C-19.4375 24.5625 -19.4375 24.5625 -21 22 C-21.66562098 18.84553536 -21.74441594 16.1450131 -21 13 C-18.33688045 10.20031022 -16.46230342 9.14028602 -12.59765625 8.76953125 C-10.38111756 8.75202305 -8.20882857 8.82329371 -6 9 C-6 7.35 -6 5.7 -6 4 C-10.62 4.33 -15.24 4.66 -20 5 C-20 3.02 -20 1.04 -20 -1 C-6.22535211 -3.29577465 -6.22535211 -3.29577465 0 0 Z " fill="#343E4B" transform="translate(328,281)"/>
<path d="M0 0 C3.625 1.25 3.625 1.25 6 3 C7.50191789 7.22357517 7.06502724 11.57814762 7 16 C1.72 16 -3.56 16 -9 16 C-8.67 17.65 -8.34 19.3 -8 21 C-3.05 21 1.9 21 7 21 C7 22.65 7 24.3 7 26 C4.90501069 28.09498931 0.62536788 27.27685494 -2.25 27.3125 C-3.39662109 27.35600586 -3.39662109 27.35600586 -4.56640625 27.40039062 C-8.52666968 27.44484954 -10.52921284 27.28900416 -13.984375 25.16796875 C-17.93772005 20.91582436 -17.4648029 15.78634146 -17.390625 10.25390625 C-16.90207623 6.18429499 -15.99697524 3.94098817 -13.04296875 1.11328125 C-8.86985042 -1.16078897 -4.56755249 -0.74544625 0 0 Z " fill="#39424F" transform="translate(514,279)"/>
<path d="M0 0 C2 2 2 2 2.22705078 4.33837891 C2.21657715 5.29147949 2.20610352 6.24458008 2.1953125 7.2265625 C2.18886719 8.2578125 2.18242187 9.2890625 2.17578125 10.3515625 C2.15902344 11.43179687 2.14226562 12.51203125 2.125 13.625 C2.11597656 14.71296875 2.10695313 15.8009375 2.09765625 16.921875 C2.07403409 19.61480152 2.04109556 22.30729255 2 25 C0.98353394 24.98803589 0.98353394 24.98803589 -0.0534668 24.97583008 C-0.94718994 24.96962646 -1.84091309 24.96342285 -2.76171875 24.95703125 C-3.64561279 24.94905518 -4.52950684 24.9410791 -5.44018555 24.93286133 C-8.22543519 24.94118948 -8.22543519 24.94118948 -11.8125 25.6875 C-15.62423206 26.06119922 -17.00694513 25.28880667 -20 23 C-21.56909759 21.43090241 -21.32018865 19.85953743 -21.4375 17.6875 C-21.37740637 13.91361989 -21.29070471 13.30561265 -18.5625 10.4375 C-14.18096861 8.66951365 -10.65389352 8.62768852 -6 9 C-6.33 7.35 -6.66 5.7 -7 4 C-10.96 4 -14.92 4 -19 4 C-18.67 2.35 -18.34 0.7 -18 -1 C-11.89188389 -2.52702903 -5.69518388 -3.01509735 0 0 Z " fill="#39424F" transform="translate(461,281)"/>
<path d="M0 0 C2.65212327 2.11141406 3.8749839 3.26845416 4.45410156 6.65722656 C4.42268066 8.13400879 4.42268066 8.13400879 4.390625 9.640625 C4.37128906 11.24550781 4.37128906 11.24550781 4.3515625 12.8828125 C4.31804687 13.99398438 4.28453125 15.10515625 4.25 16.25 C4.23195313 17.37664062 4.21390625 18.50328125 4.1953125 19.6640625 C4.14820222 22.44356896 4.08243361 25.2213534 4 28 C1.36 28 -1.28 28 -4 28 C-4.33 21.07 -4.66 14.14 -5 7 C-7.64 7 -10.28 7 -13 7 C-13 13.93 -13 20.86 -13 28 C-15.64 28 -18.28 28 -21 28 C-21 19.09 -21 10.18 -21 1 C-17.66666667 1 -14.33333333 1 -11 1 C-7.37296974 -0.20901009 -3.75982637 -0.78660475 0 0 Z " fill="#39424F" transform="translate(252,278)"/>
<path d="M0 0 C2.5 1.6875 2.5 1.6875 3.5 4.6875 C3.63143471 8.02594165 3.54340976 11.34494868 3.5 14.6875 C-1.78 14.6875 -7.06 14.6875 -12.5 14.6875 C-11.51 16.3375 -10.52 17.9875 -9.5 19.6875 C-6.30624623 20.29307942 -6.30624623 20.29307942 -2.8125 20 C-1.63300781 19.95488281 -0.45351563 19.90976562 0.76171875 19.86328125 C1.66535156 19.80527344 2.56898438 19.74726563 3.5 19.6875 C3.542721 21.35361905 3.54063832 23.02132885 3.5 24.6875 C1.45871653 26.72878347 -2.46352323 26.00853654 -5.25 26.0625 C-5.96671875 26.09988281 -6.6834375 26.13726562 -7.421875 26.17578125 C-11.41221651 26.24179793 -13.2605142 25.87186605 -16.453125 23.4140625 C-20.26499448 18.33641957 -20.04575649 12.86624315 -19.5 6.6875 C-17.6004878 1.36886585 -17.6004878 1.36886585 -14.6640625 -0.44921875 C-9.75862524 -2.40608091 -4.84652299 -1.81744612 0 0 Z " fill="#37404D" transform="translate(386.5,280.3125)"/>
<path d="M0 0 C6.93 0 13.86 0 21 0 C21 7 21 7 18.8125 9.5625 C17.884375 10.366875 16.95625 11.17125 16 12 C12.63154407 15.73943943 12.63154407 15.73943943 10 20 C13.63 20.33 17.26 20.66 21 21 C21 22.98 21 24.96 21 27 C13.74 27 6.48 27 -1 27 C-1 20.51753881 -0.6806753 19.87885835 3.3125 15.3125 C4.11300781 14.38050781 4.91351563 13.44851563 5.73828125 12.48828125 C7.44293105 10.61287206 9.20793547 8.79206453 11 7 C7.37 6.67 3.74 6.34 0 6 C0 4.02 0 2.04 0 0 Z " fill="#363F4C" transform="translate(174,279)"/>
<path d="M0 0 C6 0 6 0 7.9375 0.5625 C11.06172646 1.2252147 13.885931 0.53897348 17 0 C17 2.31 17 4.62 17 7 C14.03 7 11.06 7 8 7 C8 13.6 8 20.2 8 27 C5.36 27 2.72 27 0 27 C0 18.09 0 9.18 0 0 Z " fill="#363F4C" transform="translate(526,279)"/>
<path d="M0 0 C1.98 0 3.96 0 6 0 C6 1.32 6 2.64 6 4 C6.66 4 7.32 4 8 4 C8 11.59 8 19.18 8 27 C5.36 27 2.72 27 0 27 C0 18.09 0 9.18 0 0 Z " fill="#36404C" transform="translate(231,279)"/>
<path d="M0 0 C3.5 0.25 3.5 0.25 5.5 2.25 C5.80078125 4.4921875 5.80078125 4.4921875 5.8125 7.125 C5.82925781 7.98867188 5.84601563 8.85234375 5.86328125 9.7421875 C5.43757021 12.68096692 4.44053466 14.04833799 2.5 16.25 C0.19 15.92 -2.12 15.59 -4.5 15.25 C-5.4807664 12.30770079 -5.66488128 10.2591216 -5.6875 7.1875 C-5.70167969 6.30964844 -5.71585938 5.43179687 -5.73046875 4.52734375 C-5.3237807 0.50871441 -3.84829354 0.27487811 0 0 Z " fill="#EAEBED" transform="translate(211.5,284.75)"/>
<path d="M0 0 C1.65 0 3.3 0 5 0 C6.00005304 3.00015912 6.11575585 4.97423756 6.09765625 8.10546875 C6.09443359 9.08837891 6.09121094 10.07128906 6.08789062 11.08398438 C6.07951172 12.10814453 6.07113281 13.13230469 6.0625 14.1875 C6.05798828 15.22326172 6.05347656 16.25902344 6.04882812 17.32617188 C6.0370401 19.88417266 6.02058515 22.44205733 6 25 C4.02 25 2.04 25 0 25 C0 16.75 0 8.5 0 0 Z " fill="#252F3D" transform="translate(100,280)"/>
<path d="M0 0 C2.97 0 5.94 0 9 0 C9 4.62 9 9.24 9 14 C5.6875 14.6875 5.6875 14.6875 2 15 C0.28515625 13.8359375 0.28515625 13.8359375 -1 12 C-1.328125 9.58984375 -1.328125 9.58984375 -1.25 6.9375 C-1.23453125 6.05964844 -1.2190625 5.18179687 -1.203125 4.27734375 C-1 2 -1 2 0 0 Z " fill="#EFEFF0" transform="translate(344,285)"/>
<path d="M0 0 C0.66 0.33 1.32 0.66 2 1 C2 8.59 2 16.18 2 24 C-0.31 24 -2.62 24 -5 24 C-5 23.34 -5 22.68 -5 22 C-5.680625 22.495 -6.36125 22.99 -7.0625 23.5 C-10.70766131 25.36135897 -12.9540572 25.51493817 -17 25 C-19.4375 23.5625 -19.4375 23.5625 -21 21 C-21.31821008 17.96917943 -21.23343667 15.03467666 -21 12 C-19.68 11.34 -18.36 10.68 -17 10 C-17.33 10.53625 -17.66 11.0725 -18 11.625 C-19.24091523 14.57217367 -19.20678166 16.82934784 -19 20 C-18.67 20.66 -18.34 21.32 -18 22 C-15.87423218 22.46651207 -15.87423218 22.46651207 -13.4375 22.625 C-12.61121094 22.69976562 -11.78492188 22.77453125 -10.93359375 22.8515625 C-10.29550781 22.90054687 -9.65742188 22.94953125 -9 23 C-9 22.34 -9 21.68 -9 21 C-10.32 21 -11.64 21 -13 21 C-14.35439668 18.29120665 -14.06501451 15.99066732 -14 13 C-11.36 13 -8.72 13 -6 13 C-6 15.31 -6 17.62 -6 20 C-5.34 20.33 -4.68 20.66 -4 21 C-4 21.66 -4 22.32 -4 23 C-2.35 23 -0.7 23 1 23 C0.505 11.615 0.505 11.615 0 0 Z " fill="#6C737C" transform="translate(328,282)"/>
<path d="M0 0 C0.66 0 1.32 0 2 0 C2 0.66 2 1.32 2 2 C3.65 1.67 5.3 1.34 7 1 C6.67 1.99 6.34 2.98 6 4 C8.97 4.495 8.97 4.495 12 5 C12 5.33 12 5.66 12 6 C9.69 6.33 7.38 6.66 5 7 C4.67 13.6 4.34 20.2 4 27 C1.36 27 -1.28 27 -4 27 C-4 20.4 -4 13.8 -4 7 C-3.34 7 -2.68 7 -2 7 C-2 13.27 -2 19.54 -2 26 C-0.35 26 1.3 26 3 26 C2.99476318 25.40461426 2.98952637 24.80922852 2.98413086 24.19580078 C2.96338001 21.50554453 2.95034593 18.81530511 2.9375 16.125 C2.92493164 14.71927734 2.92493164 14.71927734 2.91210938 13.28515625 C2.90888672 12.38925781 2.90566406 11.49335938 2.90234375 10.5703125 C2.89710693 9.74289551 2.89187012 8.91547852 2.88647461 8.06298828 C3 6 3 6 4 4 C3.01 3.67 2.02 3.34 1 3 C0.67 2.01 0.34 1.02 0 0 Z " fill="#5E6570" transform="translate(119,279)"/>
<path d="M0 0 C4.17664661 0 7.09145257 0.08034178 11 1 C10.01 2.485 10.01 2.485 9 4 C11.97 4.495 11.97 4.495 15 5 C15 5.33 15 5.66 15 6 C13.02 6.33 11.04 6.66 9 7 C8.67 13.6 8.34 20.2 8 27 C5.36 27 2.72 27 0 27 C0 18.09 0 9.18 0 0 Z M1 1 C1 9.25 1 17.5 1 26 C2.98 26 4.96 26 7 26 C7.02900455 22.3958502 7.04680018 18.79173038 7.0625 15.1875 C7.07087891 14.16333984 7.07925781 13.13917969 7.08789062 12.08398438 C7.09111328 11.10107422 7.09433594 10.11816406 7.09765625 9.10546875 C7.10289307 8.19949951 7.10812988 7.29353027 7.11352539 6.36010742 C7.09920981 3.84715961 7.09920981 3.84715961 6 1 C4.35 1 2.7 1 1 1 Z " fill="#676D77" transform="translate(99,279)"/>
<path d="M0 0 C0.66 0.33 1.32 0.66 2 1 C2.59355614 3.64860427 2.74209269 6.29197322 3 9 C3.66 9 4.32 9 5 9 C5 10.65 5 12.3 5 14 C2.03 14 -0.94 14 -4 14 C-3.52188823 12.22888156 -3.0424722 10.45811517 -2.5625 8.6875 C-2.29566406 7.70136719 -2.02882813 6.71523438 -1.75390625 5.69921875 C-1.21920575 3.78482474 -0.62855462 1.88566385 0 0 Z " fill="#DADBDE" transform="translate(77,278)"/>
<path d="M0 0 C0 2.31 0 4.62 0 7 C-2.97 7 -5.94 7 -9 7 C-9 6.34 -9 5.68 -9 5 C-9.66 5 -10.32 5 -11 5 C-10.67 3.68 -10.34 2.36 -10 1 C-6.59437148 0.22157062 -3.49234244 -0.09978121 0 0 Z " fill="#515964" transform="translate(543,279)"/>
<path d="M0 0 C2.05078125 0.03255208 4.1015625 0.06510417 6.15234375 0.09765625 C6.15234375 2.07765625 6.15234375 4.05765625 6.15234375 6.09765625 C-0.59765625 7.22265625 -0.59765625 7.22265625 -2.84765625 6.09765625 C-2.89037725 4.4315372 -2.88829457 2.7638274 -2.84765625 1.09765625 C-1.84765625 0.09765625 -1.84765625 0.09765625 0 0 Z " fill="#DDDFE1" transform="translate(154.84765625,294.90234375)"/>
<path d="M0 0 C2 2 2 2 2 6 C-1.63 6 -5.26 6 -9 6 C-7.6185219 0.47408759 -5.43452271 -0.55738694 0 0 Z " fill="#DADCDE" transform="translate(513,284)"/>
<path d="M0 0 C3.0625 0.1875 3.0625 0.1875 5.0625 2.1875 C5.0625 3.5075 5.0625 4.8275 5.0625 6.1875 C1.7625 6.1875 -1.5375 6.1875 -4.9375 6.1875 C-3.87127483 0.24710265 -3.87127483 0.24710265 0 0 Z " fill="#DFE0E2" transform="translate(378.9375,283.8125)"/>
<path d="M0 0 C1.134375 0.020625 2.26875 0.04125 3.4375 0.0625 C3.625 2.4375 3.625 2.4375 3.4375 5.0625 C0.4375 7.0625 0.4375 7.0625 -2.25 6.6875 C-3.013125 6.48125 -3.77625 6.275 -4.5625 6.0625 C-4.605221 4.39638095 -4.60313832 2.72867115 -4.5625 1.0625 C-3.5625 0.0625 -3.5625 0.0625 0 0 Z " fill="#E9EAEB" transform="translate(451.5625,294.9375)"/>
<path d="M0 0 C2.64 0 5.28 0 8 0 C8.042721 1.66611905 8.04063832 3.33382885 8 5 C7 6 7 6 3.4375 6.0625 C2.303125 6.041875 1.16875 6.02125 0 6 C0 4.02 0 2.04 0 0 Z " fill="#ECECEE" transform="translate(314,295)"/>
<path d="M0 0 C0.33 0.99 0.66 1.98 1 3 C-4.28 3 -9.56 3 -15 3 C-14.67 4.65 -14.34 6.3 -14 8 C-14.66 7.67 -15.32 7.34 -16 7 C-16.6875 4.5 -16.6875 4.5 -17 2 C-14.94077598 -0.05922402 -10.78291876 0.58572421 -7.9375 0.4375 C-7.17888672 0.39431641 -6.42027344 0.35113281 -5.63867188 0.30664062 C-3.75934562 0.20026367 -1.87969756 0.09960066 0 0 Z " fill="#696F78" transform="translate(520,292)"/>
<path d="M0 0 C0 0.33 0 0.66 0 1 C-0.63808594 1.13277344 -1.27617187 1.26554687 -1.93359375 1.40234375 C-3.17302734 1.66724609 -3.17302734 1.66724609 -4.4375 1.9375 C-5.26121094 2.11152344 -6.08492187 2.28554688 -6.93359375 2.46484375 C-8.97661204 2.80752994 -8.97661204 2.80752994 -10 4 C-7.525 4.99 -7.525 4.99 -5 6 C-5 6.33 -5 6.66 -5 7 C-7.64 7 -10.28 7 -13 7 C-13 6.34 -13 5.68 -13 5 C-13.66 5 -14.32 5 -15 5 C-14.67 4.01 -14.34 3.02 -14 2 C-9.24983365 -0.2012966 -5.11918146 -0.1765235 0 0 Z " fill="#686F78" transform="translate(252,278)"/>
<path d="M0 0 C0.33 0.66 0.66 1.32 1 2 C3.58605332 2.4683265 3.58605332 2.4683265 6.5625 2.625 C8.08037109 2.73714844 8.08037109 2.73714844 9.62890625 2.8515625 C10.80259766 2.92503906 10.80259766 2.92503906 12 3 C12 4.65 12 6.3 12 8 C11.67 7.01 11.34 6.02 11 5 C6.71 5 2.42 5 -2 5 C-1 1 -1 1 0 0 Z " fill="#5E6670" transform="translate(183,297)"/>
<path d="M0 0 C1.98 0 3.96 0 6 0 C6 0.66 6 1.32 6 2 C6.99 2 7.98 2 9 2 C8.67 2.99 8.34 3.98 8 5 C4.37 5.33 0.74 5.66 -3 6 C1 4 1 4 4 4 C4 3.34 4 2.68 4 2 C2.68 2 1.36 2 0 2 C0 1.34 0 0.68 0 0 Z " fill="#565D68" transform="translate(153,301)"/>
<path d="M0 0 C0.66 0.33 1.32 0.66 2 1 C1.35546875 1.46921875 0.7109375 1.9384375 0.046875 2.421875 C-2.93590883 6.17881647 -2.66969395 9.57764827 -2.75 14.25 C-2.77964844 15.09046875 -2.80929687 15.9309375 -2.83984375 16.796875 C-2.91031636 18.8640715 -2.95744939 20.93204033 -3 23 C-3.33 23 -3.66 23 -4 23 C-4.11608726 19.72946483 -4.18720711 16.4594582 -4.25 13.1875 C-4.28351563 12.25873047 -4.31703125 11.32996094 -4.3515625 10.37304688 C-4.36445313 9.48037109 -4.37734375 8.58769531 -4.390625 7.66796875 C-4.41157227 6.84578857 -4.43251953 6.0236084 -4.45410156 5.17651367 C-4 3 -4 3 -1.97558594 1.20825195 C-0.9976709 0.61016724 -0.9976709 0.61016724 0 0 Z " fill="#AD87F8" transform="translate(282,77)"/>
<path d="M0 0 C1.98 0 3.96 0 6 0 C6 0.66 6 1.32 6 2 C6.99 2 7.98 2 9 2 C8.67 2.99 8.34 3.98 8 5 C4.7 5.33 1.4 5.66 -2 6 C1 4 1 4 4 4 C4 3.34 4 2.68 4 2 C2.68 2 1.36 2 0 2 C0 1.34 0 0.68 0 0 Z " fill="#535B66" transform="translate(448,301)"/>
<path d="M0 0 C0.99 0 1.98 0 3 0 C3 1.98 3 3.96 3 6 C0.69 5.67 -1.62 5.34 -4 5 C-2.1875 2.5 -2.1875 2.5 0 0 Z " fill="#26303E" transform="translate(539,280)"/>
<path d="M0 0 C0.66 0 1.32 0 2 0 C2 0.66 2 1.32 2 2 C3.65 1.67 5.3 1.34 7 1 C6.67 1.99 6.34 2.98 6 4 C8.97 4.495 8.97 4.495 12 5 C12 5.33 12 5.66 12 6 C9.36 6 6.72 6 4 6 C4 5.34 4 4.68 4 4 C3.01 3.67 2.02 3.34 1 3 C0.67 2.01 0.34 1.02 0 0 Z " fill="#58606A" transform="translate(119,279)"/>
<path d="M0 0 C3.3 0 6.6 0 10 0 C9.67 0.99 9.34 1.98 9 3 C6.03 2.67 3.06 2.34 0 2 C0 1.34 0 0.68 0 0 Z " fill="#AEB2B7" transform="translate(486,278)"/>
<path d="M0 0 C-3.465 2.97 -3.465 2.97 -7 6 C-6.75 3.625 -6.75 3.625 -6 1 C-2.69333333 -1.34666667 -2.69333333 -1.34666667 0 0 Z " fill="#4A535E" transform="translate(284,271)"/>
<path d="M0 0 C1.65 0 3.3 0 5 0 C4.01 1.485 4.01 1.485 3 3 C5.97 3.495 5.97 3.495 9 4 C9 4.33 9 4.66 9 5 C6.36 5 3.72 5 1 5 C0.67 3.35 0.34 1.7 0 0 Z " fill="#565E69" transform="translate(105,280)"/>
</svg>
