<?xml version="1.0" encoding="UTF-8"?>
<svg version="1.1" xmlns="http://www.w3.org/2000/svg" width="512" height="206">
<path d="M0 0 C4.62067142 2.87508444 4.62067142 2.87508444 5.63061523 5.87011719 C6.01230117 8.07092889 6.1136036 10.09549653 6.09765625 12.328125 C6.09443359 13.12734375 6.09121094 13.9265625 6.08789062 14.75 C6.07951172 15.575 6.07113281 16.4 6.0625 17.25 C6.05798828 18.09046875 6.05347656 18.9309375 6.04882812 19.796875 C6.03707961 21.86461401 6.01914522 23.93231624 6 26 C6.67579102 25.97905273 7.35158203 25.95810547 8.04785156 25.93652344 C11.11508254 25.85328357 14.18207582 25.80131534 17.25 25.75 C18.31347656 25.71648437 19.37695312 25.68296875 20.47265625 25.6484375 C21.49746094 25.63554688 22.52226563 25.62265625 23.578125 25.609375 C24.99206543 25.5779541 24.99206543 25.5779541 26.43457031 25.54589844 C29.7896131 26.13976783 30.96777785 27.31068074 33 30 C33 33.5625 33 33.5625 32 37 C29.84607516 39.10337601 28.52487599 39.92773371 25.52636719 40.34057617 C24.17526855 40.3170105 24.17526855 40.3170105 22.796875 40.29296875 C21.32734375 40.2784668 21.32734375 40.2784668 19.828125 40.26367188 C18.30445313 40.2259668 18.30445313 40.2259668 16.75 40.1875 C15.71875 40.17396484 14.6875 40.16042969 13.625 40.14648438 C11.08280208 40.11117607 8.54166777 40.06186036 6 40 C6.06699405 47.59919512 6.156799 55.19787553 6.26245117 62.79663086 C6.29570111 65.38152954 6.32373277 67.96650084 6.34643555 70.55151367 C6.37997927 74.26773009 6.43229728 77.98328101 6.48828125 81.69921875 C6.49467117 82.85459641 6.5010611 84.00997406 6.50764465 85.20036316 C6.52743881 86.28110611 6.54723297 87.36184906 6.56762695 88.4753418 C6.57873001 89.42354294 6.58983307 90.37174408 6.60127258 91.34867859 C7.07632379 94.50751187 8.15808744 96.41163976 10 99 C14.23466577 101.8992525 19.06692471 101.63903977 24 101 C27.82159835 99.05445902 31.0958467 96.92031562 33 93 C32.77756198 89.88586767 32.29523754 87.07309834 31.46801758 84.06640625 C28.28769555 70.02454626 31.09497377 55.40973706 38.1875 43.1875 C44.49673555 33.83149686 53.90232182 28.01589466 64.78540039 25.41235352 C68.58341966 24.70517079 72.33209125 24.61750841 76.1875 24.625 C77.0139502 24.62588623 77.84040039 24.62677246 78.69189453 24.62768555 C87.86012754 24.80300509 96.28918353 26.8095034 104 32 C105.52491998 35.04983996 105.23562548 37.6423369 105 41 C103.46533561 43.07968539 102.57038001 43.88524899 100.01953125 44.3984375 C96.05528596 44.35633932 92.80455364 44.10260183 89.125 42.5625 C81.51349231 39.37840316 73.71746617 39.29888684 66 42 C58.4239983 45.52675941 53.87000948 50.32002125 50.625 58.0625 C47.44507554 67.74862974 47.76781949 78.66795344 52 88 C54.03699905 90.90495532 54.03699905 90.90495532 56 93 C56 93.66 56 94.32 56 95 C56.57878906 95.28746094 57.15757813 95.57492188 57.75390625 95.87109375 C59.16397662 96.57980738 60.56860674 97.29956419 61.96484375 98.03515625 C69.68901179 102.05784179 77.23474811 103.38397679 85.84765625 101.31640625 C96.71941091 97.71242706 101.84202734 91.92533719 107.10430908 81.87976074 C110.07064672 75.65439335 111.9750748 68.93251594 114.0625 62.375 C122.7615226 35.11939745 122.7615226 35.11939745 135.7265625 26.90625 C144.46738728 22.74761971 157.11063194 24.11872279 165.984375 27.05078125 C168.2946952 28.13878088 170.09736181 29.29218533 172 31 C172.98515877 34.61224884 173.41963883 36.90893904 172.0625 40.4375 C168.9142149 42.82256447 165.74828314 42.50457658 162 42 C160.6078125 41.505 160.6078125 41.505 159.1875 41 C154.54806385 39.54449062 149.81904375 39.32300443 145 40 C142.65102647 41.15960628 142.65102647 41.15960628 141 43 C140.27441498 48.45842914 140.27441498 48.45842914 142.41796875 53.33203125 C146.82105389 57.88166385 152.20335592 61.09288043 157.47070312 64.56445312 C165.16310726 69.77135345 172.42057638 75.74442112 175 85 C175.75866245 93.33460161 175.75651938 101.05238911 170.55859375 107.8984375 C164.4599762 114.60550181 156.9961887 117.42771463 148.08984375 118.15625 C139.04135206 118.55037668 128.14064834 116.84234864 121 111 C119.81367135 107.30919977 119.56342796 105.21616497 120.875 101.5625 C124.37681693 98.98763461 127.80722256 99.44516629 132 100 C133.86350573 100.48636178 135.71800681 101.00838244 137.5625 101.5625 C143.66047384 103.36204193 147.96135872 103.3872058 153.875 100.6875 C157.14116822 98.09377818 157.84022732 96.22492389 158.375 92.125 C157.81878709 87.48989242 155.73438323 84.45897842 152.22265625 81.50488281 C150.11820252 79.9703853 147.97961414 78.5070857 145.8125 77.0625 C144.28794587 76.01855592 142.76449892 74.97299301 141.2421875 73.92578125 C140.51225586 73.42643066 139.78232422 72.92708008 139.03027344 72.41259766 C135.22967515 69.76826605 131.59816443 66.91133532 128 64 C127.92523438 64.54785156 127.85046875 65.09570312 127.7734375 65.66015625 C125.08414694 81.87499637 117.1019993 99.72591669 104 110 C91.595104 117.79496843 79.23323164 119.52359174 65 116.8125 C56.91881248 114.94625626 49.61862456 112.32095263 44 106 C43.34 106 42.68 106 42 106 C41.278125 106.9075 40.55625 107.815 39.8125 108.75 C34.28583219 115.48364124 28.0394338 116.82302259 19.6328125 117.8046875 C11.08613457 118.26418631 3.84319938 116.95186385 -3.09375 111.76171875 C-9.26050722 106.06252304 -11.4752541 99.04571836 -12.18924904 90.81961823 C-12.26363766 88.5986476 -12.28186456 86.38527957 -12.2746582 84.16308594 C-12.27976913 83.33099609 -12.28488007 82.49890625 -12.29014587 81.64160156 C-12.30391825 78.92245062 -12.3030956 76.20355641 -12.30078125 73.484375 C-12.30467279 71.58107409 -12.3090084 69.67777404 -12.31376648 67.7744751 C-12.32120042 63.80046765 -12.32095637 59.82654912 -12.31567383 55.85253906 C-12.30985929 50.76267566 -12.3268716 45.67317379 -12.3500185 40.58337021 C-12.36474718 36.65942259 -12.36562913 32.73556247 -12.36250877 28.8115921 C-12.36302164 26.93452484 -12.36825293 25.05745263 -12.37832069 23.18041229 C-12.39066158 20.55981289 -12.38390955 17.93992401 -12.37231445 15.31933594 C-12.37995819 14.54728821 -12.38760193 13.77524048 -12.39547729 12.97979736 C-12.35143387 8.47465807 -11.81639018 5.56237839 -9 2 C-5.48746854 -0.34168764 -4.13530644 -0.49623677 0 0 Z " fill="#DB1F73" transform="translate(56,44)"/>
<path d="M0 0 C4.62067142 2.87508444 4.62067142 2.87508444 5.63061523 5.87011719 C6.01230117 8.07092889 6.1136036 10.09549653 6.09765625 12.328125 C6.09443359 13.12734375 6.09121094 13.9265625 6.08789062 14.75 C6.07951172 15.575 6.07113281 16.4 6.0625 17.25 C6.05798828 18.09046875 6.05347656 18.9309375 6.04882812 19.796875 C6.03707961 21.86461401 6.01914522 23.93231624 6 26 C6.67579102 25.97905273 7.35158203 25.95810547 8.04785156 25.93652344 C11.11508254 25.85328357 14.18207582 25.80131534 17.25 25.75 C18.31347656 25.71648437 19.37695312 25.68296875 20.47265625 25.6484375 C21.49746094 25.63554688 22.52226563 25.62265625 23.578125 25.609375 C24.99206543 25.5779541 24.99206543 25.5779541 26.43457031 25.54589844 C29.7896131 26.13976783 30.96777785 27.31068074 33 30 C33 33.5625 33 33.5625 32 37 C29.84607516 39.10337601 28.52487599 39.92773371 25.52636719 40.34057617 C24.17526855 40.3170105 24.17526855 40.3170105 22.796875 40.29296875 C21.32734375 40.2784668 21.32734375 40.2784668 19.828125 40.26367188 C18.30445313 40.2259668 18.30445313 40.2259668 16.75 40.1875 C15.71875 40.17396484 14.6875 40.16042969 13.625 40.14648438 C11.08280208 40.11117607 8.54166777 40.06186036 6 40 C6.06699405 47.59919512 6.156799 55.19787553 6.26245117 62.79663086 C6.29570111 65.38152954 6.32373277 67.96650084 6.34643555 70.55151367 C6.37997927 74.26773009 6.43229728 77.98328101 6.48828125 81.69921875 C6.49467117 82.85459641 6.5010611 84.00997406 6.50764465 85.20036316 C6.52743881 86.28110611 6.54723297 87.36184906 6.56762695 88.4753418 C6.57873001 89.42354294 6.58983307 90.37174408 6.60127258 91.34867859 C7.07632379 94.50751187 8.15808744 96.41163976 10 99 C14.23363406 101.89854614 19.06781029 101.64095017 24 101 C27.35026165 99.37794216 27.35026165 99.37794216 30 97 C30.94875 96.2575 31.8975 95.515 32.875 94.75 C33.926875 93.88375 33.926875 93.88375 35 93 C38.21880117 96.7935871 40.6163187 100.65829477 43 105 C37.36085201 112.35361422 32.49181711 115.76937688 23.3125 117.375 C13.53899749 118.51627949 4.96081212 117.78804874 -3.09375 111.76171875 C-9.26050722 106.06252304 -11.4752541 99.04571836 -12.18924904 90.81961823 C-12.26363766 88.5986476 -12.28186456 86.38527957 -12.2746582 84.16308594 C-12.27976913 83.33099609 -12.28488007 82.49890625 -12.29014587 81.64160156 C-12.30391825 78.92245062 -12.3030956 76.20355641 -12.30078125 73.484375 C-12.30467279 71.58107409 -12.3090084 69.67777404 -12.31376648 67.7744751 C-12.32120042 63.80046765 -12.32095637 59.82654912 -12.31567383 55.85253906 C-12.30985929 50.76267566 -12.3268716 45.67317379 -12.3500185 40.58337021 C-12.36474718 36.65942259 -12.36562913 32.73556247 -12.36250877 28.8115921 C-12.36302164 26.93452484 -12.36825293 25.05745263 -12.37832069 23.18041229 C-12.39066158 20.55981289 -12.38390955 17.93992401 -12.37231445 15.31933594 C-12.37995819 14.54728821 -12.38760193 13.77524048 -12.39547729 12.97979736 C-12.35143387 8.47465807 -11.81639018 5.56237839 -9 2 C-5.48746854 -0.34168764 -4.13530644 -0.49623677 0 0 Z " fill="#E71E59" transform="translate(56,44)"/>
<path d="M0 0 C0.8264502 0.00088623 1.65290039 0.00177246 2.50439453 0.00268555 C11.67262754 0.17800509 20.10168353 2.1845034 27.8125 7.375 C29.33741998 10.42483996 29.04812548 13.0173369 28.8125 16.375 C27.27783561 18.45468539 26.38288001 19.26024899 23.83203125 19.7734375 C19.86778596 19.73133932 16.61705364 19.47760183 12.9375 17.9375 C4.31549105 14.35211014 -4.31955726 15.20299663 -13.1875 17.375 C-14.49074219 17.68630859 -14.49074219 17.68630859 -15.8203125 18.00390625 C-26.21962148 20.78659596 -35.66527367 26.98034977 -41.38671875 36.3359375 C-42.82805477 39.5560931 -43.66022847 42.89500789 -44.1875 46.375 C-44.5175 46.375 -44.8475 46.375 -45.1875 46.375 C-46.17379056 33.99157407 -41.91149428 23.01478814 -34.1875 13.375 C-24.53938234 4.03923148 -13.28317944 -0.02581105 0 0 Z " fill="#FC7103" transform="translate(132.1875,68.625)"/>
<path d="M0 0 C1.79296875 1.609375 1.79296875 1.609375 2.73046875 5.046875 C2.79296875 8.609375 2.79296875 8.609375 1.85546875 11.046875 C-1.29281635 13.43193947 -4.45874811 13.11395158 -8.20703125 12.609375 C-9.13515625 12.279375 -10.06328125 11.949375 -11.01953125 11.609375 C-15.6589674 10.15386562 -20.3879875 9.93237943 -25.20703125 10.609375 C-27.55476919 11.77324339 -27.55476919 11.77324339 -29.20703125 13.609375 C-29.81817778 18.26936726 -29.83074658 21.16443159 -27.20703125 25.109375 C-26.54703125 25.934375 -25.88703125 26.759375 -25.20703125 27.609375 C-32.32573015 24.47905428 -38.32399069 17.7543016 -41.20703125 10.609375 C-41.63518085 7.30406012 -41.50804807 4.69712159 -40.20703125 1.609375 C-30.56634014 -7.61595754 -10.7929162 -6.80049233 0 0 Z " fill="#F8901B" transform="translate(226.20703125,73.390625)"/>
<path d="M0 0 C4.62067142 2.87508444 4.62067142 2.87508444 5.63061523 5.87011719 C6.01230117 8.07092889 6.1136036 10.09549653 6.09765625 12.328125 C6.09443359 13.12734375 6.09121094 13.9265625 6.08789062 14.75 C6.07951172 15.575 6.07113281 16.4 6.0625 17.25 C6.05798828 18.09046875 6.05347656 18.9309375 6.04882812 19.796875 C6.03707961 21.86461401 6.01914522 23.93231624 6 26 C4.02652995 26.45979818 2.0530599 26.91959635 0.07958984 27.37939453 C-4.0048549 28.59830255 -7.15020084 30.60941956 -9.375 34.25 C-9.58125 34.8275 -9.7875 35.405 -10 36 C-10.66 36 -11.32 36 -12 36 C-12.0744389 31.9615943 -12.12873729 27.92345707 -12.16479492 23.88452148 C-12.17983432 22.51205483 -12.20027133 21.13963586 -12.22631836 19.76733398 C-12.26291221 17.78911344 -12.27816698 15.81053486 -12.29296875 13.83203125 C-12.31653442 12.04889526 -12.31653442 12.04889526 -12.34057617 10.22973633 C-11.96374532 6.65619131 -11.15919441 4.84323932 -9 2 C-5.48746854 -0.34168764 -4.13530644 -0.49623677 0 0 Z " fill="#FAA215" transform="translate(56,44)"/>
<path d="M0 0 C3.63 0 7.26 0 11 0 C12.33964547 3.26837611 13.6719259 6.53942548 15 9.8125 C15.3815625 10.74126953 15.763125 11.67003906 16.15625 12.62695312 C16.5171875 13.51962891 16.878125 14.41230469 17.25 15.33203125 C17.58515625 16.15421143 17.9203125 16.9763916 18.265625 17.82348633 C19 20 19 20 19 23 C15.7 23 12.4 23 9 23 C8.01 20.03 7.02 17.06 6 14 C4.00902154 16.98646769 3.05875074 19.59687262 2 23 C-1.3 23 -4.6 23 -8 23 C-7.26905294 17.94514073 -5.31619096 13.40096821 -3.4375 8.6875 C-3.10814453 7.85154297 -2.77878906 7.01558594 -2.43945312 6.15429688 C-1.63002273 4.10139369 -0.81551333 2.05049435 0 0 Z " fill="#007CC5" transform="translate(326,71)"/>
<path d="M0 0 C3.63 0 7.26 0 11 0 C11.48919922 1.17755859 11.48919922 1.17755859 11.98828125 2.37890625 C12.64376953 3.95478516 12.64376953 3.95478516 13.3125 5.5625 C13.993125 7.20412109 13.993125 7.20412109 14.6875 8.87890625 C15.6940729 11.27251264 16.73714717 13.63732576 17.8125 16 C19 19 19 19 19 23 C16.03 23 13.06 23 10 23 C8.68 19.7 7.36 16.4 6 13 C4.68 16.3 3.36 19.6 2 23 C-1.3 23 -4.6 23 -8 23 C-5.77150394 15.14161917 -3.01037052 7.59136913 0 0 Z " fill="#007CC5" transform="translate(282,71)"/>
<path d="M0 0 C7.59 0 15.18 0 23 0 C23 2.31 23 4.62 23 7 C21.02 7 19.04 7 17 7 C17 12.28 17 17.56 17 23 C13.7 23 10.4 23 7 23 C7 17.72 7 12.44 7 7 C4.69 7 2.38 7 0 7 C0 4.69 0 2.38 0 0 Z " fill="#007DC5" transform="translate(298,71)"/>
<path d="M0 0 C1.98 0 3.96 0 6 0 C8.1171875 2.40625 8.1171875 2.40625 9.875 5.5 C10.47054688 6.5209375 11.06609375 7.541875 11.6796875 8.59375 C12.11539062 9.3878125 12.55109375 10.181875 13 11 C13.33 7.37 13.66 3.74 14 0 C15.65 0 17.3 0 19 0 C19 7.59 19 15.18 19 23 C17.02 23 15.04 23 13 23 C10.8828125 20.375 10.8828125 20.375 9.125 17 C8.52945312 15.88625 7.93390625 14.7725 7.3203125 13.625 C6.88460938 12.75875 6.44890625 11.8925 6 11 C5.67 14.96 5.34 18.92 5 23 C3.35 23 1.7 23 0 23 C0 15.41 0 7.82 0 0 Z " fill="#007CC5" transform="translate(408,104)"/>
<path d="M0 0 C7.26 0 14.52 0 22 0 C22 2.31 22 4.62 22 7 C20.02 7 18.04 7 16 7 C16 12.28 16 17.56 16 23 C12.7 23 9.4 23 6 23 C6 17.72 6 12.44 6 7 C4.02 7 2.04 7 0 7 C0 4.69 0 2.38 0 0 Z " fill="#007CC5" transform="translate(255,71)"/>
<path d="M0 0 C2.75569447 2.18159145 4.43588747 3.87177494 6 7 C6.43281664 11.23660902 6.44858706 14.91394711 4.8125 18.875 C2.6014525 21.46726259 1.19989543 22.74786701 -2 24 C-6.55768279 24.27721148 -9.89197188 23.88642249 -13.5 21 C-15.5017624 16.99647519 -16.20510863 13.47294588 -16 9 C-14.85328988 5.74092914 -13.61764933 3.7126723 -11.375 1.125 C-7.62762132 -0.65007411 -4.05632217 -0.79535729 0 0 Z M-8.6875 5.125 C-10.56158189 7.80225984 -10.87210994 9.73880349 -11 13 C-9.49333658 17.30996407 -9.49333658 17.30996407 -6.0625 20.0625 C-3.91962828 20.12345759 -3.91962828 20.12345759 -1.8125 19.0625 C0.5013923 16.42945014 0.894483 14.45500503 1.16796875 11.0078125 C0.89022865 7.6878494 -0.54503455 6.12321336 -3 4 C-6.78332024 3.63019987 -6.78332024 3.63019987 -8.6875 5.125 Z " fill="#007BC5" transform="translate(289,104)"/>
<path d="M0 0 C1.65 0 3.3 0 5 0 C6.73046875 1.86328125 6.73046875 1.86328125 8.1875 4.3125 C8.67605469 5.11300781 9.16460937 5.91351563 9.66796875 6.73828125 C10.10753906 7.48464844 10.54710937 8.23101562 11 9 C11.99 10.485 11.99 10.485 13 12 C13.33 8.04 13.66 4.08 14 0 C15.32 0 16.64 0 18 0 C18 7.59 18 15.18 18 23 C16.35 23 14.7 23 13 23 C11.26953125 21.171875 11.26953125 21.171875 9.8125 18.75 C9.32394531 17.96109375 8.83539063 17.1721875 8.33203125 16.359375 C7.15549258 14.27541794 6.07024486 12.14048972 5 10 C4.67 14.29 4.34 18.58 4 23 C2.68 23 1.36 23 0 23 C0 15.41 0 7.82 0 0 Z " fill="#007CC5" transform="translate(298,104)"/>
<path d="M0 0 C11.35012328 -0.49348362 11.35012328 -0.49348362 14.40234375 1.82421875 C16 4 16 4 15.8125 7.0625 C15.26084603 9.05694126 14.65437895 11.03686316 14 13 C14.64097297 15.00838196 15.30899447 17.00827818 16 19 C16 20.32 16 21.64 16 23 C14.35 23 12.7 23 11 23 C10.81824219 22.43410156 10.63648438 21.86820313 10.44921875 21.28515625 C10.19785156 20.55167969 9.94648438 19.81820312 9.6875 19.0625 C9.44386719 18.33160156 9.20023437 17.60070312 8.94921875 16.84765625 C8.08759559 14.64067976 8.08759559 14.64067976 5 14 C5 16.97 5 19.94 5 23 C3.35 23 1.7 23 0 23 C0 15.41 0 7.82 0 0 Z M5 4 C5 5.98 5 7.96 5 10 C6.65 9.67 8.3 9.34 10 9 C10.33 8.01 10.66 7.02 11 6 C10.34 5.34 9.68 4.68 9 4 C7.68 4 6.36 4 5 4 Z " fill="#007CC5" transform="translate(290,138)"/>
<path d="M0 0 C1.65 0 3.3 0 5 0 C5.03738281 1.12019531 5.07476562 2.24039063 5.11328125 3.39453125 C5.17894257 4.8672209 5.24538986 6.33987566 5.3125 7.8125 C5.33505859 8.55048828 5.35761719 9.28847656 5.38085938 10.04882812 C5.55557955 14.33107039 5.55557955 14.33107039 7.54296875 18.01171875 C8.02378906 18.33785156 8.50460937 18.66398437 9 19 C9.99 18.67 10.98 18.34 12 18 C13.18695553 14.43913342 13.35095418 11.02668976 13.5625 7.3125 C13.60568359 6.61060547 13.64886719 5.90871094 13.69335938 5.18554688 C13.7991736 3.45724794 13.90006581 1.7286489 14 0 C15.65 0 17.3 0 19 0 C19.08152344 2.54232342 19.14073716 5.08199202 19.1875 7.625 C19.21263672 8.33785156 19.23777344 9.05070312 19.26367188 9.78515625 C19.33005973 14.60934007 18.62602648 17.79835764 16 22 C12.85350943 24.38699285 9.85886154 24.47251366 6 24 C2.66238955 21.84909549 1.26529067 20.79587201 0 17 C-0.07973476 15.66474283 -0.10771338 14.32587917 -0.09765625 12.98828125 C-0.09443359 12.23095703 -0.09121094 11.47363281 -0.08789062 10.69335938 C-0.07951172 9.90767578 -0.07113281 9.12199219 -0.0625 8.3125 C-0.05798828 7.51521484 -0.05347656 6.71792969 -0.04882812 5.89648438 C-0.0370585 3.93095743 -0.01912348 1.96546915 0 0 Z " fill="#007CC5" transform="translate(337,104)"/>
<path d="M0 0 C1.4540625 0.0309375 1.4540625 0.0309375 2.9375 0.0625 C4.11180074 3.3306432 5.27561256 6.60242515 6.4375 9.875 C6.77136719 10.80376953 7.10523438 11.73253906 7.44921875 12.68945312 C7.76503906 13.58212891 8.08085937 14.47480469 8.40625 15.39453125 C8.69951172 16.21671143 8.99277344 17.0388916 9.29492188 17.88598633 C9.9375 20.0625 9.9375 20.0625 9.9375 23.0625 C8.2875 23.0625 6.6375 23.0625 4.9375 23.0625 C4.2775 21.0825 3.6175 19.1025 2.9375 17.0625 C-0.00977535 17.16419161 -0.00977535 17.16419161 -3.0625 18.0625 C-4.51541273 20.52505685 -4.51541273 20.52505685 -5.0625 23.0625 C-6.7125 23.0625 -8.3625 23.0625 -10.0625 23.0625 C-5.3942124 0.11008597 -5.3942124 0.11008597 0 0 Z M-1.0625 7.0625 C-1.3925 9.0425 -1.7225 11.0225 -2.0625 13.0625 C-0.7425 12.7325 0.5775 12.4025 1.9375 12.0625 C1.2775 10.4125 0.6175 8.7625 -0.0625 7.0625 C-0.3925 7.0625 -0.7225 7.0625 -1.0625 7.0625 Z " fill="#007BC5" transform="translate(396.0625,103.9375)"/>
<path d="M0 0 C1.65 0 3.3 0 5 0 C6.86540627 4.70406799 8.36843005 8.94744036 9 14 C9.66 14 10.32 14 11 14 C11.12117188 13.32453125 11.24234375 12.6490625 11.3671875 11.953125 C11.53476562 11.06109375 11.70234375 10.1690625 11.875 9.25 C12.03742188 8.36828125 12.19984375 7.4865625 12.3671875 6.578125 C12.96796264 4.13052256 13.77997117 2.19400143 15 0 C16.65 0 18.3 0 20 0 C18.48526781 7.98676972 15.83197448 15.40122878 13 23 C11.02 23 9.04 23 7 23 C5.82569926 19.7318568 4.66188744 16.46007485 3.5 13.1875 C3.16613281 12.25873047 2.83226562 11.32996094 2.48828125 10.37304688 C2.17246094 9.48037109 1.85664063 8.58769531 1.53125 7.66796875 C1.09135742 6.43469849 1.09135742 6.43469849 0.64257812 5.17651367 C0 3 0 3 0 0 Z " fill="#007CC5" transform="translate(307,138)"/>
<path d="M0 0 C0.79921875 0.11085937 1.5984375 0.22171875 2.421875 0.3359375 C3.32679688 0.47902344 3.32679688 0.47902344 4.25 0.625 C3.92 2.275 3.59 3.925 3.25 5.625 C0.61 5.295 -2.03 4.965 -4.75 4.625 C-3.56400026 8.18299922 -2.92441588 8.31075727 0.25 10 C4.09960619 12.30838145 4.09960619 12.30838145 5.4375 15.125 C5.19674187 18.33510834 4.16802652 20.06763131 2.25 22.625 C-0.27475462 23.88737731 -2.06200466 23.72356404 -4.875 23.6875 C-5.78507812 23.67847656 -6.69515625 23.66945312 -7.6328125 23.66015625 C-8.68082031 23.64275391 -8.68082031 23.64275391 -9.75 23.625 C-10.08 22.305 -10.41 20.985 -10.75 19.625 C-7.67677456 18.71441469 -4.94902639 18.53613816 -1.75 18.625 C-1.75 17.635 -1.75 16.645 -1.75 15.625 C-3.49648543 14.33517655 -3.49648543 14.33517655 -5.6875 13.25 C-9.61339613 10.93615325 -9.61339613 10.93615325 -10.875 8.0625 C-10.73270062 5.28766215 -10.38073179 3.87696295 -8.75 1.625 C-5.6274887 -0.36329494 -3.62627115 -0.53327517 0 0 Z " fill="#007BC5" transform="translate(383.75,137.375)"/>
<path d="M0 0 C1.22589844 0.01353516 1.22589844 0.01353516 2.4765625 0.02734375 C3.41628906 0.04474609 3.41628906 0.04474609 4.375 0.0625 C4.705 0.7225 5.035 1.3825 5.375 2.0625 C5.045 3.0525 4.715 4.0425 4.375 5.0625 C2.065 5.0625 -0.245 5.0625 -2.625 5.0625 C-2.955 6.0525 -3.285 7.0425 -3.625 8.0625 C-2.696875 8.330625 -1.76875 8.59875 -0.8125 8.875 C3.57972441 10.5113189 3.57972441 10.5113189 5.375 13.0625 C6.30652267 15.857068 6.57470932 17.42706125 5.6875 20.25 C4.04065308 22.52421717 3.05480529 23.19337396 0.375 24.0625 C-3.34316101 24.25819268 -6.08529282 24.24240239 -9.625 23.0625 C-9.295 21.4125 -8.965 19.7625 -8.625 18.0625 C-5.655 18.3925 -2.685 18.7225 0.375 19.0625 C0.375 17.7425 0.375 16.4225 0.375 15.0625 C-0.553125 14.794375 -1.48125 14.52625 -2.4375 14.25 C-6.18972991 12.85211042 -7.81822447 11.79130471 -9.5 8.1875 C-9.68221664 5.08981712 -8.41686662 3.51802093 -6.625 1.0625 C-4.21954362 -0.14022819 -2.67503047 -0.03821472 0 0 Z " fill="#007AC6" transform="translate(328.625,103.9375)"/>
<path d="M0 0 C4.62 0 9.24 0 14 0 C14 1.32 14 2.64 14 4 C11.03 4 8.06 4 5 4 C5 5.65 5 7.3 5 9 C7.64 9 10.28 9 13 9 C13 10.32 13 11.64 13 13 C10.36 13 7.72 13 5 13 C5 14.98 5 16.96 5 19 C7.97 19 10.94 19 14 19 C14 20.32 14 21.64 14 23 C9.38 23 4.76 23 0 23 C0 15.41 0 7.82 0 0 Z " fill="#007CC4" transform="translate(357,138)"/>
<path d="M0 0 C4.62 0 9.24 0 14 0 C14 1.32 14 2.64 14 4 C11.03 4 8.06 4 5 4 C5 5.65 5 7.3 5 9 C7.64 9 10.28 9 13 9 C13 10.32 13 11.64 13 13 C10.36 13 7.72 13 5 13 C5 14.98 5 16.96 5 19 C7.97 19 10.94 19 14 19 C14 20.32 14 21.64 14 23 C9.38 23 4.76 23 0 23 C0 15.41 0 7.82 0 0 Z " fill="#007CC4" transform="translate(273,138)"/>
<path d="M0 0 C-0.33 1.65 -0.66 3.3 -1 5 C-3.31 5 -5.62 5 -8 5 C-8 5.66 -8 6.32 -8 7 C-6.24325879 8.3280064 -6.24325879 8.3280064 -4.0625 9.5625 C-0.05652174 11.94347826 -0.05652174 11.94347826 1 13 C1.37881436 16.40932922 1.36000519 18.37817286 -0.375 21.375 C-4.4047876 23.86963042 -8.38066514 23.31735888 -13 23 C-13.33 21.35 -13.66 19.7 -14 18 C-11.36 18 -8.72 18 -6 18 C-5.67 17.01 -5.34 16.02 -5 15 C-5.56589844 14.65066406 -6.13179688 14.30132812 -6.71484375 13.94140625 C-7.44832031 13.48636719 -8.18179687 13.03132812 -8.9375 12.5625 C-9.66839844 12.11003906 -10.39929688 11.65757812 -11.15234375 11.19140625 C-13 10 -13 10 -14 9 C-14.46580407 3.64325323 -14.46580407 3.64325323 -12.6875 1.1875 C-8.41615148 -1.81826378 -4.85368649 -0.71611768 0 0 Z " fill="#007BC5" transform="translate(269,138)"/>
<path d="M0 0 C-0.33 1.32 -0.66 2.64 -1 4 C-2.06541016 4.18175781 -2.06541016 4.18175781 -3.15234375 4.3671875 C-4.07144531 4.53476563 -4.99054688 4.70234375 -5.9375 4.875 C-6.85402344 5.03742188 -7.77054687 5.19984375 -8.71484375 5.3671875 C-9.46894531 5.57601562 -10.22304688 5.78484375 -11 6 C-12.20272819 8.40545638 -12.10071472 9.94996953 -12.0625 12.625 C-12.05347656 13.44226563 -12.04445313 14.25953125 -12.03515625 15.1015625 C-12.02355469 15.72804687 -12.01195312 16.35453125 -12 17 C-10.54182203 17.16802051 -9.0834516 17.33437143 -7.625 17.5 C-6.40683594 17.63921875 -6.40683594 17.63921875 -5.1640625 17.78125 C-3.03087175 18.03352351 -3.03087175 18.03352351 -1 18 C-1 19.65 -1 21.3 -1 23 C-10.87061289 23.62231535 -10.87061289 23.62231535 -15.0625 21.3125 C-18.19280283 17.57633211 -19.23917718 14.84355654 -18.875 10 C-18.23790894 6.07374117 -16.93649603 3.77335736 -14 1 C-9.47759901 -1.84265205 -5.02554503 -0.81021859 0 0 Z " fill="#007BC5" transform="translate(355,138)"/>
<path d="M0 0 C0.91007812 0.00902344 1.82015625 0.01804687 2.7578125 0.02734375 C3.45648438 0.03894531 4.15515625 0.05054687 4.875 0.0625 C5.205 1.3825 5.535 2.7025 5.875 4.0625 C2.875 5.0625 2.875 5.0625 -0.6875 5.4375 C-2.3890625 5.746875 -2.3890625 5.746875 -4.125 6.0625 C-6.43782587 9.53173881 -6.54978586 10.98455575 -6.125 15.0625 C-5.23438785 17.03828739 -5.23438785 17.03828739 -3.125 18.0625 C-0.44384069 18.60190483 2.1383099 18.83818114 4.875 19.0625 C5.205 20.3825 5.535 21.7025 5.875 23.0625 C1.35547673 24.56900776 -2.48459378 24.80813919 -6.875 22.8125 C-9.87827481 20.47661959 -11.83962966 18.50362023 -12.59375 14.6953125 C-12.64928988 10.23823753 -12.65516696 7.0498046 -9.75 3.5 C-6.20371539 0.20702144 -4.71339124 -0.06042809 0 0 Z " fill="#007BC5" transform="translate(442.125,103.9375)"/>
<path d="M0 0 C0.91007812 0.00902344 1.82015625 0.01804687 2.7578125 0.02734375 C3.45648438 0.03894531 4.15515625 0.05054687 4.875 0.0625 C5.205 1.0525 5.535 2.0425 5.875 3.0625 C5.545 3.7225 5.215 4.3825 4.875 5.0625 C3.8025 4.98 2.73 4.8975 1.625 4.8125 C-2.09098456 4.74752084 -2.09098456 4.74752084 -4.5625 6.6875 C-6.57314771 9.74368452 -6.66020313 11.46899325 -6.125 15.0625 C-5.23438785 17.03828739 -5.23438785 17.03828739 -3.125 18.0625 C-0.44384069 18.60190483 2.1383099 18.83818114 4.875 19.0625 C5.205 20.3825 5.535 21.7025 5.875 23.0625 C1.35547673 24.56900776 -2.48459378 24.80813919 -6.875 22.8125 C-9.87827481 20.47661959 -11.83962966 18.50362023 -12.59375 14.6953125 C-12.64928988 10.23823753 -12.65516696 7.0498046 -9.75 3.5 C-6.20371539 0.20702144 -4.71339124 -0.06042809 0 0 Z " fill="#007CC5" transform="translate(267.125,103.9375)"/>
<path d="M0 0 C1.98 0 3.96 0 6 0 C9 5.75 9 5.75 9 8 C9.66 8 10.32 8 11 8 C11.309375 7.05125 11.61875 6.1025 11.9375 5.125 C13 2 13 2 14 0 C15.98 0 17.96 0 20 0 C18.81191348 3.34824382 17.26964728 6.22642747 15.4375 9.25 C12.78356233 13.89439093 12.25286154 17.68990773 12 23 C10.35 23 8.7 23 7 23 C6.99742187 22.42894531 6.99484375 21.85789062 6.9921875 21.26953125 C6.61128657 13.28330837 3.61032489 7.0439978 0 0 Z " fill="#007BC5" transform="translate(448,104)"/>
<path d="M0 0 C5.94 0 11.88 0 18 0 C18 1.65 18 3.3 18 5 C16.02 5 14.04 5 12 5 C12 10.94 12 16.88 12 23 C10.35 23 8.7 23 7 23 C7 17.06 7 11.12 7 5 C4.69 5 2.38 5 0 5 C0 3.35 0 1.7 0 0 Z " fill="#007CC4" transform="translate(370,104)"/>
<path d="M0 0 C1.65 0 3.3 0 5 0 C5 6.27 5 12.54 5 19 C8.3 19 11.6 19 15 19 C15 20.32 15 21.64 15 23 C10.05 23 5.1 23 0 23 C0 15.41 0 7.82 0 0 Z " fill="#007CC4" transform="translate(359,104)"/>
<path d="M0 0 C1.65 0 3.3 0 5 0 C5 7.59 5 15.18 5 23 C3.35 23 1.7 23 0 23 C0 15.41 0 7.82 0 0 Z " fill="#007DC5" transform="translate(329,138)"/>
</svg>
