<?xml version="1.0" encoding="UTF-8"?>
<svg version="1.1" xmlns="http://www.w3.org/2000/svg" width="256" height="202">
<path d="M0 0 C2.97 0 5.94 0 9 0 C10.65 5.28 12.3 10.56 14 16 C16.10850329 12.83724506 17.28830876 9.86528462 18.625 6.3125 C19.07101563 5.13300781 19.51703125 3.95351562 19.9765625 2.73828125 C20.31429688 1.83464844 20.65203125 0.93101563 21 0 C23.97 0 26.94 0 30 0 C31.98 5.61 33.96 11.22 36 17 C37.98 11.39 39.96 5.78 42 0 C45.3 0 48.6 0 52 0 C50.59805455 4.39782131 49.19213659 8.79434454 47.7824707 13.18969727 C47.30317679 14.68608896 46.82498325 16.18283355 46.34790039 17.67993164 C45.66319007 19.82791698 44.9745725 21.97461492 44.28515625 24.12109375 C44.07157974 24.79401962 43.85800323 25.4669455 43.63795471 26.16026306 C42.11387171 30.88612829 42.11387171 30.88612829 41 32 C37.99668982 32.14193337 35.00782866 32.04236378 32 32 C30.02 26.72 28.04 21.44 26 16 C23.35478068 18.64521932 22.55457481 21.66171349 21.375 25.125 C21.14554688 25.78371094 20.91609375 26.44242188 20.6796875 27.12109375 C20.11463758 28.74561226 19.55663723 30.37257971 19 32 C15.7 32 12.4 32 9 32 C7.71074568 28.08804274 6.42923978 24.17364054 5.15478516 20.25683594 C4.72037298 18.92541606 4.28386904 17.59467675 3.84521484 16.26464844 C3.2141938 14.35012201 2.5913702 12.43289991 1.96875 10.515625 C1.59169922 9.36352539 1.21464844 8.21142578 0.82617188 7.02441406 C0 4 0 4 0 0 Z " fill="#341954" transform="translate(0,84)"/>
<path d="M0 0 C4.30914517 3.60765642 5.7625673 6.56401526 6.5625 12.0625 C6.9097502 17.0274391 6.33277638 20.98342519 3.6875 25.25 C0.55075748 28.6858869 -2.70844437 31.04714784 -7.46875 31.41796875 C-8.62890625 31.42763672 -8.62890625 31.42763672 -9.8125 31.4375 C-10.5859375 31.45167969 -11.359375 31.46585938 -12.15625 31.48046875 C-14.3125 31.25 -14.3125 31.25 -17.3125 29.25 C-17.6425 34.86 -17.9725 40.47 -18.3125 46.25 C-21.2825 46.25 -24.2525 46.25 -27.3125 46.25 C-27.3125 30.41 -27.3125 14.57 -27.3125 -1.75 C-24.3425 -1.75 -21.3725 -1.75 -18.3125 -1.75 C-18.3125 -1.09 -18.3125 -0.43 -18.3125 0.25 C-16.8275 -0.5234375 -16.8275 -0.5234375 -15.3125 -1.3125 C-9.69776511 -3.69450874 -5.2882859 -2.79381142 0 0 Z M-18.3125 10.25 C-19.51861778 13.79297097 -19.60060724 15.50431068 -18.25 19 C-15.73869398 21.91635538 -14.10983371 22.65433981 -10.3125 23.25 C-6.96303012 22.49196152 -6.96303012 22.49196152 -4.3125 20.25 C-2.56860483 16.93815182 -2.56860483 16.93815182 -2.3125 13.25 C-3.83648775 9.64055533 -5.02874898 8.43916735 -8.3125 6.25 C-12.92095206 5.52234968 -15.15546853 6.91757789 -18.3125 10.25 Z " fill="#341954" transform="translate(99.3125,85.75)"/>
<path d="M0 0 C4.25005211 3.65702158 6.30033676 6.71222529 7.625 12.1875 C7.96218403 16.71787006 7.05591807 20.43181499 4.6875 24.3125 C1.14511366 28.16400968 -2.17872258 30.92286515 -7.51171875 31.5859375 C-14.09774962 31.85475509 -18.29815693 30.66388906 -23.3125 26.3125 C-26.79673559 22.26629093 -27.44324337 17.53351845 -27.3125 12.3125 C-26.48902011 7.84332272 -24.89442772 4.49248494 -21.5 1.4375 C-14.34608392 -3.33177739 -7.68556783 -3.91528927 0 0 Z M-17.3125 11.3125 C-18.06261367 14.85521642 -18.06261367 14.85521642 -17.3125 18.3125 C-15.5360196 20.72343768 -14.0966608 21.9204196 -11.4375 23.25 C-8.10861261 23.34790845 -6.08636426 22.06124051 -3.3125 20.3125 C-1.32460009 17.80601751 -1.3079768 16.52961338 -1.375 13.3125 C-2.56489453 9.50483749 -3.90419251 8.32649988 -7.3125 6.3125 C-12.25541556 5.200344 -14.42412786 7.43382884 -17.3125 11.3125 Z " fill="#341954" transform="translate(160.3125,85.6875)"/>
<path d="M0 0 C3.43916942 2.73729811 4.64868506 4.18245326 5.47265625 8.4453125 C5.74639799 13.14805522 5.56218938 15.29365949 2.5625 19.0625 C1.716875 19.701875 0.87125 20.34125 0 21 C-0.33 21.33 -0.66 21.66 -1 22 C-5.81539887 22.54396172 -9.75730895 22.72490311 -14 20.25 C-16.39635645 17.554099 -17.89730837 15.4719134 -18.15234375 11.81640625 C-17.7450599 7.54362843 -17.36355542 5.4592279 -14.625 2 C-9.89211985 -1.60600392 -5.5730625 -1.54210836 0 0 Z " fill="#4B5F9B" transform="translate(251,90)"/>
<path d="M0 0 C2.97 0 5.94 0 9 0 C9.33 0.66 9.66 1.32 10 2 C10.99 1.34 11.98 0.68 13 0 C15.48046875 -0.1953125 15.48046875 -0.1953125 18.1875 -0.125 C19.08855469 -0.10695313 19.98960937 -0.08890625 20.91796875 -0.0703125 C21.60503906 -0.04710938 22.29210937 -0.02390625 23 0 C22.39664218 6.39559286 22.39664218 6.39559286 20.6875 9 C19 10 19 10 17.0625 9.5625 C16.381875 9.376875 15.70125 9.19125 15 9 C12.78265886 9.6501992 12.78265886 9.6501992 11 11 C10.11360611 13.65918166 9.82010975 15.48064641 9.68359375 18.23046875 C9.64169922 19.03291016 9.59980469 19.83535156 9.55664062 20.66210938 C9.51732422 21.49548828 9.47800781 22.32886719 9.4375 23.1875 C9.39431641 24.03248047 9.35113281 24.87746094 9.30664062 25.74804688 C9.20068482 27.83184433 9.0998498 29.91590103 9 32 C6.03 32 3.06 32 0 32 C0 21.44 0 10.88 0 0 Z " fill="#351955" transform="translate(110,84)"/>
<path d="M0 0 C2.85809446 2.44128902 4.57563251 4.2503537 5.4765625 7.96484375 C5.75127819 11.73134041 5.15803983 14.36120395 2.9375 17.4375 C-0.56098585 20.48937063 -2.3945905 21 -7 21 C-10.31100612 20.22999858 -11.80643379 19.17787165 -14.3125 16.875 C-16.46689983 13.20454103 -16.94586114 10.10407545 -16 6 C-12.29633382 -0.55916453 -7.12528126 -2.21798638 0 0 Z " fill="#736EA6" transform="translate(247,115)"/>
<path d="M0 0 C2.87029869 1.79393668 4.49131638 2.98263276 6 6 C6.42071592 9.05920574 6.48514117 11.9467746 6 15 C3.81840855 17.75569447 2.12822506 19.43588747 -1 21 C-5.97067782 21.3751455 -9.05151502 21.15878799 -13 18 C-15.56632517 14.57823311 -15.36435051 11.15359579 -15 7 C-11.75358242 0.04339089 -7.16865857 -1.05643389 0 0 Z " fill="#294B87" transform="translate(246,66)"/>
<path d="M0 0 C2.75329021 1.79562405 4.52627461 3.05254922 6 6 C6.50761671 10.39934481 6.25800237 12.54225386 4.0625 16.4375 C0.47942335 19.43558454 -1.29591757 19.84178577 -5.84375 19.5234375 C-9.38438627 18.66393522 -10.9317062 16.90853815 -13 14 C-14.49613936 10.44666901 -14.01323793 9.04110725 -12.8125 5.3125 C-11 2 -11 2 -9.25 0.5625 C-5.98376521 -0.2540587 -3.35661242 -0.35332762 0 0 Z " fill="#99548F" transform="translate(236,138)"/>
<path d="M0 0 C2.09375 0.66796875 2.09375 0.66796875 4.65625 2.79296875 C6.50387096 6.48821066 6.73918785 8.58019573 6.09375 12.66796875 C3.7817249 16.34000861 2.26434045 18.24456369 -1.84375 19.73046875 C-5.7635225 19.65047339 -7.70401236 18.94511552 -10.90625 16.66796875 C-13.16717889 12.92330527 -14.08897274 10.83282624 -13.40625 6.48046875 C-10.13168623 0.34066169 -6.66598983 -1.12210829 0 0 Z " fill="#1E3C6F" transform="translate(235.90625,44.33203125)"/>
<path d="M0 0 C2.97 0 5.94 0 9 0 C9 10.56 9 21.12 9 32 C6.03 32 3.06 32 0 32 C0 21.44 0 10.88 0 0 Z " fill="#341955" transform="translate(56,84)"/>
<path d="M0 0 C2.89357127 2.59679473 3.86089908 4.16539447 4.5 8 C3.86089908 11.83460553 2.89357127 13.40320527 0 16 C-3.83166611 17.11466651 -6.04255961 17.34042325 -9.8125 16 C-12.87247811 13.20230573 -13.44666546 11.0808422 -14 7 C-12.88788593 3.7254419 -11.92766429 1.76200995 -9.25 -0.4375 C-5.82046336 -1.29488416 -3.40138086 -0.91108416 0 0 Z " fill="#AF3277" transform="translate(222,159)"/>
<path d="M0 0 C3 2.0625 3 2.0625 5 5 C5.625 8.5 5.625 8.5 5 12 C2.9375 14.9375 2.9375 14.9375 0 17 C-4.19688661 17.67449963 -6.20197931 17.46840345 -9.875 15.3125 C-12.27057253 12.70555342 -12.91423179 11.51649667 -13 8 C-10.98408832 0.94430913 -7.42185378 -1.51613745 0 0 Z " fill="#184B88" transform="translate(221,26)"/>
<path d="M0 0 C2.88381579 2.58803981 3.8491179 4.19529549 4.5625 8 C3.78698584 12.13607554 2.38677089 13.54999553 -1 16 C-4.5 16.625 -4.5 16.625 -8 16 C-11.38677089 13.54999553 -12.78698584 12.13607554 -13.5625 8 C-12.87642343 4.34092496 -11.57265686 2.64832324 -9 0 C-5.77839187 -1.61080407 -3.42436421 -0.82657067 0 0 Z " fill="#4C609A" transform="translate(223,93)"/>
<path d="M0 0 C2.89575248 2.35279889 2.97594691 3.77550449 3.375 7.5 C2.81662592 12.71149144 2.81662592 12.71149144 0 15 C-2.71638168 15.90546056 -5.14375191 16.23384487 -8 16 C-11.24022761 14.20753366 -12.60765554 13.0200956 -13.9375 9.5625 C-14.03493198 5.5677887 -12.97717955 3.12751487 -10.375 0.125 C-6.79573892 -1.57043946 -3.73610096 -1.1501797 0 0 Z " fill="#3367A3" transform="translate(203,12)"/>
<path d="M0 0 C2.5 1.5625 2.5 1.5625 4 4 C4.59172793 8.06812955 4.37276489 10.27000208 2.5 13.9375 C-0.54144722 16.44669396 -2.24113553 16.69047708 -6.09375 16.41015625 C-8 16 -8 16 -10.5 14.5 C-12.62153384 10.96411027 -12.791013 8.02098277 -12 4 C-9.16275081 -0.72874865 -5.07216919 -1.00819756 0 0 Z " fill="#BD2569" transform="translate(202,174)"/>
<path d="M0 0 C1.9375 1.625 1.9375 1.625 3 4 C2.86321065 7.35133916 2.60270411 9.27675506 0.4375 11.875 C-0.2740625 12.431875 -0.2740625 12.431875 -1 13 C-0.01 14.485 -0.01 14.485 1 16 C0.44444444 21.55555556 0.44444444 21.55555556 -1 23 C-4.4375 23.1875 -4.4375 23.1875 -8 23 C-10 21 -10 21 -10.3125 18.125 C-9.9736202 14.73620199 -9.27183419 13.46115371 -7 11 C-7.66 10.01 -8.32 9.02 -9 8 C-9.35384949 5.16920408 -9.3920891 3.63169911 -7.875 1.1875 C-5.09996189 -0.57002414 -3.21070255 -0.46822746 0 0 Z " fill="#4C609A" transform="translate(201,95)"/>
<path d="M0 0 C2.55078958 2.22165544 2.93332671 3.60829443 3.5 6.9375 C2.81810427 11.11411135 1.36996335 12.50915752 -2 15 C-5.37817188 15.55153827 -7.2135552 15.3613395 -10.3125 13.9375 C-12.79606431 11.08600024 -12.86954315 8.7180202 -13 5 C-12.21270916 2.35183989 -11.47719891 1.37115471 -9.3125 -0.3125 C-5.89259577 -1.32922829 -3.42890226 -0.87281149 0 0 Z " fill="#4C8DCA" transform="translate(180,3)"/>
<path d="M0 0 C2.34168764 3.51253146 2.49623677 4.86469356 2 9 C0.4375 11.875 0.4375 11.875 -2 14 C-5.66582737 14.52368962 -7.98831357 14.45259656 -11.375 12.9375 C-13.83289714 10.00693033 -14 7.77910616 -14 4 C-10.09305917 -2.41854566 -6.77291658 -2.46287876 0 0 Z " fill="#D3525C" transform="translate(181,185)"/>
<path d="M0 0 C1.9375 1.125 1.9375 1.125 3 3 C3.50030235 6.93094707 3.5996142 9.1005787 1.375 12.4375 C-1.69817115 14.45932313 -3.38247881 14.52755517 -7 14 C-9.3125 12.875 -9.3125 12.875 -11 11 C-12.19308162 7.34121638 -12.32667744 5.70002308 -10.6875 2.1875 C-7.49301971 -1.95349297 -4.85301415 -1.02168719 0 0 Z " fill="#E1644E" transform="translate(155,188)"/>
<path d="M0 0 C2.3125 1.125 2.3125 1.125 4 3 C4.92967567 6.12105404 5.2690005 8.11963471 4.3125 11.25 C2.66507222 13.44657038 1.63550724 14.19470612 -1 15 C-4.06653482 14.81225297 -6.23137414 14.46117551 -8.875 12.875 C-10.70099685 9.83167192 -10.42460581 7.45750445 -10 4 C-7.24846472 -0.12730291 -4.82246105 -0.70327557 0 0 Z " fill="#294C86" transform="translate(219,76)"/>
<path d="M0 0 C2.42194927 1.53390121 2.88729401 2.69408374 3.875 5.375 C4.0389951 8.81889713 3.05689702 10.28195751 1 13 C-2 15 -2 15 -5 14.8125 C-9.43283582 13.6119403 -9.43283582 13.6119403 -11 11 C-11.49573337 7.10495209 -11.58016848 4.90506283 -9.4375 1.5625 C-6.09493717 -0.58016848 -3.89504791 -0.49573337 0 0 Z " fill="#736EA7" transform="translate(220,111)"/>
<path d="M0 0 C2.53301531 0.04993399 3.86807975 0.11351112 6.125 1.3125 C7.73356522 4.42909511 7.54713381 6.81262469 7.125 10.25 C5.5625 12.6875 5.5625 12.6875 3.125 14.25 C-2.73810905 14.97003094 -2.73810905 14.97003094 -5.75 13.0625 C-7.22905406 10.67957957 -7.74091307 9.06582552 -7.875 6.25 C-4.90833333 0.31666667 -4.90833333 0.31666667 0 0 Z " fill="#3398B3" transform="translate(150.875,-0.25)"/>
<path d="M0 0 C3.4375 0.75 3.4375 0.75 5.4375 2.75 C6.11431895 9.85659898 6.11431895 9.85659898 3.875 12.8125 C0.311603 14.18303731 -1.9259069 13.80791799 -5.5625 12.75 C-7.625 10.5625 -7.625 10.5625 -8.5625 7.75 C-7.9375 4.5625 -7.9375 4.5625 -6.5625 1.75 C-3.5625 -0.25 -3.5625 -0.25 0 0 Z " fill="#1E3C6F" transform="translate(210.5625,60.25)"/>
<path d="M0 0 C2 2 2 2 2.3125 5.9375 C2.23081662 8.43791894 2.12109418 9.77205801 0.9375 12 C-2.13215135 13.58433618 -4.61681143 13.36248449 -8 13 C-9.9375 12 -9.9375 12 -11 10 C-11.46000079 7.23999526 -11.50420748 4.75595226 -11 2 C-7.93817059 -2.04161482 -4.56939437 -1.10003939 0 0 Z " fill="#09A495" transform="translate(131,4)"/>
<path d="M0 0 C2 2 2 2 2.3125 5.9375 C2.23081662 8.43791894 2.12109418 9.77205801 0.9375 12 C-2.13215135 13.58433618 -4.61681143 13.36248449 -8 13 C-9.9375 12 -9.9375 12 -11 10 C-11.51588106 7.21772014 -11.61084998 4.77187586 -11 2 C-7.44381044 -1.45159575 -4.61923582 -1.3344459 0 0 Z " fill="#F57D29" transform="translate(131,185)"/>
<path d="M0 0 C1.9375 1.0625 1.9375 1.0625 3 3 C3.36528977 6.4093712 3.6140629 8.88023824 1.9375 11.9375 C-1.11976176 13.6140629 -3.5906288 13.36528977 -7 13 C-9.1595457 11.56030286 -9.79150161 10.48115013 -10.8125 8.125 C-11.06421186 5.27226556 -10.2960437 3.52387457 -9 1 C-5.95016004 -0.52491998 -3.3576631 -0.23562548 0 0 Z " fill="#99558E" transform="translate(213,128)"/>
<path d="M0 0 C1.875 1.125 1.875 1.125 3 3 C3.53852618 6.61581862 3.42236225 8.34111489 1.4375 11.4375 C-1 13 -1 13 -4.625 12.9375 C-8 12 -8 12 -10 9 C-9.8125 5.4375 -9.8125 5.4375 -9 2 C-5.53076119 -0.31282587 -4.07794425 -0.42478586 0 0 Z " fill="#AE3278" transform="translate(202,142)"/>
<path d="M0 0 C2.9375 0.75 2.9375 0.75 4.9375 2.75 C5.48337156 8.75458716 5.48337156 8.75458716 3.875 11.6875 C0.74573783 13.403547 -1.58013658 13.24748049 -5.0625 12.75 C-7.125 10.625 -7.125 10.625 -8.0625 7.75 C-7.4375 4.5625 -7.4375 4.5625 -6.0625 1.75 C-3.0625 -0.25 -3.0625 -0.25 0 0 Z " fill="#F89727" transform="translate(105.0625,175.25)"/>
<path d="M0 0 C3.125 0.25 3.125 0.25 5 1.3125 C6.76773274 4.3569286 6.49323916 6.8131012 6.125 10.25 C5 12.1875 5 12.1875 3.125 13.25 C-0.06149624 13.64831203 -1.9970528 13.85548083 -4.6875 12 C-6.08705 9.93750526 -6.72764484 8.75503771 -6.875 6.25 C-3.84854497 0.33465608 -3.84854497 0.33465608 0 0 Z " fill="#00AA73" transform="translate(103.875,12.75)"/>
<path d="M0 0 C3.5625 0.3125 3.5625 0.3125 5.5 1.4375 C7.06672245 4.20230433 6.95226435 6.19438517 6.5625 9.3125 C5.12472319 11.39727638 3.96451761 12.12489178 1.6875 13.1875 C-1.38357567 13.36815151 -2.97442932 12.04330642 -5.4375 10.3125 C-5.7675 9.9825 -6.0975 9.6525 -6.4375 9.3125 C-5.6375 0.5125 -5.6375 0.5125 0 0 Z " fill="#184A89" transform="translate(198.4375,46.6875)"/>
<path d="M0 0 C2.14373717 5.24024641 2.14373717 5.24024641 1.5625 8.3125 C0 10 0 10 -3.4375 10.875 C-7 11 -7 11 -10 9 C-10.97868153 6.13923862 -11.22135111 4.61297231 -10.1875 1.75 C-7.49910175 -2.21185006 -4.22640759 -0.70440127 0 0 Z " fill="#FEC026" transform="translate(89,162)"/>
<path d="M0 0 C1.5 1.75 1.5 1.75 2 4 C1.68097423 7.34977063 1.40820361 8.59179639 -1 11 C-4.5 11.25 -4.5 11.25 -8 11 C-10 9 -10 9 -10.3125 5.5625 C-10 2 -10 2 -8.9375 0 C-5.73669949 -1.65202607 -3.37358673 -0.92006911 0 0 Z " fill="#BD2468" transform="translate(189,154)"/>
<path d="M0 0 C2 3 2 3 1.75 6.0625 C1 9 1 9 -1 11 C-4.5 11.25 -4.5 11.25 -8 11 C-10 9 -10 9 -10.375 5.5625 C-10 2 -10 2 -8.375 0 C-5.16403572 -1.35198496 -3.30053834 -1.00451167 0 0 Z " fill="#3267A2" transform="translate(189,37)"/>
<path d="M0 0 C2.4375 1.375 2.4375 1.375 3.9375 3.6875 C4.4375 6.375 4.4375 6.375 3.3125 9.125 C1.4375 11.375 1.4375 11.375 -0.4375 12.375 C-3.59882343 12.375 -5.13213742 11.34556425 -7.5625 9.375 C-8.5625 6.9375 -8.5625 6.9375 -8.5625 4.375 C-6.45727586 0.58559655 -4.45694226 -1.08705909 0 0 Z " fill="#4EBA69" transform="translate(86.5625,28.625)"/>
<path d="M0 0 C1.8125 1.1875 1.8125 1.1875 3 3 C3.42822025 5.85480169 3.40659584 7.34492892 1.875 9.8125 C-0.83445834 11.52849028 -2.86295684 11.333728 -6 11 C-8 9 -8 9 -8.3125 5.5 C-8.209375 4.345 -8.10625 3.19 -8 2 C-4.76746204 -0.15502531 -3.74849077 -0.46856135 0 0 Z " fill="#294C87" transform="translate(199,83)"/>
<path d="M0 0 C1.8125 1.1875 1.8125 1.1875 3 3 C3.42822025 5.85480169 3.40659584 7.34492892 1.875 9.8125 C-0.83445834 11.52849028 -2.86295684 11.333728 -6 11 C-8 9 -8 9 -8.3125 5.5 C-8.209375 4.345 -8.10625 3.19 -8 2 C-4.76746204 -0.15502531 -3.74849077 -0.46856135 0 0 Z " fill="#4B8ECC" transform="translate(171,30)"/>
<path d="M0 0 C2.9375 0.8125 2.9375 0.8125 4.9375 2.8125 C4.36057692 9.38942308 4.36057692 9.38942308 2.9375 10.8125 C-0.5 11 -0.5 11 -4.0625 10.8125 C-6.0625 8.8125 -6.0625 8.8125 -6.375 5.875 C-6.0625 2.8125 -6.0625 2.8125 -4.9375 0.875 C-3.0625 -0.1875 -3.0625 -0.1875 0 0 Z " fill="#D4515B" transform="translate(169.0625,160.1875)"/>
<path d="M0 0 C1.33359073 6.42548263 1.33359073 6.42548263 -0.125 8.9375 C-2.63647631 10.36066991 -4.15503228 10.42674516 -7 10 C-8.875 8.9375 -8.875 8.9375 -10 7 C-9.8125 3.375 -9.8125 3.375 -9 0 C-5.93109813 -1.53445094 -3.29905734 -0.54984289 0 0 Z " fill="#FED626" transform="translate(74,143)"/>
<path d="M0 0 C2.9375 0.875 2.9375 0.875 4.9375 3.875 C4.38194444 9.43055556 4.38194444 9.43055556 2.9375 10.875 C-0.5 11.0625 -0.5 11.0625 -4.0625 10.875 C-6.0625 8.875 -6.0625 8.875 -6.375 5.9375 C-6.0625 2.875 -6.0625 2.875 -4.9375 0.9375 C-3.0625 -0.125 -3.0625 -0.125 0 0 Z " fill="#736DA8" transform="translate(197.0625,107.125)"/>
<path d="M0 0 C2.5625 0.1875 2.5625 0.1875 4.5625 2.1875 C4.2355244 4.80330479 3.74210932 6.82828137 2.5625 9.1875 C2.7275 9.8475 2.8925 10.5075 3.0625 11.1875 C3.5625 13.1875 3.5625 13.1875 2.5625 15.1875 C0.5825 15.1875 -1.3975 15.1875 -3.4375 15.1875 C-4.0625 12.875 -4.0625 12.875 -4.4375 10.1875 C-3.7775 9.1975 -3.1175 8.2075 -2.4375 7.1875 C-2.7675 6.8575 -3.0975 6.5275 -3.4375 6.1875 C-3.5625 3.6875 -3.5625 3.6875 -3.4375 1.1875 C-2.4375 0.1875 -2.4375 0.1875 0 0 Z " fill="#5263A0" transform="translate(181.4375,96.8125)"/>
<path d="M0 0 C0.66 0.66 1.32 1.32 2 2 C1.42307692 8.57692308 1.42307692 8.57692308 0 10 C-3.4375 10.1875 -3.4375 10.1875 -7 10 C-9 8 -9 8 -9.375 5.0625 C-9 2 -9 2 -7.3125 0.0625 C-4.38550346 -1.28233625 -3.01415011 -1.03115662 0 0 Z " fill="#7DC45E" transform="translate(73,49)"/>
<path d="M0 0 C2.5625 0.375 2.5625 0.375 4.4375 2.0625 C5.85114911 4.96833428 5.54420152 6.34808697 4.5625 9.375 C3.5625 10.375 3.5625 10.375 0.125 10.625 C-1.050625 10.5425 -2.22625 10.46 -3.4375 10.375 C-5.4375 7.375 -5.4375 7.375 -5.1875 4.8125 C-4.1927353 1.57951474 -3.3898104 0.52150929 0 0 Z " fill="#341954" transform="translate(60.4375,69.625)"/>
<path d="M0 0 C2.5625 0.375 2.5625 0.375 4.4375 2.0625 C5.85114911 4.96833428 5.54420152 6.34808697 4.5625 9.375 C3.5625 10.375 3.5625 10.375 0.125 10.625 C-1.050625 10.5425 -2.22625 10.46 -3.4375 10.375 C-5.4375 7.375 -5.4375 7.375 -5.1875 4.8125 C-4.1927353 1.57951474 -3.3898104 0.52150929 0 0 Z " fill="#1D3D6D" transform="translate(191.4375,71.625)"/>
<path d="M0 0 C3.625 0.375 3.625 0.375 7 1 C7.625 4.375 7.625 4.375 8 8 C6 10 6 10 3 10.25 C0 10 0 10 -2 8 C-2.25 5 -2.25 5 -2 2 C-1.34 1.34 -0.68 0.68 0 0 Z " fill="#E0644E" transform="translate(148,163)"/>
<path d="M0 0 C2.5625 0.375 2.5625 0.375 4.4375 2.0625 C5.84111489 4.94770838 5.48304342 6.36231243 4.5625 9.375 C-1.84944487 10.70578101 -1.84944487 10.70578101 -4.4375 9.25 C-5.4375 7.375 -5.4375 7.375 -5.25 4.8125 C-4.18139434 1.60668302 -3.39220485 0.52187767 0 0 Z " fill="#99548E" transform="translate(191.4375,118.625)"/>
<path d="M0 0 C2.4375 0.75 2.4375 0.75 4.4375 2.75 C4.6875 5.25 4.6875 5.25 4.4375 7.75 C2.4375 9.75 2.4375 9.75 -0.5625 10 C-3.5625 9.75 -3.5625 9.75 -5.5625 7.75 C-5.875 4.75 -5.875 4.75 -5.5625 1.75 C-2.5625 -0.25 -2.5625 -0.25 0 0 Z " fill="#3497B3" transform="translate(151.5625,28.25)"/>
<path d="M0 0 C2 3 2 3 1.6875 5.625 C1 8 1 8 0 9 C-2.9375 9.25 -2.9375 9.25 -6 9 C-8 6 -8 6 -7.75 3.375 C-7.5025 2.59125 -7.255 1.8075 -7 1 C-4.46578263 -0.26710868 -2.80561762 -0.28056176 0 0 Z " fill="#184D88" transform="translate(187,63)"/>
<path d="M0 0 C2.97 0.495 2.97 0.495 6 1 C6.33 2.98 6.66 4.96 7 7 C4.75 8.625 4.75 8.625 2 10 C-0.25 9.4375 -0.25 9.4375 -2 8 C-2.9375 6.125 -2.9375 6.125 -3 4 C-1.5625 1.75 -1.5625 1.75 0 0 Z " fill="#AF3376" transform="translate(182,129)"/>
<path d="M0 0 C5.56818182 0.56818182 5.56818182 0.56818182 7 2 C7.1875 4.4375 7.1875 4.4375 7 7 C5 9 5 9 1.9375 9.1875 C-1 9 -1 9 -2 8 C-2.1875 5.0625 -2.1875 5.0625 -2 2 C-1.34 1.34 -0.68 0.68 0 0 Z " fill="#F57E28" transform="translate(131,161)"/>
<path d="M0 0 C2.5 0.25 2.5 0.25 4.5 2.25 C4.75 4.75 4.75 4.75 4.5 7.25 C2.5 9.25 2.5 9.25 0 9.5 C-2.5 9.25 -2.5 9.25 -4.5 7.25 C-4.75 4.75 -4.75 4.75 -4.5 2.25 C-2.5 0.25 -2.5 0.25 0 0 Z " fill="#0AA396" transform="translate(133.5,30.75)"/>
<path d="M0 0 C4.55555556 0.55555556 4.55555556 0.55555556 6 2 C6.04063832 3.66617115 6.042721 5.33388095 6 7 C4.25 8.125 4.25 8.125 2 9 C-0.25 8.125 -0.25 8.125 -2 7 C-2.125 4.625 -2.125 4.625 -2 2 C-1.34 1.34 -0.68 0.68 0 0 Z " fill="#00AA75" transform="translate(115,38)"/>
<path d="M0 0 C2.5 0.125 2.5 0.125 3.5 1.125 C3.625 4.125 3.625 4.125 3.5 7.125 C2.5 8.125 2.5 8.125 0.0625 8.3125 C-2.5 8.125 -2.5 8.125 -4.5 6.125 C-3.77607362 0.18880368 -3.77607362 0.18880368 0 0 Z " fill="#F89727" transform="translate(117.5,154.875)"/>
<path d="M0 0 C3.125 0.375 3.125 0.375 6 1 C6.04254356 2.99954746 6.04080783 5.00041636 6 7 C5 8 5 8 1.9375 8.0625 C0.968125 8.041875 -0.00125 8.02125 -1 8 C-1.625 5.125 -1.625 5.125 -2 2 C-1.34 1.34 -0.68 0.68 0 0 Z " fill="#BC2368" transform="translate(172,137)"/>
<path d="M0 0 C2.5 0.125 2.5 0.125 3.5 1.125 C3.625 4.125 3.625 4.125 3.5 7.125 C2.5 8.125 2.5 8.125 0.0625 8.3125 C-2.5 8.125 -2.5 8.125 -4.5 6.125 C-3.77607362 0.18880368 -3.77607362 0.18880368 0 0 Z " fill="#3468A3" transform="translate(174.5,55.875)"/>
<path d="M0 0 C2.625 0.375 2.625 0.375 5 1 C5.625 3.375 5.625 3.375 6 6 C5.34 6.66 4.68 7.32 4 8 C1.375 7.625 1.375 7.625 -1 7 C-1.625 4.625 -1.625 4.625 -2 2 C-1.34 1.34 -0.68 0.68 0 0 Z " fill="#D3515C" transform="translate(161,142)"/>
<path d="M0 0 C1.98 0 3.96 0 6 0 C7.125 4.75 7.125 4.75 6 7 C4.02 7 2.04 7 0 7 C-1.125 2.25 -1.125 2.25 0 0 Z " fill="#4891CC" transform="translate(160,52)"/>
<path d="M0 0 C1.67542976 0.28604898 3.34385343 0.61781233 5 1 C5.6875 2.8125 5.6875 2.8125 6 5 C4.5625 6.75 4.5625 6.75 3 8 C0.525 7.01 0.525 7.01 -2 6 C-1.125 1.125 -1.125 1.125 0 0 Z " fill="#3499B3" transform="translate(149,50)"/>
<path d="M0 0 C2.475 0.99 2.475 0.99 5 2 C4.67 3.65 4.34 5.3 4 7 C2.35 7.33 0.7 7.66 -1 8 C-1.66 6.35 -2.32 4.7 -3 3 C-2.01 2.01 -1.02 1.02 0 0 Z " fill="#4FB967" transform="translate(102,49)"/>
<path d="M0 0 C2.625 0.375 2.625 0.375 5 1 C6.125 4.75 6.125 4.75 5 7 C3.02 7 1.04 7 -1 7 C-1.625 4.625 -1.625 4.625 -2 2 C-1.34 1.34 -0.68 0.68 0 0 Z " fill="#716DA7" transform="translate(179,105)"/>
<path d="M0 0 C2.625 0.375 2.625 0.375 5 1 C6.125 4.75 6.125 4.75 5 7 C3.02 7 1.04 7 -1 7 C-1.625 4.625 -1.625 4.625 -2 2 C-1.34 1.34 -0.68 0.68 0 0 Z " fill="#2B4F87" transform="translate(179,89)"/>
<path d="M0 0 C1.98 0 3.96 0 6 0 C6.625 2.375 6.625 2.375 7 5 C6.34 5.66 5.68 6.32 5 7 C2.375 6.625 2.375 6.625 0 6 C-1 3 -1 3 0 0 Z " fill="#FEC125" transform="translate(100,145)"/>
<path d="M0 0 C1.65 0 3.3 0 5 0 C5.66 1.32 6.32 2.64 7 4 C6.01 5.485 6.01 5.485 5 7 C2.375 7.1875 2.375 7.1875 0 7 C-1.125 2.25 -1.125 2.25 0 0 Z " fill="#E16550" transform="translate(148,144)"/>
<path d="M0 0 C1.66611905 -0.042721 3.33382885 -0.04063832 5 0 C6 1 6 1 6.0625 3.5625 C6.041875 4.366875 6.02125 5.17125 6 6 C3.625 6.625 3.625 6.625 1 7 C0.34 6.34 -0.32 5.68 -1 5 C-0.625 2.375 -0.625 2.375 0 0 Z " fill="#1F3B6D" transform="translate(175,82)"/>
<path d="M0 0 C1.67542976 0.28604898 3.34385343 0.61781233 5 1 C5 2.65 5 4.3 5 6 C2.625 6.625 2.625 6.625 0 7 C-0.66 6.34 -1.32 5.68 -2 5 C-1.46428571 1.46428571 -1.46428571 1.46428571 0 0 Z " fill="#09A395" transform="translate(137,52)"/>
<path d="M0 0 C1.66611905 -0.042721 3.33382885 -0.04063832 5 0 C6 1 6 1 6.0625 3.5625 C6.041875 4.366875 6.02125 5.17125 6 6 C4.1875 6.625 4.1875 6.625 2 7 C1.01 6.34 0.02 5.68 -1 5 C-0.67 3.35 -0.34 1.7 0 0 Z " fill="#9B5290" transform="translate(175,113)"/>
<path d="M0 0 C1.32 0.66 2.64 1.32 4 2 C3.67 3.65 3.34 5.3 3 7 C1.35 7 -0.3 7 -2 7 C-2.33 5.35 -2.66 3.7 -3 2 C-2.01 1.34 -1.02 0.68 0 0 Z " fill="#F57E2A" transform="translate(138,142)"/>
<path d="M0 0 C1.67542976 0.28604898 3.34385343 0.61781233 5 1 C5 2.65 5 4.3 5 6 C3.34385343 6.38218767 1.67542976 6.71395102 0 7 C-1 6 -1 6 -1.125 3.5 C-1 1 -1 1 0 0 Z " fill="#B12E72" transform="translate(171,119)"/>
<path d="M0 0 C1.2065625 0.0309375 1.2065625 0.0309375 2.4375 0.0625 C3.5625 3.8125 3.5625 3.8125 2.4375 6.0625 C0.7875 6.0625 -0.8625 6.0625 -2.5625 6.0625 C-2.94468767 4.40635343 -3.27645102 2.73792976 -3.5625 1.0625 C-2.5625 0.0625 -2.5625 0.0625 0 0 Z " fill="#77C759" transform="translate(92.5625,63.9375)"/>
<path d="M0 0 C1.67542976 0.28604898 3.34385343 0.61781233 5 1 C5.33 1.99 5.66 2.98 6 4 C5.67 4.66 5.34 5.32 5 6 C3.35 6 1.7 6 0 6 C-0.38218767 4.34385343 -0.71395102 2.67542976 -1 1 C-0.67 0.67 -0.34 0.34 0 0 Z " fill="#F89B26" transform="translate(125,138)"/>
<path d="M0 0 C1.65 0.33 3.3 0.66 5 1 C5.5625 2.9375 5.5625 2.9375 6 5 C5 6 5 6 2.4375 6.0625 C1.2309375 6.0315625 1.2309375 6.0315625 0 6 C-1.125 2.25 -1.125 2.25 0 0 Z " fill="#FED824" transform="translate(90,131)"/>
<path d="M0 0 C1.67542976 0.28604898 3.34385343 0.61781233 5 1 C5.33 1.99 5.66 2.98 6 4 C5.67 4.66 5.34 5.32 5 6 C3.35 6 1.7 6 0 6 C-0.38218767 4.34385343 -0.71395102 2.67542976 -1 1 C-0.67 0.67 -0.34 0.34 0 0 Z " fill="#00A974" transform="translate(125,57)"/>
<path d="M0 0 C1.65 0 3.3 0 5 0 C5.33 1.65 5.66 3.3 6 5 C4.34385343 5.38218767 2.67542976 5.71395102 1 6 C0 5 0 5 -0.0625 2.4375 C-0.041875 1.633125 -0.02125 0.82875 0 0 Z " fill="#194C88" transform="translate(170,76)"/>
<path d="M0 0 C1.65 0 3.3 0 5 0 C5.625 1.875 5.625 1.875 6 4 C5.34 4.66 4.68 5.32 4 6 C1.875 5.625 1.875 5.625 0 5 C0 3.35 0 1.7 0 0 Z " fill="#FEC326" transform="translate(115,131)"/>
<path d="M0 0 C1.65 0 3.3 0 5 0 C5.625 1.875 5.625 1.875 6 4 C5.34 4.66 4.68 5.32 4 6 C1.875 5.625 1.875 5.625 0 5 C0 3.35 0 1.7 0 0 Z " fill="#4DBA6B" transform="translate(115,65)"/>
<path d="M0 0 C1.65 0.33 3.3 0.66 5 1 C4.67 2.65 4.34 4.3 4 6 C2.68 6 1.36 6 0 6 C-1.125 2.25 -1.125 2.25 0 0 Z " fill="#3163A6" transform="translate(164,71)"/>
<path d="M0 0 C1.2065625 0.0309375 1.2065625 0.0309375 2.4375 0.0625 C2.4375 1.7125 2.4375 3.3625 2.4375 5.0625 C0.7875 5.0625 -0.8625 5.0625 -2.5625 5.0625 C-3.125 3.125 -3.125 3.125 -3.5625 1.0625 C-2.5625 0.0625 -2.5625 0.0625 0 0 Z " fill="#BD266A" transform="translate(166.5625,124.9375)"/>
<path d="M0 0 C1.32 0 2.64 0 4 0 C4.33 1.32 4.66 2.64 5 4 C3.125 5.0625 3.125 5.0625 1 6 C0.34 5.67 -0.32 5.34 -1 5 C-0.67 3.35 -0.34 1.7 0 0 Z " fill="#4D8CCC" transform="translate(157,68)"/>
<path d="M0 0 C1.32 0.33 2.64 0.66 4 1 C3.67 2.65 3.34 4.3 3 6 C1.0625 5.625 1.0625 5.625 -1 5 C-1.33 4.34 -1.66 3.68 -2 3 C-1.34 2.01 -0.68 1.02 0 0 Z " fill="#FED626" transform="translate(109,121)"/>
<path d="M0 0 C1.65 0.33 3.3 0.66 5 1 C4.67 2.32 4.34 3.64 4 5 C2.35 4.67 0.7 4.34 -1 4 C-0.67 2.68 -0.34 1.36 0 0 Z " fill="#D1515A" transform="translate(157,128)"/>
<path d="M0 0 C1.32 0 2.64 0 4 0 C4 1.65 4 3.3 4 5 C2.35 4.67 0.7 4.34 -1 4 C-0.67 2.68 -0.34 1.36 0 0 Z " fill="#E16651" transform="translate(149,129)"/>
<path d="M0 0 C2.475 0.495 2.475 0.495 5 1 C4.67 2.32 4.34 3.64 4 5 C2.68 5 1.36 5 0 5 C0 3.35 0 1.7 0 0 Z " fill="#7DC35F" transform="translate(108,75)"/>
<path d="M0 0 C1.98 0.495 1.98 0.495 4 1 C4 2.32 4 3.64 4 5 C2.35 4.67 0.7 4.34 -1 4 C-0.67 2.68 -0.34 1.36 0 0 Z " fill="#2F9BB4" transform="translate(149,67)"/>
<path d="M0 0 C1.32 0.33 2.64 0.66 4 1 C3.67 2.32 3.34 3.64 3 5 C2.01 5 1.02 5 0 5 C0 3.35 0 1.7 0 0 Z " fill="#F57825" transform="translate(141,128)"/>
<path d="M0 0 C1.32 0 2.64 0 4 0 C4 1.32 4 2.64 4 4 C2.68 4 1.36 4 0 4 C0 2.68 0 1.36 0 0 Z " fill="#09A396" transform="translate(141,69)"/>
<path d="M0 0 C0.99 0 1.98 0 3 0 C3 1.32 3 2.64 3 4 C1.68 3.67 0.36 3.34 -1 3 C-0.67 2.01 -0.34 1.02 0 0 Z " fill="#F9962A" transform="translate(134,125)"/>
<path d="M0 0 C0.99 0 1.98 0 3 0 C3 1.32 3 2.64 3 4 C1.68 3.67 0.36 3.34 -1 3 C-0.67 2.01 -0.34 1.02 0 0 Z " fill="#00A975" transform="translate(134,72)"/>
<path d="M0 0 C1.32 0 2.64 0 4 0 C4 0.99 4 1.98 4 3 C2.68 3 1.36 3 0 3 C0 2.01 0 1.02 0 0 Z " fill="#FEC027" transform="translate(127,121)"/>
<path d="M0 0 C0.99 0.33 1.98 0.66 3 1 C2.67 1.99 2.34 2.98 2 4 C1.01 3.67 0.02 3.34 -1 3 C-0.67 2.01 -0.34 1.02 0 0 Z " fill="#4EB96A" transform="translate(128,77)"/>
</svg>
